%FSLAX45Y45*%
G04 Gerber Fmt 4.5, Leading zero omitted, Abs format (unit mm)*
G04 Created by KiCad (PCBNEW 6.0.2+dfsg-1) date 2022-11-20 12:03:05*
%MOMM*%
%LPD*%
G01*
G04 APERTURE LIST*
%TA.AperFunction,Profile*%
%ADD10C,0.150000*%
%TD*%
%ADD11C,0.200000*%
%ADD12C,0.050000*%
%ADD13C,0.065000*%
%ADD14C,0.230000*%
%ADD15C,0.270000*%
%ADD16C,0.710000*%
G04 APERTURE END LIST*
D10*
X8440000Y500000D02*
X8440000Y600000D01*
X7110000Y1000000D02*
X6370000Y1000000D01*
X4990000Y900000D02*
X4990000Y500000D01*
X13040000Y500000D02*
X13040000Y0D01*
X6884645Y6960000D02*
G75*
G03*
X6834645Y6910000I0J-50000D01*
G01*
X6320000Y1050000D02*
G75*
G03*
X6370000Y1000000I50000J0D01*
G01*
X5840000Y1050000D02*
X5840000Y1350000D01*
X6784645Y6140000D02*
G75*
G03*
X6834645Y6190000I0J50000D01*
G01*
X8520000Y6960000D02*
X8440000Y6960000D01*
X7940000Y6960000D02*
X6884645Y6960000D01*
X12490000Y6510000D02*
X12490000Y7160000D01*
X8940000Y500000D02*
X8940000Y600000D01*
X9990000Y6410000D02*
X9990000Y6120000D01*
X9990000Y3320000D02*
X9990000Y1520000D01*
X9990000Y5620000D02*
X9990000Y3820000D01*
X9990000Y1020000D02*
X9990000Y700000D01*
X13040000Y7660000D02*
X13040000Y7160000D01*
X5490000Y6240000D02*
X5490000Y7160000D01*
X940000Y900000D02*
X940000Y500000D01*
X10690000Y6510000D02*
X10690000Y7160000D01*
X6270000Y1400000D02*
X5890000Y1400000D01*
X860000Y1110000D02*
X860000Y1050000D01*
X9790000Y6410000D02*
X8520000Y6960000D01*
X940000Y6240000D02*
X940000Y7160000D01*
X90000Y1110000D02*
X860000Y1110000D01*
X12490000Y500000D02*
X12490000Y600000D01*
X860000Y1050000D02*
G75*
G03*
X910000Y1000000I50000J0D01*
G01*
X5790000Y1000000D02*
G75*
G03*
X5840000Y1050000I0J50000D01*
G01*
X7940000Y7060000D02*
X7940000Y7160000D01*
X0Y5940000D02*
X0Y1200000D01*
X12990000Y6510000D02*
X12990000Y7160000D01*
X0Y1200000D02*
G75*
G03*
X90000Y1110000I90000J0D01*
G01*
X5490000Y900000D02*
X5490000Y500000D01*
X0Y7660000D02*
X0Y7160000D01*
X7590000Y700000D02*
X7110000Y1000000D01*
X10140000Y500000D02*
X10140000Y600000D01*
X9790000Y700000D02*
X9790000Y1020000D01*
X9790000Y3820000D02*
X9790000Y5620000D01*
X9790000Y6120000D02*
X9790000Y6410000D01*
X9790000Y1520000D02*
X9790000Y3320000D01*
X6834645Y6190000D02*
X6834645Y6910000D01*
X5890000Y1400000D02*
G75*
G03*
X5840000Y1350000I0J-50000D01*
G01*
X5490000Y7160000D02*
X7940000Y7160000D01*
X12990000Y7160000D02*
X13040000Y7160000D01*
X8440000Y7160000D02*
X10190000Y7160000D01*
X1440000Y7160000D02*
X4990000Y7160000D01*
X10690000Y7160000D02*
X12490000Y7160000D01*
X0Y7160000D02*
X940000Y7160000D01*
X6320000Y1350000D02*
G75*
G03*
X6270000Y1400000I-50000J0D01*
G01*
X6320000Y1050000D02*
X6320000Y1350000D01*
X910000Y6140000D02*
X940000Y6140000D01*
X1440000Y6140000D02*
X4990000Y6140000D01*
X5490000Y6140000D02*
X6784645Y6140000D01*
X1440000Y900000D02*
X1440000Y500000D01*
X910000Y6140000D02*
G75*
G03*
X860000Y6090000I0J-50000D01*
G01*
X1440000Y6240000D02*
X1440000Y7160000D01*
X12990000Y500000D02*
X12990000Y600000D01*
X13035000Y6410000D02*
X12990000Y6410000D01*
X12490000Y6410000D02*
X10690000Y6410000D01*
X10190000Y6410000D02*
X9990000Y6410000D01*
X4990000Y6240000D02*
X4990000Y7160000D01*
X0Y500000D02*
X0Y0D01*
X13035000Y6410000D02*
X13035000Y700000D01*
X9790000Y700000D02*
X8940000Y700000D01*
X8440000Y700000D02*
X7590000Y700000D01*
X10190000Y6510000D02*
X10190000Y7160000D01*
X0Y0D02*
X13040000Y0D01*
X90000Y6030000D02*
G75*
G03*
X0Y5940000I0J-90000D01*
G01*
X8440000Y7060000D02*
X8440000Y7160000D01*
X5490000Y500000D02*
X8440000Y500000D01*
X10640000Y500000D02*
X12490000Y500000D01*
X0Y500000D02*
X940000Y500000D01*
X8940000Y500000D02*
X10140000Y500000D01*
X1440000Y500000D02*
X4990000Y500000D01*
X12990000Y500000D02*
X13040000Y500000D01*
X860000Y6030000D02*
X860000Y6090000D01*
X10640000Y500000D02*
X10640000Y600000D01*
X90000Y6030000D02*
X860000Y6030000D01*
X910000Y1000000D02*
X940000Y1000000D01*
X5490000Y1000000D02*
X5790000Y1000000D01*
X1440000Y1000000D02*
X4990000Y1000000D01*
X13035000Y700000D02*
X12990000Y700000D01*
X10140000Y700000D02*
X9990000Y700000D01*
X12490000Y700000D02*
X10640000Y700000D01*
X0Y7660000D02*
X13040000Y7660000D01*
D11*
D12*
X965000Y6165000D02*
X1015000Y6115000D01*
X1015000Y6165000D02*
X965000Y6115000D01*
X965000Y1025000D02*
X1015000Y975000D01*
X1015000Y1025000D02*
X965000Y975000D01*
X1045000Y6165000D02*
X1095000Y6115000D01*
X1095000Y6165000D02*
X1045000Y6115000D01*
X1045000Y1025000D02*
X1095000Y975000D01*
X1095000Y1025000D02*
X1045000Y975000D01*
X1125000Y6165000D02*
X1175000Y6115000D01*
X1175000Y6165000D02*
X1125000Y6115000D01*
X1125000Y1025000D02*
X1175000Y975000D01*
X1175000Y1025000D02*
X1125000Y975000D01*
X1205000Y6165000D02*
X1255000Y6115000D01*
X1255000Y6165000D02*
X1205000Y6115000D01*
X1205000Y1025000D02*
X1255000Y975000D01*
X1255000Y1025000D02*
X1205000Y975000D01*
X1285000Y6165000D02*
X1335000Y6115000D01*
X1335000Y6165000D02*
X1285000Y6115000D01*
X1285000Y1025000D02*
X1335000Y975000D01*
X1335000Y1025000D02*
X1285000Y975000D01*
X1365000Y6165000D02*
X1415000Y6115000D01*
X1415000Y6165000D02*
X1365000Y6115000D01*
X1365000Y1025000D02*
X1415000Y975000D01*
X1415000Y1025000D02*
X1365000Y975000D01*
X5015000Y6165000D02*
X5065000Y6115000D01*
X5065000Y6165000D02*
X5015000Y6115000D01*
X5015000Y1025000D02*
X5065000Y975000D01*
X5065000Y1025000D02*
X5015000Y975000D01*
X5095000Y6165000D02*
X5145000Y6115000D01*
X5145000Y6165000D02*
X5095000Y6115000D01*
X5095000Y1025000D02*
X5145000Y975000D01*
X5145000Y1025000D02*
X5095000Y975000D01*
X5175000Y6165000D02*
X5225000Y6115000D01*
X5225000Y6165000D02*
X5175000Y6115000D01*
X5175000Y1025000D02*
X5225000Y975000D01*
X5225000Y1025000D02*
X5175000Y975000D01*
X5255000Y6165000D02*
X5305000Y6115000D01*
X5305000Y6165000D02*
X5255000Y6115000D01*
X5255000Y1025000D02*
X5305000Y975000D01*
X5305000Y1025000D02*
X5255000Y975000D01*
X5335000Y6165000D02*
X5385000Y6115000D01*
X5385000Y6165000D02*
X5335000Y6115000D01*
X5335000Y1025000D02*
X5385000Y975000D01*
X5385000Y1025000D02*
X5335000Y975000D01*
X5415000Y6165000D02*
X5465000Y6115000D01*
X5465000Y6165000D02*
X5415000Y6115000D01*
X5415000Y1025000D02*
X5465000Y975000D01*
X5465000Y1025000D02*
X5415000Y975000D01*
X7965000Y6985000D02*
X8015000Y6935000D01*
X8015000Y6985000D02*
X7965000Y6935000D01*
X8045000Y6985000D02*
X8095000Y6935000D01*
X8095000Y6985000D02*
X8045000Y6935000D01*
X8125000Y6985000D02*
X8175000Y6935000D01*
X8175000Y6985000D02*
X8125000Y6935000D01*
X8205000Y6985000D02*
X8255000Y6935000D01*
X8255000Y6985000D02*
X8205000Y6935000D01*
X8285000Y6985000D02*
X8335000Y6935000D01*
X8335000Y6985000D02*
X8285000Y6935000D01*
X8365000Y6985000D02*
X8415000Y6935000D01*
X8415000Y6985000D02*
X8365000Y6935000D01*
X8465000Y725000D02*
X8515000Y675000D01*
X8515000Y725000D02*
X8465000Y675000D01*
X8545000Y725000D02*
X8595000Y675000D01*
X8595000Y725000D02*
X8545000Y675000D01*
X8625000Y725000D02*
X8675000Y675000D01*
X8675000Y725000D02*
X8625000Y675000D01*
X8705000Y725000D02*
X8755000Y675000D01*
X8755000Y725000D02*
X8705000Y675000D01*
X8785000Y725000D02*
X8835000Y675000D01*
X8835000Y725000D02*
X8785000Y675000D01*
X8865000Y725000D02*
X8915000Y675000D01*
X8915000Y725000D02*
X8865000Y675000D01*
X9765000Y6095000D02*
X9815000Y6045000D01*
X9815000Y6095000D02*
X9765000Y6045000D01*
X9765000Y6015000D02*
X9815000Y5965000D01*
X9815000Y6015000D02*
X9765000Y5965000D01*
X9765000Y5935000D02*
X9815000Y5885000D01*
X9815000Y5935000D02*
X9765000Y5885000D01*
X9765000Y5855000D02*
X9815000Y5805000D01*
X9815000Y5855000D02*
X9765000Y5805000D01*
X9765000Y5775000D02*
X9815000Y5725000D01*
X9815000Y5775000D02*
X9765000Y5725000D01*
X9765000Y5695000D02*
X9815000Y5645000D01*
X9815000Y5695000D02*
X9765000Y5645000D01*
X9765000Y3795000D02*
X9815000Y3745000D01*
X9815000Y3795000D02*
X9765000Y3745000D01*
X9765000Y3715000D02*
X9815000Y3665000D01*
X9815000Y3715000D02*
X9765000Y3665000D01*
X9765000Y3635000D02*
X9815000Y3585000D01*
X9815000Y3635000D02*
X9765000Y3585000D01*
X9765000Y3555000D02*
X9815000Y3505000D01*
X9815000Y3555000D02*
X9765000Y3505000D01*
X9765000Y3475000D02*
X9815000Y3425000D01*
X9815000Y3475000D02*
X9765000Y3425000D01*
X9765000Y3395000D02*
X9815000Y3345000D01*
X9815000Y3395000D02*
X9765000Y3345000D01*
X9765000Y1495000D02*
X9815000Y1445000D01*
X9815000Y1495000D02*
X9765000Y1445000D01*
X9765000Y1415000D02*
X9815000Y1365000D01*
X9815000Y1415000D02*
X9765000Y1365000D01*
X9765000Y1335000D02*
X9815000Y1285000D01*
X9815000Y1335000D02*
X9765000Y1285000D01*
X9765000Y1255000D02*
X9815000Y1205000D01*
X9815000Y1255000D02*
X9765000Y1205000D01*
X9765000Y1175000D02*
X9815000Y1125000D01*
X9815000Y1175000D02*
X9765000Y1125000D01*
X9765000Y1095000D02*
X9815000Y1045000D01*
X9815000Y1095000D02*
X9765000Y1045000D01*
X9965000Y6095000D02*
X10015000Y6045000D01*
X10015000Y6095000D02*
X9965000Y6045000D01*
X9965000Y6015000D02*
X10015000Y5965000D01*
X10015000Y6015000D02*
X9965000Y5965000D01*
X9965000Y5935000D02*
X10015000Y5885000D01*
X10015000Y5935000D02*
X9965000Y5885000D01*
X9965000Y5855000D02*
X10015000Y5805000D01*
X10015000Y5855000D02*
X9965000Y5805000D01*
X9965000Y5775000D02*
X10015000Y5725000D01*
X10015000Y5775000D02*
X9965000Y5725000D01*
X9965000Y5695000D02*
X10015000Y5645000D01*
X10015000Y5695000D02*
X9965000Y5645000D01*
X9965000Y3795000D02*
X10015000Y3745000D01*
X10015000Y3795000D02*
X9965000Y3745000D01*
X9965000Y3715000D02*
X10015000Y3665000D01*
X10015000Y3715000D02*
X9965000Y3665000D01*
X9965000Y3635000D02*
X10015000Y3585000D01*
X10015000Y3635000D02*
X9965000Y3585000D01*
X9965000Y3555000D02*
X10015000Y3505000D01*
X10015000Y3555000D02*
X9965000Y3505000D01*
X9965000Y3475000D02*
X10015000Y3425000D01*
X10015000Y3475000D02*
X9965000Y3425000D01*
X9965000Y3395000D02*
X10015000Y3345000D01*
X10015000Y3395000D02*
X9965000Y3345000D01*
X9965000Y1495000D02*
X10015000Y1445000D01*
X10015000Y1495000D02*
X9965000Y1445000D01*
X9965000Y1415000D02*
X10015000Y1365000D01*
X10015000Y1415000D02*
X9965000Y1365000D01*
X9965000Y1335000D02*
X10015000Y1285000D01*
X10015000Y1335000D02*
X9965000Y1285000D01*
X9965000Y1255000D02*
X10015000Y1205000D01*
X10015000Y1255000D02*
X9965000Y1205000D01*
X9965000Y1175000D02*
X10015000Y1125000D01*
X10015000Y1175000D02*
X9965000Y1125000D01*
X9965000Y1095000D02*
X10015000Y1045000D01*
X10015000Y1095000D02*
X9965000Y1045000D01*
X10165000Y725000D02*
X10215000Y675000D01*
X10215000Y725000D02*
X10165000Y675000D01*
X10215000Y6435000D02*
X10265000Y6385000D01*
X10265000Y6435000D02*
X10215000Y6385000D01*
X10245000Y725000D02*
X10295000Y675000D01*
X10295000Y725000D02*
X10245000Y675000D01*
X10295000Y6435000D02*
X10345000Y6385000D01*
X10345000Y6435000D02*
X10295000Y6385000D01*
X10325000Y725000D02*
X10375000Y675000D01*
X10375000Y725000D02*
X10325000Y675000D01*
X10375000Y6435000D02*
X10425000Y6385000D01*
X10425000Y6435000D02*
X10375000Y6385000D01*
X10405000Y725000D02*
X10455000Y675000D01*
X10455000Y725000D02*
X10405000Y675000D01*
X10455000Y6435000D02*
X10505000Y6385000D01*
X10505000Y6435000D02*
X10455000Y6385000D01*
X10485000Y725000D02*
X10535000Y675000D01*
X10535000Y725000D02*
X10485000Y675000D01*
X10535000Y6435000D02*
X10585000Y6385000D01*
X10585000Y6435000D02*
X10535000Y6385000D01*
X10565000Y725000D02*
X10615000Y675000D01*
X10615000Y725000D02*
X10565000Y675000D01*
X10615000Y6435000D02*
X10665000Y6385000D01*
X10665000Y6435000D02*
X10615000Y6385000D01*
X12515000Y6435000D02*
X12565000Y6385000D01*
X12565000Y6435000D02*
X12515000Y6385000D01*
X12515000Y725000D02*
X12565000Y675000D01*
X12565000Y725000D02*
X12515000Y675000D01*
X12595000Y6435000D02*
X12645000Y6385000D01*
X12645000Y6435000D02*
X12595000Y6385000D01*
X12595000Y725000D02*
X12645000Y675000D01*
X12645000Y725000D02*
X12595000Y675000D01*
X12675000Y6435000D02*
X12725000Y6385000D01*
X12725000Y6435000D02*
X12675000Y6385000D01*
X12675000Y725000D02*
X12725000Y675000D01*
X12725000Y725000D02*
X12675000Y675000D01*
X12755000Y6435000D02*
X12805000Y6385000D01*
X12805000Y6435000D02*
X12755000Y6385000D01*
X12755000Y725000D02*
X12805000Y675000D01*
X12805000Y725000D02*
X12755000Y675000D01*
X12835000Y6435000D02*
X12885000Y6385000D01*
X12885000Y6435000D02*
X12835000Y6385000D01*
X12835000Y725000D02*
X12885000Y675000D01*
X12885000Y725000D02*
X12835000Y675000D01*
X12915000Y6435000D02*
X12965000Y6385000D01*
X12965000Y6435000D02*
X12915000Y6385000D01*
X12915000Y725000D02*
X12965000Y675000D01*
X12965000Y725000D02*
X12915000Y675000D01*
D13*
X7123500Y6406000D02*
G75*
G03*
X7123500Y6406000I-32500J0D01*
G01*
X7701500Y6406000D02*
G75*
G03*
X7701500Y6406000I-32500J0D01*
G01*
D11*
X8300000Y4960000D02*
X8300000Y4760000D01*
X8200000Y4860000D02*
X8400000Y4860000D01*
X8300000Y2360000D02*
X8300000Y2160000D01*
X8200000Y2260000D02*
X8400000Y2260000D01*
X11455500Y4955000D02*
X11455500Y4755000D01*
X11355500Y4855000D02*
X11555500Y4855000D01*
X11455500Y2355000D02*
X11455500Y2155000D01*
X11355500Y2255000D02*
X11555500Y2255000D01*
D14*
X4116318Y3488682D02*
X4116318Y3651318D01*
X3953682Y3651318D01*
X3953682Y3488682D01*
X4116318Y3488682D01*
D15*
X1215000Y5645000D02*
X1350000Y5780000D01*
X1215000Y5915000D01*
X1080000Y5780000D01*
X1215000Y5645000D01*
X1220000Y1225000D02*
X1355000Y1360000D01*
X1220000Y1495000D01*
X1085000Y1360000D01*
X1220000Y1225000D01*
X5250000Y5645000D02*
X5385000Y5780000D01*
X5250000Y5915000D01*
X5115000Y5780000D01*
X5250000Y5645000D01*
X6710000Y1225000D02*
X6845000Y1360000D01*
X6710000Y1495000D01*
X6575000Y1360000D01*
X6710000Y1225000D01*
X8330000Y6550000D02*
X8465000Y6685000D01*
X8330000Y6820000D01*
X8195000Y6685000D01*
X8330000Y6550000D01*
X12730000Y5970000D02*
X12865000Y6105000D01*
X12730000Y6240000D01*
X12595000Y6105000D01*
X12730000Y5970000D01*
X12730000Y870000D02*
X12865000Y1005000D01*
X12730000Y1140000D01*
X12595000Y1005000D01*
X12730000Y870000D01*
D16*
X1185000Y3925000D02*
X1895000Y3215000D01*
X1895000Y3925000D02*
X1185000Y3215000D01*
X1895000Y3570000D02*
G75*
G03*
X1895000Y3570000I-355000J0D01*
G01*
D11*
X250119Y-317976D02*
X250119Y-117976D01*
X297738Y-117976D01*
X326310Y-127500D01*
X345357Y-146548D01*
X354881Y-165595D01*
X364405Y-203690D01*
X364405Y-232262D01*
X354881Y-270357D01*
X345357Y-289405D01*
X326310Y-308452D01*
X297738Y-317976D01*
X250119Y-317976D01*
X450119Y-317976D02*
X450119Y-184643D01*
X450119Y-222738D02*
X459643Y-203690D01*
X469167Y-194167D01*
X488214Y-184643D01*
X507262Y-184643D01*
X573929Y-317976D02*
X573929Y-184643D01*
X573929Y-117976D02*
X564405Y-127500D01*
X573929Y-137024D01*
X583452Y-127500D01*
X573929Y-117976D01*
X573929Y-137024D01*
X697738Y-317976D02*
X678690Y-308452D01*
X669167Y-289405D01*
X669167Y-117976D01*
X802500Y-317976D02*
X783452Y-308452D01*
X773928Y-289405D01*
X773928Y-117976D01*
X1031071Y-317976D02*
X1031071Y-117976D01*
X1097738Y-260833D01*
X1164405Y-117976D01*
X1164405Y-317976D01*
X1345357Y-317976D02*
X1345357Y-213214D01*
X1335833Y-194167D01*
X1316786Y-184643D01*
X1278690Y-184643D01*
X1259643Y-194167D01*
X1345357Y-308452D02*
X1326310Y-317976D01*
X1278690Y-317976D01*
X1259643Y-308452D01*
X1250119Y-289405D01*
X1250119Y-270357D01*
X1259643Y-251309D01*
X1278690Y-241786D01*
X1326310Y-241786D01*
X1345357Y-232262D01*
X1440595Y-184643D02*
X1440595Y-384643D01*
X1440595Y-194167D02*
X1459643Y-184643D01*
X1497738Y-184643D01*
X1516786Y-194167D01*
X1526309Y-203690D01*
X1535833Y-222738D01*
X1535833Y-279881D01*
X1526309Y-298929D01*
X1516786Y-308452D01*
X1497738Y-317976D01*
X1459643Y-317976D01*
X1440595Y-308452D01*
X1621548Y-298929D02*
X1631071Y-308452D01*
X1621548Y-317976D01*
X1612024Y-308452D01*
X1621548Y-298929D01*
X1621548Y-317976D01*
X1621548Y-194167D02*
X1631071Y-203690D01*
X1621548Y-213214D01*
X1612024Y-203690D01*
X1621548Y-194167D01*
X1621548Y-213214D01*
D12*
X-57500Y-622500D02*
X-7500Y-672500D01*
X-7500Y-622500D02*
X-57500Y-672500D01*
D11*
X288214Y-537976D02*
X307262Y-537976D01*
X326310Y-547500D01*
X335833Y-557024D01*
X345357Y-576071D01*
X354881Y-614167D01*
X354881Y-661786D01*
X345357Y-699881D01*
X335833Y-718928D01*
X326310Y-728452D01*
X307262Y-737976D01*
X288214Y-737976D01*
X269167Y-728452D01*
X259643Y-718928D01*
X250119Y-699881D01*
X240595Y-661786D01*
X240595Y-614167D01*
X250119Y-576071D01*
X259643Y-557024D01*
X269167Y-547500D01*
X288214Y-537976D01*
X440595Y-718928D02*
X450119Y-728452D01*
X440595Y-737976D01*
X431071Y-728452D01*
X440595Y-718928D01*
X440595Y-737976D01*
X631071Y-537976D02*
X535833Y-537976D01*
X526310Y-633214D01*
X535833Y-623690D01*
X554881Y-614167D01*
X602500Y-614167D01*
X621548Y-623690D01*
X631071Y-633214D01*
X640595Y-652262D01*
X640595Y-699881D01*
X631071Y-718928D01*
X621548Y-728452D01*
X602500Y-737976D01*
X554881Y-737976D01*
X535833Y-728452D01*
X526310Y-718928D01*
X764405Y-537976D02*
X783452Y-537976D01*
X802500Y-547500D01*
X812024Y-557024D01*
X821548Y-576071D01*
X831071Y-614167D01*
X831071Y-661786D01*
X821548Y-699881D01*
X812024Y-718928D01*
X802500Y-728452D01*
X783452Y-737976D01*
X764405Y-737976D01*
X745357Y-728452D01*
X735833Y-718928D01*
X726309Y-699881D01*
X716786Y-661786D01*
X716786Y-614167D01*
X726309Y-576071D01*
X735833Y-557024D01*
X745357Y-547500D01*
X764405Y-537976D01*
X954881Y-537976D02*
X973928Y-537976D01*
X992976Y-547500D01*
X1002500Y-557024D01*
X1012024Y-576071D01*
X1021548Y-614167D01*
X1021548Y-661786D01*
X1012024Y-699881D01*
X1002500Y-718928D01*
X992976Y-728452D01*
X973928Y-737976D01*
X954881Y-737976D01*
X935833Y-728452D01*
X926309Y-718928D01*
X916786Y-699881D01*
X907262Y-661786D01*
X907262Y-614167D01*
X916786Y-576071D01*
X926309Y-557024D01*
X935833Y-547500D01*
X954881Y-537976D01*
X1107262Y-737976D02*
X1107262Y-604643D01*
X1107262Y-623690D02*
X1116786Y-614167D01*
X1135833Y-604643D01*
X1164405Y-604643D01*
X1183452Y-614167D01*
X1192976Y-633214D01*
X1192976Y-737976D01*
X1192976Y-633214D02*
X1202500Y-614167D01*
X1221548Y-604643D01*
X1250119Y-604643D01*
X1269167Y-614167D01*
X1278690Y-633214D01*
X1278690Y-737976D01*
X1373929Y-737976D02*
X1373929Y-604643D01*
X1373929Y-623690D02*
X1383452Y-614167D01*
X1402500Y-604643D01*
X1431071Y-604643D01*
X1450119Y-614167D01*
X1459643Y-633214D01*
X1459643Y-737976D01*
X1459643Y-633214D02*
X1469167Y-614167D01*
X1488214Y-604643D01*
X1516786Y-604643D01*
X1535833Y-614167D01*
X1545357Y-633214D01*
X1545357Y-737976D01*
X1935833Y-528452D02*
X1764405Y-785595D01*
X2192976Y-537976D02*
X2212024Y-537976D01*
X2231071Y-547500D01*
X2240595Y-557024D01*
X2250119Y-576071D01*
X2259643Y-614167D01*
X2259643Y-661786D01*
X2250119Y-699881D01*
X2240595Y-718928D01*
X2231071Y-728452D01*
X2212024Y-737976D01*
X2192976Y-737976D01*
X2173929Y-728452D01*
X2164405Y-718928D01*
X2154881Y-699881D01*
X2145357Y-661786D01*
X2145357Y-614167D01*
X2154881Y-576071D01*
X2164405Y-557024D01*
X2173929Y-547500D01*
X2192976Y-537976D01*
X2345357Y-718928D02*
X2354881Y-728452D01*
X2345357Y-737976D01*
X2335833Y-728452D01*
X2345357Y-718928D01*
X2345357Y-737976D01*
X2478690Y-537976D02*
X2497738Y-537976D01*
X2516786Y-547500D01*
X2526310Y-557024D01*
X2535833Y-576071D01*
X2545357Y-614167D01*
X2545357Y-661786D01*
X2535833Y-699881D01*
X2526310Y-718928D01*
X2516786Y-728452D01*
X2497738Y-737976D01*
X2478690Y-737976D01*
X2459643Y-728452D01*
X2450119Y-718928D01*
X2440595Y-699881D01*
X2431071Y-661786D01*
X2431071Y-614167D01*
X2440595Y-576071D01*
X2450119Y-557024D01*
X2459643Y-547500D01*
X2478690Y-537976D01*
X2735833Y-737976D02*
X2621548Y-737976D01*
X2678690Y-737976D02*
X2678690Y-537976D01*
X2659643Y-566548D01*
X2640595Y-585595D01*
X2621548Y-595119D01*
X2831071Y-737976D02*
X2869167Y-737976D01*
X2888214Y-728452D01*
X2897738Y-718928D01*
X2916786Y-690357D01*
X2926309Y-652262D01*
X2926309Y-576071D01*
X2916786Y-557024D01*
X2907262Y-547500D01*
X2888214Y-537976D01*
X2850119Y-537976D01*
X2831071Y-547500D01*
X2821548Y-557024D01*
X2812024Y-576071D01*
X2812024Y-623690D01*
X2821548Y-642738D01*
X2831071Y-652262D01*
X2850119Y-661786D01*
X2888214Y-661786D01*
X2907262Y-652262D01*
X2916786Y-642738D01*
X2926309Y-623690D01*
X2992976Y-537976D02*
X3126309Y-537976D01*
X3040595Y-737976D01*
X3192976Y-537976D02*
X3192976Y-576071D01*
X3269167Y-537976D02*
X3269167Y-576071D01*
X3564405Y-814167D02*
X3554881Y-804643D01*
X3535833Y-776071D01*
X3526309Y-757024D01*
X3516786Y-728452D01*
X3507262Y-680833D01*
X3507262Y-642738D01*
X3516786Y-595119D01*
X3526309Y-566548D01*
X3535833Y-547500D01*
X3554881Y-518928D01*
X3564405Y-509405D01*
X3650119Y-737976D02*
X3688214Y-737976D01*
X3707262Y-728452D01*
X3716786Y-718928D01*
X3735833Y-690357D01*
X3745357Y-652262D01*
X3745357Y-576071D01*
X3735833Y-557024D01*
X3726309Y-547500D01*
X3707262Y-537976D01*
X3669167Y-537976D01*
X3650119Y-547500D01*
X3640595Y-557024D01*
X3631071Y-576071D01*
X3631071Y-623690D01*
X3640595Y-642738D01*
X3650119Y-652262D01*
X3669167Y-661786D01*
X3707262Y-661786D01*
X3726309Y-652262D01*
X3735833Y-642738D01*
X3745357Y-623690D01*
X3916786Y-537976D02*
X3878690Y-537976D01*
X3859643Y-547500D01*
X3850119Y-557024D01*
X3831071Y-585595D01*
X3821548Y-623690D01*
X3821548Y-699881D01*
X3831071Y-718928D01*
X3840595Y-728452D01*
X3859643Y-737976D01*
X3897738Y-737976D01*
X3916786Y-728452D01*
X3926309Y-718928D01*
X3935833Y-699881D01*
X3935833Y-652262D01*
X3926309Y-633214D01*
X3916786Y-623690D01*
X3897738Y-614167D01*
X3859643Y-614167D01*
X3840595Y-623690D01*
X3831071Y-633214D01*
X3821548Y-652262D01*
X4173928Y-737976D02*
X4173928Y-537976D01*
X4259643Y-737976D02*
X4259643Y-633214D01*
X4250119Y-614167D01*
X4231071Y-604643D01*
X4202500Y-604643D01*
X4183452Y-614167D01*
X4173928Y-623690D01*
X4383452Y-737976D02*
X4364405Y-728452D01*
X4354881Y-718928D01*
X4345357Y-699881D01*
X4345357Y-642738D01*
X4354881Y-623690D01*
X4364405Y-614167D01*
X4383452Y-604643D01*
X4412024Y-604643D01*
X4431071Y-614167D01*
X4440595Y-623690D01*
X4450119Y-642738D01*
X4450119Y-699881D01*
X4440595Y-718928D01*
X4431071Y-728452D01*
X4412024Y-737976D01*
X4383452Y-737976D01*
X4564405Y-737976D02*
X4545357Y-728452D01*
X4535833Y-709405D01*
X4535833Y-537976D01*
X4716786Y-728452D02*
X4697738Y-737976D01*
X4659643Y-737976D01*
X4640595Y-728452D01*
X4631071Y-709405D01*
X4631071Y-633214D01*
X4640595Y-614167D01*
X4659643Y-604643D01*
X4697738Y-604643D01*
X4716786Y-614167D01*
X4726310Y-633214D01*
X4726310Y-652262D01*
X4631071Y-671310D01*
X4802500Y-728452D02*
X4821548Y-737976D01*
X4859643Y-737976D01*
X4878690Y-728452D01*
X4888214Y-709405D01*
X4888214Y-699881D01*
X4878690Y-680833D01*
X4859643Y-671310D01*
X4831071Y-671310D01*
X4812024Y-661786D01*
X4802500Y-642738D01*
X4802500Y-633214D01*
X4812024Y-614167D01*
X4831071Y-604643D01*
X4859643Y-604643D01*
X4878690Y-614167D01*
X4954881Y-814167D02*
X4964405Y-804643D01*
X4983452Y-776071D01*
X4992976Y-757024D01*
X5002500Y-728452D01*
X5012024Y-680833D01*
X5012024Y-642738D01*
X5002500Y-595119D01*
X4992976Y-566548D01*
X4983452Y-547500D01*
X4964405Y-518928D01*
X4954881Y-509405D01*
X5316786Y-814167D02*
X5307262Y-804643D01*
X5288214Y-776071D01*
X5278690Y-757024D01*
X5269167Y-728452D01*
X5259643Y-680833D01*
X5259643Y-642738D01*
X5269167Y-595119D01*
X5278690Y-566548D01*
X5288214Y-547500D01*
X5307262Y-518928D01*
X5316786Y-509405D01*
X5392976Y-604643D02*
X5392976Y-737976D01*
X5392976Y-623690D02*
X5402500Y-614167D01*
X5421548Y-604643D01*
X5450119Y-604643D01*
X5469167Y-614167D01*
X5478690Y-633214D01*
X5478690Y-737976D01*
X5602500Y-737976D02*
X5583452Y-728452D01*
X5573929Y-718928D01*
X5564405Y-699881D01*
X5564405Y-642738D01*
X5573929Y-623690D01*
X5583452Y-614167D01*
X5602500Y-604643D01*
X5631071Y-604643D01*
X5650119Y-614167D01*
X5659643Y-623690D01*
X5669167Y-642738D01*
X5669167Y-699881D01*
X5659643Y-718928D01*
X5650119Y-728452D01*
X5631071Y-737976D01*
X5602500Y-737976D01*
X5726309Y-604643D02*
X5802500Y-604643D01*
X5754881Y-537976D02*
X5754881Y-709405D01*
X5764405Y-728452D01*
X5783452Y-737976D01*
X5802500Y-737976D01*
X6021548Y-604643D02*
X6021548Y-804643D01*
X6021548Y-614167D02*
X6040595Y-604643D01*
X6078690Y-604643D01*
X6097738Y-614167D01*
X6107262Y-623690D01*
X6116786Y-642738D01*
X6116786Y-699881D01*
X6107262Y-718928D01*
X6097738Y-728452D01*
X6078690Y-737976D01*
X6040595Y-737976D01*
X6021548Y-728452D01*
X6231071Y-737976D02*
X6212024Y-728452D01*
X6202500Y-709405D01*
X6202500Y-537976D01*
X6392976Y-737976D02*
X6392976Y-633214D01*
X6383452Y-614167D01*
X6364405Y-604643D01*
X6326309Y-604643D01*
X6307262Y-614167D01*
X6392976Y-728452D02*
X6373928Y-737976D01*
X6326309Y-737976D01*
X6307262Y-728452D01*
X6297738Y-709405D01*
X6297738Y-690357D01*
X6307262Y-671310D01*
X6326309Y-661786D01*
X6373928Y-661786D01*
X6392976Y-652262D01*
X6459643Y-604643D02*
X6535833Y-604643D01*
X6488214Y-537976D02*
X6488214Y-709405D01*
X6497738Y-728452D01*
X6516786Y-737976D01*
X6535833Y-737976D01*
X6678690Y-728452D02*
X6659643Y-737976D01*
X6621548Y-737976D01*
X6602500Y-728452D01*
X6592976Y-709405D01*
X6592976Y-633214D01*
X6602500Y-614167D01*
X6621548Y-604643D01*
X6659643Y-604643D01*
X6678690Y-614167D01*
X6688214Y-633214D01*
X6688214Y-652262D01*
X6592976Y-671310D01*
X6859643Y-737976D02*
X6859643Y-537976D01*
X6859643Y-728452D02*
X6840595Y-737976D01*
X6802500Y-737976D01*
X6783452Y-728452D01*
X6773928Y-718928D01*
X6764405Y-699881D01*
X6764405Y-642738D01*
X6773928Y-623690D01*
X6783452Y-614167D01*
X6802500Y-604643D01*
X6840595Y-604643D01*
X6859643Y-614167D01*
X6935833Y-814167D02*
X6945357Y-804643D01*
X6964405Y-776071D01*
X6973928Y-757024D01*
X6983452Y-728452D01*
X6992976Y-680833D01*
X6992976Y-642738D01*
X6983452Y-595119D01*
X6973928Y-566548D01*
X6964405Y-547500D01*
X6945357Y-518928D01*
X6935833Y-509405D01*
D13*
X-7500Y-911500D02*
G75*
G03*
X-7500Y-911500I-32500J0D01*
G01*
D11*
X288214Y-801976D02*
X307262Y-801976D01*
X326310Y-811500D01*
X335833Y-821024D01*
X345357Y-840071D01*
X354881Y-878167D01*
X354881Y-925786D01*
X345357Y-963881D01*
X335833Y-982928D01*
X326310Y-992452D01*
X307262Y-1001976D01*
X288214Y-1001976D01*
X269167Y-992452D01*
X259643Y-982928D01*
X250119Y-963881D01*
X240595Y-925786D01*
X240595Y-878167D01*
X250119Y-840071D01*
X259643Y-821024D01*
X269167Y-811500D01*
X288214Y-801976D01*
X440595Y-982928D02*
X450119Y-992452D01*
X440595Y-1001976D01*
X431071Y-992452D01*
X440595Y-982928D01*
X440595Y-1001976D01*
X621548Y-801976D02*
X583452Y-801976D01*
X564405Y-811500D01*
X554881Y-821024D01*
X535833Y-849595D01*
X526310Y-887690D01*
X526310Y-963881D01*
X535833Y-982928D01*
X545357Y-992452D01*
X564405Y-1001976D01*
X602500Y-1001976D01*
X621548Y-992452D01*
X631071Y-982928D01*
X640595Y-963881D01*
X640595Y-916262D01*
X631071Y-897214D01*
X621548Y-887690D01*
X602500Y-878167D01*
X564405Y-878167D01*
X545357Y-887690D01*
X535833Y-897214D01*
X526310Y-916262D01*
X821548Y-801976D02*
X726309Y-801976D01*
X716786Y-897214D01*
X726309Y-887690D01*
X745357Y-878167D01*
X792976Y-878167D01*
X812024Y-887690D01*
X821548Y-897214D01*
X831071Y-916262D01*
X831071Y-963881D01*
X821548Y-982928D01*
X812024Y-992452D01*
X792976Y-1001976D01*
X745357Y-1001976D01*
X726309Y-992452D01*
X716786Y-982928D01*
X954881Y-801976D02*
X973928Y-801976D01*
X992976Y-811500D01*
X1002500Y-821024D01*
X1012024Y-840071D01*
X1021548Y-878167D01*
X1021548Y-925786D01*
X1012024Y-963881D01*
X1002500Y-982928D01*
X992976Y-992452D01*
X973928Y-1001976D01*
X954881Y-1001976D01*
X935833Y-992452D01*
X926309Y-982928D01*
X916786Y-963881D01*
X907262Y-925786D01*
X907262Y-878167D01*
X916786Y-840071D01*
X926309Y-821024D01*
X935833Y-811500D01*
X954881Y-801976D01*
X1107262Y-1001976D02*
X1107262Y-868643D01*
X1107262Y-887690D02*
X1116786Y-878167D01*
X1135833Y-868643D01*
X1164405Y-868643D01*
X1183452Y-878167D01*
X1192976Y-897214D01*
X1192976Y-1001976D01*
X1192976Y-897214D02*
X1202500Y-878167D01*
X1221548Y-868643D01*
X1250119Y-868643D01*
X1269167Y-878167D01*
X1278690Y-897214D01*
X1278690Y-1001976D01*
X1373929Y-1001976D02*
X1373929Y-868643D01*
X1373929Y-887690D02*
X1383452Y-878167D01*
X1402500Y-868643D01*
X1431071Y-868643D01*
X1450119Y-878167D01*
X1459643Y-897214D01*
X1459643Y-1001976D01*
X1459643Y-897214D02*
X1469167Y-878167D01*
X1488214Y-868643D01*
X1516786Y-868643D01*
X1535833Y-878167D01*
X1545357Y-897214D01*
X1545357Y-1001976D01*
X1935833Y-792452D02*
X1764405Y-1049595D01*
X2192976Y-801976D02*
X2212024Y-801976D01*
X2231071Y-811500D01*
X2240595Y-821024D01*
X2250119Y-840071D01*
X2259643Y-878167D01*
X2259643Y-925786D01*
X2250119Y-963881D01*
X2240595Y-982928D01*
X2231071Y-992452D01*
X2212024Y-1001976D01*
X2192976Y-1001976D01*
X2173929Y-992452D01*
X2164405Y-982928D01*
X2154881Y-963881D01*
X2145357Y-925786D01*
X2145357Y-878167D01*
X2154881Y-840071D01*
X2164405Y-821024D01*
X2173929Y-811500D01*
X2192976Y-801976D01*
X2345357Y-982928D02*
X2354881Y-992452D01*
X2345357Y-1001976D01*
X2335833Y-992452D01*
X2345357Y-982928D01*
X2345357Y-1001976D01*
X2478690Y-801976D02*
X2497738Y-801976D01*
X2516786Y-811500D01*
X2526310Y-821024D01*
X2535833Y-840071D01*
X2545357Y-878167D01*
X2545357Y-925786D01*
X2535833Y-963881D01*
X2526310Y-982928D01*
X2516786Y-992452D01*
X2497738Y-1001976D01*
X2478690Y-1001976D01*
X2459643Y-992452D01*
X2450119Y-982928D01*
X2440595Y-963881D01*
X2431071Y-925786D01*
X2431071Y-878167D01*
X2440595Y-840071D01*
X2450119Y-821024D01*
X2459643Y-811500D01*
X2478690Y-801976D01*
X2621548Y-821024D02*
X2631071Y-811500D01*
X2650119Y-801976D01*
X2697738Y-801976D01*
X2716786Y-811500D01*
X2726310Y-821024D01*
X2735833Y-840071D01*
X2735833Y-859119D01*
X2726310Y-887690D01*
X2612024Y-1001976D01*
X2735833Y-1001976D01*
X2916786Y-801976D02*
X2821548Y-801976D01*
X2812024Y-897214D01*
X2821548Y-887690D01*
X2840595Y-878167D01*
X2888214Y-878167D01*
X2907262Y-887690D01*
X2916786Y-897214D01*
X2926309Y-916262D01*
X2926309Y-963881D01*
X2916786Y-982928D01*
X2907262Y-992452D01*
X2888214Y-1001976D01*
X2840595Y-1001976D01*
X2821548Y-992452D01*
X2812024Y-982928D01*
X3097738Y-801976D02*
X3059643Y-801976D01*
X3040595Y-811500D01*
X3031071Y-821024D01*
X3012024Y-849595D01*
X3002500Y-887690D01*
X3002500Y-963881D01*
X3012024Y-982928D01*
X3021548Y-992452D01*
X3040595Y-1001976D01*
X3078690Y-1001976D01*
X3097738Y-992452D01*
X3107262Y-982928D01*
X3116786Y-963881D01*
X3116786Y-916262D01*
X3107262Y-897214D01*
X3097738Y-887690D01*
X3078690Y-878167D01*
X3040595Y-878167D01*
X3021548Y-887690D01*
X3012024Y-897214D01*
X3002500Y-916262D01*
X3192976Y-801976D02*
X3192976Y-840071D01*
X3269167Y-801976D02*
X3269167Y-840071D01*
X3564405Y-1078167D02*
X3554881Y-1068643D01*
X3535833Y-1040071D01*
X3526309Y-1021024D01*
X3516786Y-992452D01*
X3507262Y-944833D01*
X3507262Y-906738D01*
X3516786Y-859119D01*
X3526309Y-830548D01*
X3535833Y-811500D01*
X3554881Y-782928D01*
X3564405Y-773405D01*
X3631071Y-821024D02*
X3640595Y-811500D01*
X3659643Y-801976D01*
X3707262Y-801976D01*
X3726309Y-811500D01*
X3735833Y-821024D01*
X3745357Y-840071D01*
X3745357Y-859119D01*
X3735833Y-887690D01*
X3621548Y-1001976D01*
X3745357Y-1001976D01*
X3983452Y-1001976D02*
X3983452Y-801976D01*
X4069167Y-1001976D02*
X4069167Y-897214D01*
X4059643Y-878167D01*
X4040595Y-868643D01*
X4012024Y-868643D01*
X3992976Y-878167D01*
X3983452Y-887690D01*
X4192976Y-1001976D02*
X4173928Y-992452D01*
X4164405Y-982928D01*
X4154881Y-963881D01*
X4154881Y-906738D01*
X4164405Y-887690D01*
X4173928Y-878167D01*
X4192976Y-868643D01*
X4221548Y-868643D01*
X4240595Y-878167D01*
X4250119Y-887690D01*
X4259643Y-906738D01*
X4259643Y-963881D01*
X4250119Y-982928D01*
X4240595Y-992452D01*
X4221548Y-1001976D01*
X4192976Y-1001976D01*
X4373929Y-1001976D02*
X4354881Y-992452D01*
X4345357Y-973405D01*
X4345357Y-801976D01*
X4526310Y-992452D02*
X4507262Y-1001976D01*
X4469167Y-1001976D01*
X4450119Y-992452D01*
X4440595Y-973405D01*
X4440595Y-897214D01*
X4450119Y-878167D01*
X4469167Y-868643D01*
X4507262Y-868643D01*
X4526310Y-878167D01*
X4535833Y-897214D01*
X4535833Y-916262D01*
X4440595Y-935309D01*
X4612024Y-992452D02*
X4631071Y-1001976D01*
X4669167Y-1001976D01*
X4688214Y-992452D01*
X4697738Y-973405D01*
X4697738Y-963881D01*
X4688214Y-944833D01*
X4669167Y-935309D01*
X4640595Y-935309D01*
X4621548Y-925786D01*
X4612024Y-906738D01*
X4612024Y-897214D01*
X4621548Y-878167D01*
X4640595Y-868643D01*
X4669167Y-868643D01*
X4688214Y-878167D01*
X4764405Y-1078167D02*
X4773929Y-1068643D01*
X4792976Y-1040071D01*
X4802500Y-1021024D01*
X4812024Y-992452D01*
X4821548Y-944833D01*
X4821548Y-906738D01*
X4812024Y-859119D01*
X4802500Y-830548D01*
X4792976Y-811500D01*
X4773929Y-782928D01*
X4764405Y-773405D01*
X5126310Y-1078167D02*
X5116786Y-1068643D01*
X5097738Y-1040071D01*
X5088214Y-1021024D01*
X5078690Y-992452D01*
X5069167Y-944833D01*
X5069167Y-906738D01*
X5078690Y-859119D01*
X5088214Y-830548D01*
X5097738Y-811500D01*
X5116786Y-782928D01*
X5126310Y-773405D01*
X5202500Y-868643D02*
X5202500Y-1001976D01*
X5202500Y-887690D02*
X5212024Y-878167D01*
X5231071Y-868643D01*
X5259643Y-868643D01*
X5278690Y-878167D01*
X5288214Y-897214D01*
X5288214Y-1001976D01*
X5412024Y-1001976D02*
X5392976Y-992452D01*
X5383452Y-982928D01*
X5373929Y-963881D01*
X5373929Y-906738D01*
X5383452Y-887690D01*
X5392976Y-878167D01*
X5412024Y-868643D01*
X5440595Y-868643D01*
X5459643Y-878167D01*
X5469167Y-887690D01*
X5478690Y-906738D01*
X5478690Y-963881D01*
X5469167Y-982928D01*
X5459643Y-992452D01*
X5440595Y-1001976D01*
X5412024Y-1001976D01*
X5535833Y-868643D02*
X5612024Y-868643D01*
X5564405Y-801976D02*
X5564405Y-973405D01*
X5573929Y-992452D01*
X5592976Y-1001976D01*
X5612024Y-1001976D01*
X5831071Y-868643D02*
X5831071Y-1068643D01*
X5831071Y-878167D02*
X5850119Y-868643D01*
X5888214Y-868643D01*
X5907262Y-878167D01*
X5916786Y-887690D01*
X5926309Y-906738D01*
X5926309Y-963881D01*
X5916786Y-982928D01*
X5907262Y-992452D01*
X5888214Y-1001976D01*
X5850119Y-1001976D01*
X5831071Y-992452D01*
X6040595Y-1001976D02*
X6021548Y-992452D01*
X6012024Y-973405D01*
X6012024Y-801976D01*
X6202500Y-1001976D02*
X6202500Y-897214D01*
X6192976Y-878167D01*
X6173928Y-868643D01*
X6135833Y-868643D01*
X6116786Y-878167D01*
X6202500Y-992452D02*
X6183452Y-1001976D01*
X6135833Y-1001976D01*
X6116786Y-992452D01*
X6107262Y-973405D01*
X6107262Y-954357D01*
X6116786Y-935309D01*
X6135833Y-925786D01*
X6183452Y-925786D01*
X6202500Y-916262D01*
X6269167Y-868643D02*
X6345357Y-868643D01*
X6297738Y-801976D02*
X6297738Y-973405D01*
X6307262Y-992452D01*
X6326309Y-1001976D01*
X6345357Y-1001976D01*
X6488214Y-992452D02*
X6469167Y-1001976D01*
X6431071Y-1001976D01*
X6412024Y-992452D01*
X6402500Y-973405D01*
X6402500Y-897214D01*
X6412024Y-878167D01*
X6431071Y-868643D01*
X6469167Y-868643D01*
X6488214Y-878167D01*
X6497738Y-897214D01*
X6497738Y-916262D01*
X6402500Y-935309D01*
X6669167Y-1001976D02*
X6669167Y-801976D01*
X6669167Y-992452D02*
X6650119Y-1001976D01*
X6612024Y-1001976D01*
X6592976Y-992452D01*
X6583452Y-982928D01*
X6573928Y-963881D01*
X6573928Y-906738D01*
X6583452Y-887690D01*
X6592976Y-878167D01*
X6612024Y-868643D01*
X6650119Y-868643D01*
X6669167Y-878167D01*
X6745357Y-1078167D02*
X6754881Y-1068643D01*
X6773928Y-1040071D01*
X6783452Y-1021024D01*
X6792976Y-992452D01*
X6802500Y-944833D01*
X6802500Y-906738D01*
X6792976Y-859119D01*
X6783452Y-830548D01*
X6773928Y-811500D01*
X6754881Y-782928D01*
X6745357Y-773405D01*
X-107500Y-1075500D02*
X-107500Y-1275500D01*
X-207500Y-1175500D02*
X-7500Y-1175500D01*
X240595Y-1085024D02*
X250119Y-1075500D01*
X269167Y-1065976D01*
X316786Y-1065976D01*
X335833Y-1075500D01*
X345357Y-1085024D01*
X354881Y-1104071D01*
X354881Y-1123119D01*
X345357Y-1151690D01*
X231071Y-1265976D01*
X354881Y-1265976D01*
X440595Y-1246929D02*
X450119Y-1256452D01*
X440595Y-1265976D01*
X431071Y-1256452D01*
X440595Y-1246929D01*
X440595Y-1265976D01*
X573929Y-1065976D02*
X592976Y-1065976D01*
X612024Y-1075500D01*
X621548Y-1085024D01*
X631071Y-1104071D01*
X640595Y-1142167D01*
X640595Y-1189786D01*
X631071Y-1227881D01*
X621548Y-1246929D01*
X612024Y-1256452D01*
X592976Y-1265976D01*
X573929Y-1265976D01*
X554881Y-1256452D01*
X545357Y-1246929D01*
X535833Y-1227881D01*
X526310Y-1189786D01*
X526310Y-1142167D01*
X535833Y-1104071D01*
X545357Y-1085024D01*
X554881Y-1075500D01*
X573929Y-1065976D01*
X764405Y-1065976D02*
X783452Y-1065976D01*
X802500Y-1075500D01*
X812024Y-1085024D01*
X821548Y-1104071D01*
X831071Y-1142167D01*
X831071Y-1189786D01*
X821548Y-1227881D01*
X812024Y-1246929D01*
X802500Y-1256452D01*
X783452Y-1265976D01*
X764405Y-1265976D01*
X745357Y-1256452D01*
X735833Y-1246929D01*
X726309Y-1227881D01*
X716786Y-1189786D01*
X716786Y-1142167D01*
X726309Y-1104071D01*
X735833Y-1085024D01*
X745357Y-1075500D01*
X764405Y-1065976D01*
X954881Y-1065976D02*
X973928Y-1065976D01*
X992976Y-1075500D01*
X1002500Y-1085024D01*
X1012024Y-1104071D01*
X1021548Y-1142167D01*
X1021548Y-1189786D01*
X1012024Y-1227881D01*
X1002500Y-1246929D01*
X992976Y-1256452D01*
X973928Y-1265976D01*
X954881Y-1265976D01*
X935833Y-1256452D01*
X926309Y-1246929D01*
X916786Y-1227881D01*
X907262Y-1189786D01*
X907262Y-1142167D01*
X916786Y-1104071D01*
X926309Y-1085024D01*
X935833Y-1075500D01*
X954881Y-1065976D01*
X1107262Y-1265976D02*
X1107262Y-1132643D01*
X1107262Y-1151690D02*
X1116786Y-1142167D01*
X1135833Y-1132643D01*
X1164405Y-1132643D01*
X1183452Y-1142167D01*
X1192976Y-1161214D01*
X1192976Y-1265976D01*
X1192976Y-1161214D02*
X1202500Y-1142167D01*
X1221548Y-1132643D01*
X1250119Y-1132643D01*
X1269167Y-1142167D01*
X1278690Y-1161214D01*
X1278690Y-1265976D01*
X1373929Y-1265976D02*
X1373929Y-1132643D01*
X1373929Y-1151690D02*
X1383452Y-1142167D01*
X1402500Y-1132643D01*
X1431071Y-1132643D01*
X1450119Y-1142167D01*
X1459643Y-1161214D01*
X1459643Y-1265976D01*
X1459643Y-1161214D02*
X1469167Y-1142167D01*
X1488214Y-1132643D01*
X1516786Y-1132643D01*
X1535833Y-1142167D01*
X1545357Y-1161214D01*
X1545357Y-1265976D01*
X1935833Y-1056452D02*
X1764405Y-1313595D01*
X2192976Y-1065976D02*
X2212024Y-1065976D01*
X2231071Y-1075500D01*
X2240595Y-1085024D01*
X2250119Y-1104071D01*
X2259643Y-1142167D01*
X2259643Y-1189786D01*
X2250119Y-1227881D01*
X2240595Y-1246929D01*
X2231071Y-1256452D01*
X2212024Y-1265976D01*
X2192976Y-1265976D01*
X2173929Y-1256452D01*
X2164405Y-1246929D01*
X2154881Y-1227881D01*
X2145357Y-1189786D01*
X2145357Y-1142167D01*
X2154881Y-1104071D01*
X2164405Y-1085024D01*
X2173929Y-1075500D01*
X2192976Y-1065976D01*
X2345357Y-1246929D02*
X2354881Y-1256452D01*
X2345357Y-1265976D01*
X2335833Y-1256452D01*
X2345357Y-1246929D01*
X2345357Y-1265976D01*
X2478690Y-1065976D02*
X2497738Y-1065976D01*
X2516786Y-1075500D01*
X2526310Y-1085024D01*
X2535833Y-1104071D01*
X2545357Y-1142167D01*
X2545357Y-1189786D01*
X2535833Y-1227881D01*
X2526310Y-1246929D01*
X2516786Y-1256452D01*
X2497738Y-1265976D01*
X2478690Y-1265976D01*
X2459643Y-1256452D01*
X2450119Y-1246929D01*
X2440595Y-1227881D01*
X2431071Y-1189786D01*
X2431071Y-1142167D01*
X2440595Y-1104071D01*
X2450119Y-1085024D01*
X2459643Y-1075500D01*
X2478690Y-1065976D01*
X2612024Y-1065976D02*
X2745357Y-1065976D01*
X2659643Y-1265976D01*
X2850119Y-1151690D02*
X2831071Y-1142167D01*
X2821548Y-1132643D01*
X2812024Y-1113595D01*
X2812024Y-1104071D01*
X2821548Y-1085024D01*
X2831071Y-1075500D01*
X2850119Y-1065976D01*
X2888214Y-1065976D01*
X2907262Y-1075500D01*
X2916786Y-1085024D01*
X2926309Y-1104071D01*
X2926309Y-1113595D01*
X2916786Y-1132643D01*
X2907262Y-1142167D01*
X2888214Y-1151690D01*
X2850119Y-1151690D01*
X2831071Y-1161214D01*
X2821548Y-1170738D01*
X2812024Y-1189786D01*
X2812024Y-1227881D01*
X2821548Y-1246929D01*
X2831071Y-1256452D01*
X2850119Y-1265976D01*
X2888214Y-1265976D01*
X2907262Y-1256452D01*
X2916786Y-1246929D01*
X2926309Y-1227881D01*
X2926309Y-1189786D01*
X2916786Y-1170738D01*
X2907262Y-1161214D01*
X2888214Y-1151690D01*
X2992976Y-1065976D02*
X3126309Y-1065976D01*
X3040595Y-1265976D01*
X3192976Y-1065976D02*
X3192976Y-1104071D01*
X3269167Y-1065976D02*
X3269167Y-1104071D01*
X3564405Y-1342167D02*
X3554881Y-1332643D01*
X3535833Y-1304071D01*
X3526309Y-1285024D01*
X3516786Y-1256452D01*
X3507262Y-1208833D01*
X3507262Y-1170738D01*
X3516786Y-1123119D01*
X3526309Y-1094548D01*
X3535833Y-1075500D01*
X3554881Y-1046928D01*
X3564405Y-1037405D01*
X3726309Y-1132643D02*
X3726309Y-1265976D01*
X3678690Y-1056452D02*
X3631071Y-1199310D01*
X3754881Y-1199310D01*
X3983452Y-1265976D02*
X3983452Y-1065976D01*
X4069167Y-1265976D02*
X4069167Y-1161214D01*
X4059643Y-1142167D01*
X4040595Y-1132643D01*
X4012024Y-1132643D01*
X3992976Y-1142167D01*
X3983452Y-1151690D01*
X4192976Y-1265976D02*
X4173928Y-1256452D01*
X4164405Y-1246929D01*
X4154881Y-1227881D01*
X4154881Y-1170738D01*
X4164405Y-1151690D01*
X4173928Y-1142167D01*
X4192976Y-1132643D01*
X4221548Y-1132643D01*
X4240595Y-1142167D01*
X4250119Y-1151690D01*
X4259643Y-1170738D01*
X4259643Y-1227881D01*
X4250119Y-1246929D01*
X4240595Y-1256452D01*
X4221548Y-1265976D01*
X4192976Y-1265976D01*
X4373929Y-1265976D02*
X4354881Y-1256452D01*
X4345357Y-1237405D01*
X4345357Y-1065976D01*
X4526310Y-1256452D02*
X4507262Y-1265976D01*
X4469167Y-1265976D01*
X4450119Y-1256452D01*
X4440595Y-1237405D01*
X4440595Y-1161214D01*
X4450119Y-1142167D01*
X4469167Y-1132643D01*
X4507262Y-1132643D01*
X4526310Y-1142167D01*
X4535833Y-1161214D01*
X4535833Y-1180262D01*
X4440595Y-1199310D01*
X4612024Y-1256452D02*
X4631071Y-1265976D01*
X4669167Y-1265976D01*
X4688214Y-1256452D01*
X4697738Y-1237405D01*
X4697738Y-1227881D01*
X4688214Y-1208833D01*
X4669167Y-1199310D01*
X4640595Y-1199310D01*
X4621548Y-1189786D01*
X4612024Y-1170738D01*
X4612024Y-1161214D01*
X4621548Y-1142167D01*
X4640595Y-1132643D01*
X4669167Y-1132643D01*
X4688214Y-1142167D01*
X4764405Y-1342167D02*
X4773929Y-1332643D01*
X4792976Y-1304071D01*
X4802500Y-1285024D01*
X4812024Y-1256452D01*
X4821548Y-1208833D01*
X4821548Y-1170738D01*
X4812024Y-1123119D01*
X4802500Y-1094548D01*
X4792976Y-1075500D01*
X4773929Y-1046928D01*
X4764405Y-1037405D01*
X5126310Y-1342167D02*
X5116786Y-1332643D01*
X5097738Y-1304071D01*
X5088214Y-1285024D01*
X5078690Y-1256452D01*
X5069167Y-1208833D01*
X5069167Y-1170738D01*
X5078690Y-1123119D01*
X5088214Y-1094548D01*
X5097738Y-1075500D01*
X5116786Y-1046928D01*
X5126310Y-1037405D01*
X5202500Y-1132643D02*
X5202500Y-1265976D01*
X5202500Y-1151690D02*
X5212024Y-1142167D01*
X5231071Y-1132643D01*
X5259643Y-1132643D01*
X5278690Y-1142167D01*
X5288214Y-1161214D01*
X5288214Y-1265976D01*
X5412024Y-1265976D02*
X5392976Y-1256452D01*
X5383452Y-1246929D01*
X5373929Y-1227881D01*
X5373929Y-1170738D01*
X5383452Y-1151690D01*
X5392976Y-1142167D01*
X5412024Y-1132643D01*
X5440595Y-1132643D01*
X5459643Y-1142167D01*
X5469167Y-1151690D01*
X5478690Y-1170738D01*
X5478690Y-1227881D01*
X5469167Y-1246929D01*
X5459643Y-1256452D01*
X5440595Y-1265976D01*
X5412024Y-1265976D01*
X5535833Y-1132643D02*
X5612024Y-1132643D01*
X5564405Y-1065976D02*
X5564405Y-1237405D01*
X5573929Y-1256452D01*
X5592976Y-1265976D01*
X5612024Y-1265976D01*
X5831071Y-1132643D02*
X5831071Y-1332643D01*
X5831071Y-1142167D02*
X5850119Y-1132643D01*
X5888214Y-1132643D01*
X5907262Y-1142167D01*
X5916786Y-1151690D01*
X5926309Y-1170738D01*
X5926309Y-1227881D01*
X5916786Y-1246929D01*
X5907262Y-1256452D01*
X5888214Y-1265976D01*
X5850119Y-1265976D01*
X5831071Y-1256452D01*
X6040595Y-1265976D02*
X6021548Y-1256452D01*
X6012024Y-1237405D01*
X6012024Y-1065976D01*
X6202500Y-1265976D02*
X6202500Y-1161214D01*
X6192976Y-1142167D01*
X6173928Y-1132643D01*
X6135833Y-1132643D01*
X6116786Y-1142167D01*
X6202500Y-1256452D02*
X6183452Y-1265976D01*
X6135833Y-1265976D01*
X6116786Y-1256452D01*
X6107262Y-1237405D01*
X6107262Y-1218357D01*
X6116786Y-1199310D01*
X6135833Y-1189786D01*
X6183452Y-1189786D01*
X6202500Y-1180262D01*
X6269167Y-1132643D02*
X6345357Y-1132643D01*
X6297738Y-1065976D02*
X6297738Y-1237405D01*
X6307262Y-1256452D01*
X6326309Y-1265976D01*
X6345357Y-1265976D01*
X6488214Y-1256452D02*
X6469167Y-1265976D01*
X6431071Y-1265976D01*
X6412024Y-1256452D01*
X6402500Y-1237405D01*
X6402500Y-1161214D01*
X6412024Y-1142167D01*
X6431071Y-1132643D01*
X6469167Y-1132643D01*
X6488214Y-1142167D01*
X6497738Y-1161214D01*
X6497738Y-1180262D01*
X6402500Y-1199310D01*
X6669167Y-1265976D02*
X6669167Y-1065976D01*
X6669167Y-1256452D02*
X6650119Y-1265976D01*
X6612024Y-1265976D01*
X6592976Y-1256452D01*
X6583452Y-1246929D01*
X6573928Y-1227881D01*
X6573928Y-1170738D01*
X6583452Y-1151690D01*
X6592976Y-1142167D01*
X6612024Y-1132643D01*
X6650119Y-1132643D01*
X6669167Y-1142167D01*
X6745357Y-1342167D02*
X6754881Y-1332643D01*
X6773928Y-1304071D01*
X6783452Y-1285024D01*
X6792976Y-1256452D01*
X6802500Y-1208833D01*
X6802500Y-1170738D01*
X6792976Y-1123119D01*
X6783452Y-1094548D01*
X6773928Y-1075500D01*
X6754881Y-1046928D01*
X6745357Y-1037405D01*
X-36789Y-1566211D02*
X-36789Y-1424789D01*
X-178211Y-1424789D01*
X-178211Y-1566211D01*
X-36789Y-1566211D01*
X240595Y-1405024D02*
X250119Y-1395500D01*
X269167Y-1385976D01*
X316786Y-1385976D01*
X335833Y-1395500D01*
X345357Y-1405024D01*
X354881Y-1424071D01*
X354881Y-1443119D01*
X345357Y-1471690D01*
X231071Y-1585976D01*
X354881Y-1585976D01*
X440595Y-1566928D02*
X450119Y-1576452D01*
X440595Y-1585976D01*
X431071Y-1576452D01*
X440595Y-1566928D01*
X440595Y-1585976D01*
X516786Y-1385976D02*
X640595Y-1385976D01*
X573929Y-1462167D01*
X602500Y-1462167D01*
X621548Y-1471690D01*
X631071Y-1481214D01*
X640595Y-1500262D01*
X640595Y-1547881D01*
X631071Y-1566928D01*
X621548Y-1576452D01*
X602500Y-1585976D01*
X545357Y-1585976D01*
X526310Y-1576452D01*
X516786Y-1566928D01*
X764405Y-1385976D02*
X783452Y-1385976D01*
X802500Y-1395500D01*
X812024Y-1405024D01*
X821548Y-1424071D01*
X831071Y-1462167D01*
X831071Y-1509786D01*
X821548Y-1547881D01*
X812024Y-1566928D01*
X802500Y-1576452D01*
X783452Y-1585976D01*
X764405Y-1585976D01*
X745357Y-1576452D01*
X735833Y-1566928D01*
X726309Y-1547881D01*
X716786Y-1509786D01*
X716786Y-1462167D01*
X726309Y-1424071D01*
X735833Y-1405024D01*
X745357Y-1395500D01*
X764405Y-1385976D01*
X954881Y-1385976D02*
X973928Y-1385976D01*
X992976Y-1395500D01*
X1002500Y-1405024D01*
X1012024Y-1424071D01*
X1021548Y-1462167D01*
X1021548Y-1509786D01*
X1012024Y-1547881D01*
X1002500Y-1566928D01*
X992976Y-1576452D01*
X973928Y-1585976D01*
X954881Y-1585976D01*
X935833Y-1576452D01*
X926309Y-1566928D01*
X916786Y-1547881D01*
X907262Y-1509786D01*
X907262Y-1462167D01*
X916786Y-1424071D01*
X926309Y-1405024D01*
X935833Y-1395500D01*
X954881Y-1385976D01*
X1107262Y-1585976D02*
X1107262Y-1452643D01*
X1107262Y-1471690D02*
X1116786Y-1462167D01*
X1135833Y-1452643D01*
X1164405Y-1452643D01*
X1183452Y-1462167D01*
X1192976Y-1481214D01*
X1192976Y-1585976D01*
X1192976Y-1481214D02*
X1202500Y-1462167D01*
X1221548Y-1452643D01*
X1250119Y-1452643D01*
X1269167Y-1462167D01*
X1278690Y-1481214D01*
X1278690Y-1585976D01*
X1373929Y-1585976D02*
X1373929Y-1452643D01*
X1373929Y-1471690D02*
X1383452Y-1462167D01*
X1402500Y-1452643D01*
X1431071Y-1452643D01*
X1450119Y-1462167D01*
X1459643Y-1481214D01*
X1459643Y-1585976D01*
X1459643Y-1481214D02*
X1469167Y-1462167D01*
X1488214Y-1452643D01*
X1516786Y-1452643D01*
X1535833Y-1462167D01*
X1545357Y-1481214D01*
X1545357Y-1585976D01*
X1935833Y-1376452D02*
X1764405Y-1633595D01*
X2192976Y-1385976D02*
X2212024Y-1385976D01*
X2231071Y-1395500D01*
X2240595Y-1405024D01*
X2250119Y-1424071D01*
X2259643Y-1462167D01*
X2259643Y-1509786D01*
X2250119Y-1547881D01*
X2240595Y-1566928D01*
X2231071Y-1576452D01*
X2212024Y-1585976D01*
X2192976Y-1585976D01*
X2173929Y-1576452D01*
X2164405Y-1566928D01*
X2154881Y-1547881D01*
X2145357Y-1509786D01*
X2145357Y-1462167D01*
X2154881Y-1424071D01*
X2164405Y-1405024D01*
X2173929Y-1395500D01*
X2192976Y-1385976D01*
X2345357Y-1566928D02*
X2354881Y-1576452D01*
X2345357Y-1585976D01*
X2335833Y-1576452D01*
X2345357Y-1566928D01*
X2345357Y-1585976D01*
X2478690Y-1385976D02*
X2497738Y-1385976D01*
X2516786Y-1395500D01*
X2526310Y-1405024D01*
X2535833Y-1424071D01*
X2545357Y-1462167D01*
X2545357Y-1509786D01*
X2535833Y-1547881D01*
X2526310Y-1566928D01*
X2516786Y-1576452D01*
X2497738Y-1585976D01*
X2478690Y-1585976D01*
X2459643Y-1576452D01*
X2450119Y-1566928D01*
X2440595Y-1547881D01*
X2431071Y-1509786D01*
X2431071Y-1462167D01*
X2440595Y-1424071D01*
X2450119Y-1405024D01*
X2459643Y-1395500D01*
X2478690Y-1385976D01*
X2640595Y-1585976D02*
X2678690Y-1585976D01*
X2697738Y-1576452D01*
X2707262Y-1566928D01*
X2726310Y-1538357D01*
X2735833Y-1500262D01*
X2735833Y-1424071D01*
X2726310Y-1405024D01*
X2716786Y-1395500D01*
X2697738Y-1385976D01*
X2659643Y-1385976D01*
X2640595Y-1395500D01*
X2631071Y-1405024D01*
X2621548Y-1424071D01*
X2621548Y-1471690D01*
X2631071Y-1490738D01*
X2640595Y-1500262D01*
X2659643Y-1509786D01*
X2697738Y-1509786D01*
X2716786Y-1500262D01*
X2726310Y-1490738D01*
X2735833Y-1471690D01*
X2859643Y-1385976D02*
X2878690Y-1385976D01*
X2897738Y-1395500D01*
X2907262Y-1405024D01*
X2916786Y-1424071D01*
X2926309Y-1462167D01*
X2926309Y-1509786D01*
X2916786Y-1547881D01*
X2907262Y-1566928D01*
X2897738Y-1576452D01*
X2878690Y-1585976D01*
X2859643Y-1585976D01*
X2840595Y-1576452D01*
X2831071Y-1566928D01*
X2821548Y-1547881D01*
X2812024Y-1509786D01*
X2812024Y-1462167D01*
X2821548Y-1424071D01*
X2831071Y-1405024D01*
X2840595Y-1395500D01*
X2859643Y-1385976D01*
X3097738Y-1385976D02*
X3059643Y-1385976D01*
X3040595Y-1395500D01*
X3031071Y-1405024D01*
X3012024Y-1433595D01*
X3002500Y-1471690D01*
X3002500Y-1547881D01*
X3012024Y-1566928D01*
X3021548Y-1576452D01*
X3040595Y-1585976D01*
X3078690Y-1585976D01*
X3097738Y-1576452D01*
X3107262Y-1566928D01*
X3116786Y-1547881D01*
X3116786Y-1500262D01*
X3107262Y-1481214D01*
X3097738Y-1471690D01*
X3078690Y-1462167D01*
X3040595Y-1462167D01*
X3021548Y-1471690D01*
X3012024Y-1481214D01*
X3002500Y-1500262D01*
X3192976Y-1385976D02*
X3192976Y-1424071D01*
X3269167Y-1385976D02*
X3269167Y-1424071D01*
X3564405Y-1662167D02*
X3554881Y-1652643D01*
X3535833Y-1624071D01*
X3526309Y-1605024D01*
X3516786Y-1576452D01*
X3507262Y-1528833D01*
X3507262Y-1490738D01*
X3516786Y-1443119D01*
X3526309Y-1414548D01*
X3535833Y-1395500D01*
X3554881Y-1366929D01*
X3564405Y-1357405D01*
X3745357Y-1585976D02*
X3631071Y-1585976D01*
X3688214Y-1585976D02*
X3688214Y-1385976D01*
X3669167Y-1414548D01*
X3650119Y-1433595D01*
X3631071Y-1443119D01*
X3983452Y-1585976D02*
X3983452Y-1385976D01*
X4069167Y-1585976D02*
X4069167Y-1481214D01*
X4059643Y-1462167D01*
X4040595Y-1452643D01*
X4012024Y-1452643D01*
X3992976Y-1462167D01*
X3983452Y-1471690D01*
X4192976Y-1585976D02*
X4173928Y-1576452D01*
X4164405Y-1566928D01*
X4154881Y-1547881D01*
X4154881Y-1490738D01*
X4164405Y-1471690D01*
X4173928Y-1462167D01*
X4192976Y-1452643D01*
X4221548Y-1452643D01*
X4240595Y-1462167D01*
X4250119Y-1471690D01*
X4259643Y-1490738D01*
X4259643Y-1547881D01*
X4250119Y-1566928D01*
X4240595Y-1576452D01*
X4221548Y-1585976D01*
X4192976Y-1585976D01*
X4373929Y-1585976D02*
X4354881Y-1576452D01*
X4345357Y-1557405D01*
X4345357Y-1385976D01*
X4526310Y-1576452D02*
X4507262Y-1585976D01*
X4469167Y-1585976D01*
X4450119Y-1576452D01*
X4440595Y-1557405D01*
X4440595Y-1481214D01*
X4450119Y-1462167D01*
X4469167Y-1452643D01*
X4507262Y-1452643D01*
X4526310Y-1462167D01*
X4535833Y-1481214D01*
X4535833Y-1500262D01*
X4440595Y-1519309D01*
X4602500Y-1662167D02*
X4612024Y-1652643D01*
X4631071Y-1624071D01*
X4640595Y-1605024D01*
X4650119Y-1576452D01*
X4659643Y-1528833D01*
X4659643Y-1490738D01*
X4650119Y-1443119D01*
X4640595Y-1414548D01*
X4631071Y-1395500D01*
X4612024Y-1366929D01*
X4602500Y-1357405D01*
X4964405Y-1662167D02*
X4954881Y-1652643D01*
X4935833Y-1624071D01*
X4926310Y-1605024D01*
X4916786Y-1576452D01*
X4907262Y-1528833D01*
X4907262Y-1490738D01*
X4916786Y-1443119D01*
X4926310Y-1414548D01*
X4935833Y-1395500D01*
X4954881Y-1366929D01*
X4964405Y-1357405D01*
X5040595Y-1452643D02*
X5040595Y-1585976D01*
X5040595Y-1471690D02*
X5050119Y-1462167D01*
X5069167Y-1452643D01*
X5097738Y-1452643D01*
X5116786Y-1462167D01*
X5126310Y-1481214D01*
X5126310Y-1585976D01*
X5250119Y-1585976D02*
X5231071Y-1576452D01*
X5221548Y-1566928D01*
X5212024Y-1547881D01*
X5212024Y-1490738D01*
X5221548Y-1471690D01*
X5231071Y-1462167D01*
X5250119Y-1452643D01*
X5278690Y-1452643D01*
X5297738Y-1462167D01*
X5307262Y-1471690D01*
X5316786Y-1490738D01*
X5316786Y-1547881D01*
X5307262Y-1566928D01*
X5297738Y-1576452D01*
X5278690Y-1585976D01*
X5250119Y-1585976D01*
X5373929Y-1452643D02*
X5450119Y-1452643D01*
X5402500Y-1385976D02*
X5402500Y-1557405D01*
X5412024Y-1576452D01*
X5431071Y-1585976D01*
X5450119Y-1585976D01*
X5669167Y-1452643D02*
X5669167Y-1652643D01*
X5669167Y-1462167D02*
X5688214Y-1452643D01*
X5726309Y-1452643D01*
X5745357Y-1462167D01*
X5754881Y-1471690D01*
X5764405Y-1490738D01*
X5764405Y-1547881D01*
X5754881Y-1566928D01*
X5745357Y-1576452D01*
X5726309Y-1585976D01*
X5688214Y-1585976D01*
X5669167Y-1576452D01*
X5878690Y-1585976D02*
X5859643Y-1576452D01*
X5850119Y-1557405D01*
X5850119Y-1385976D01*
X6040595Y-1585976D02*
X6040595Y-1481214D01*
X6031071Y-1462167D01*
X6012024Y-1452643D01*
X5973928Y-1452643D01*
X5954881Y-1462167D01*
X6040595Y-1576452D02*
X6021548Y-1585976D01*
X5973928Y-1585976D01*
X5954881Y-1576452D01*
X5945357Y-1557405D01*
X5945357Y-1538357D01*
X5954881Y-1519309D01*
X5973928Y-1509786D01*
X6021548Y-1509786D01*
X6040595Y-1500262D01*
X6107262Y-1452643D02*
X6183452Y-1452643D01*
X6135833Y-1385976D02*
X6135833Y-1557405D01*
X6145357Y-1576452D01*
X6164405Y-1585976D01*
X6183452Y-1585976D01*
X6326309Y-1576452D02*
X6307262Y-1585976D01*
X6269167Y-1585976D01*
X6250119Y-1576452D01*
X6240595Y-1557405D01*
X6240595Y-1481214D01*
X6250119Y-1462167D01*
X6269167Y-1452643D01*
X6307262Y-1452643D01*
X6326309Y-1462167D01*
X6335833Y-1481214D01*
X6335833Y-1500262D01*
X6240595Y-1519309D01*
X6507262Y-1585976D02*
X6507262Y-1385976D01*
X6507262Y-1576452D02*
X6488214Y-1585976D01*
X6450119Y-1585976D01*
X6431071Y-1576452D01*
X6421548Y-1566928D01*
X6412024Y-1547881D01*
X6412024Y-1490738D01*
X6421548Y-1471690D01*
X6431071Y-1462167D01*
X6450119Y-1452643D01*
X6488214Y-1452643D01*
X6507262Y-1462167D01*
X6583452Y-1662167D02*
X6592976Y-1652643D01*
X6612024Y-1624071D01*
X6621548Y-1605024D01*
X6631071Y-1576452D01*
X6640595Y-1528833D01*
X6640595Y-1490738D01*
X6631071Y-1443119D01*
X6621548Y-1414548D01*
X6612024Y-1395500D01*
X6592976Y-1366929D01*
X6583452Y-1357405D01*
X-107500Y-1915500D02*
X-7500Y-1815500D01*
X-107500Y-1715500D01*
X-207500Y-1815500D01*
X-107500Y-1915500D01*
X240595Y-1725024D02*
X250119Y-1715500D01*
X269167Y-1705976D01*
X316786Y-1705976D01*
X335833Y-1715500D01*
X345357Y-1725024D01*
X354881Y-1744071D01*
X354881Y-1763119D01*
X345357Y-1791690D01*
X231071Y-1905976D01*
X354881Y-1905976D01*
X440595Y-1886928D02*
X450119Y-1896452D01*
X440595Y-1905976D01*
X431071Y-1896452D01*
X440595Y-1886928D01*
X440595Y-1905976D01*
X516786Y-1705976D02*
X650119Y-1705976D01*
X564405Y-1905976D01*
X764405Y-1705976D02*
X783452Y-1705976D01*
X802500Y-1715500D01*
X812024Y-1725024D01*
X821548Y-1744071D01*
X831071Y-1782167D01*
X831071Y-1829786D01*
X821548Y-1867881D01*
X812024Y-1886928D01*
X802500Y-1896452D01*
X783452Y-1905976D01*
X764405Y-1905976D01*
X745357Y-1896452D01*
X735833Y-1886928D01*
X726309Y-1867881D01*
X716786Y-1829786D01*
X716786Y-1782167D01*
X726309Y-1744071D01*
X735833Y-1725024D01*
X745357Y-1715500D01*
X764405Y-1705976D01*
X954881Y-1705976D02*
X973928Y-1705976D01*
X992976Y-1715500D01*
X1002500Y-1725024D01*
X1012024Y-1744071D01*
X1021548Y-1782167D01*
X1021548Y-1829786D01*
X1012024Y-1867881D01*
X1002500Y-1886928D01*
X992976Y-1896452D01*
X973928Y-1905976D01*
X954881Y-1905976D01*
X935833Y-1896452D01*
X926309Y-1886928D01*
X916786Y-1867881D01*
X907262Y-1829786D01*
X907262Y-1782167D01*
X916786Y-1744071D01*
X926309Y-1725024D01*
X935833Y-1715500D01*
X954881Y-1705976D01*
X1107262Y-1905976D02*
X1107262Y-1772643D01*
X1107262Y-1791690D02*
X1116786Y-1782167D01*
X1135833Y-1772643D01*
X1164405Y-1772643D01*
X1183452Y-1782167D01*
X1192976Y-1801214D01*
X1192976Y-1905976D01*
X1192976Y-1801214D02*
X1202500Y-1782167D01*
X1221548Y-1772643D01*
X1250119Y-1772643D01*
X1269167Y-1782167D01*
X1278690Y-1801214D01*
X1278690Y-1905976D01*
X1373929Y-1905976D02*
X1373929Y-1772643D01*
X1373929Y-1791690D02*
X1383452Y-1782167D01*
X1402500Y-1772643D01*
X1431071Y-1772643D01*
X1450119Y-1782167D01*
X1459643Y-1801214D01*
X1459643Y-1905976D01*
X1459643Y-1801214D02*
X1469167Y-1782167D01*
X1488214Y-1772643D01*
X1516786Y-1772643D01*
X1535833Y-1782167D01*
X1545357Y-1801214D01*
X1545357Y-1905976D01*
X1935833Y-1696452D02*
X1764405Y-1953595D01*
X2192976Y-1705976D02*
X2212024Y-1705976D01*
X2231071Y-1715500D01*
X2240595Y-1725024D01*
X2250119Y-1744071D01*
X2259643Y-1782167D01*
X2259643Y-1829786D01*
X2250119Y-1867881D01*
X2240595Y-1886928D01*
X2231071Y-1896452D01*
X2212024Y-1905976D01*
X2192976Y-1905976D01*
X2173929Y-1896452D01*
X2164405Y-1886928D01*
X2154881Y-1867881D01*
X2145357Y-1829786D01*
X2145357Y-1782167D01*
X2154881Y-1744071D01*
X2164405Y-1725024D01*
X2173929Y-1715500D01*
X2192976Y-1705976D01*
X2345357Y-1886928D02*
X2354881Y-1896452D01*
X2345357Y-1905976D01*
X2335833Y-1896452D01*
X2345357Y-1886928D01*
X2345357Y-1905976D01*
X2545357Y-1905976D02*
X2431071Y-1905976D01*
X2488214Y-1905976D02*
X2488214Y-1705976D01*
X2469167Y-1734548D01*
X2450119Y-1753595D01*
X2431071Y-1763119D01*
X2669167Y-1705976D02*
X2688214Y-1705976D01*
X2707262Y-1715500D01*
X2716786Y-1725024D01*
X2726310Y-1744071D01*
X2735833Y-1782167D01*
X2735833Y-1829786D01*
X2726310Y-1867881D01*
X2716786Y-1886928D01*
X2707262Y-1896452D01*
X2688214Y-1905976D01*
X2669167Y-1905976D01*
X2650119Y-1896452D01*
X2640595Y-1886928D01*
X2631071Y-1867881D01*
X2621548Y-1829786D01*
X2621548Y-1782167D01*
X2631071Y-1744071D01*
X2640595Y-1725024D01*
X2650119Y-1715500D01*
X2669167Y-1705976D01*
X2907262Y-1705976D02*
X2869167Y-1705976D01*
X2850119Y-1715500D01*
X2840595Y-1725024D01*
X2821548Y-1753595D01*
X2812024Y-1791690D01*
X2812024Y-1867881D01*
X2821548Y-1886928D01*
X2831071Y-1896452D01*
X2850119Y-1905976D01*
X2888214Y-1905976D01*
X2907262Y-1896452D01*
X2916786Y-1886928D01*
X2926309Y-1867881D01*
X2926309Y-1820262D01*
X2916786Y-1801214D01*
X2907262Y-1791690D01*
X2888214Y-1782167D01*
X2850119Y-1782167D01*
X2831071Y-1791690D01*
X2821548Y-1801214D01*
X2812024Y-1820262D01*
X2992976Y-1705976D02*
X3116786Y-1705976D01*
X3050119Y-1782167D01*
X3078690Y-1782167D01*
X3097738Y-1791690D01*
X3107262Y-1801214D01*
X3116786Y-1820262D01*
X3116786Y-1867881D01*
X3107262Y-1886928D01*
X3097738Y-1896452D01*
X3078690Y-1905976D01*
X3021548Y-1905976D01*
X3002500Y-1896452D01*
X2992976Y-1886928D01*
X3192976Y-1705976D02*
X3192976Y-1744071D01*
X3269167Y-1705976D02*
X3269167Y-1744071D01*
X3564405Y-1982167D02*
X3554881Y-1972643D01*
X3535833Y-1944071D01*
X3526309Y-1925024D01*
X3516786Y-1896452D01*
X3507262Y-1848833D01*
X3507262Y-1810738D01*
X3516786Y-1763119D01*
X3526309Y-1734548D01*
X3535833Y-1715500D01*
X3554881Y-1686928D01*
X3564405Y-1677405D01*
X3621548Y-1705976D02*
X3754881Y-1705976D01*
X3669167Y-1905976D01*
X3983452Y-1905976D02*
X3983452Y-1705976D01*
X4069167Y-1905976D02*
X4069167Y-1801214D01*
X4059643Y-1782167D01*
X4040595Y-1772643D01*
X4012024Y-1772643D01*
X3992976Y-1782167D01*
X3983452Y-1791690D01*
X4192976Y-1905976D02*
X4173928Y-1896452D01*
X4164405Y-1886928D01*
X4154881Y-1867881D01*
X4154881Y-1810738D01*
X4164405Y-1791690D01*
X4173928Y-1782167D01*
X4192976Y-1772643D01*
X4221548Y-1772643D01*
X4240595Y-1782167D01*
X4250119Y-1791690D01*
X4259643Y-1810738D01*
X4259643Y-1867881D01*
X4250119Y-1886928D01*
X4240595Y-1896452D01*
X4221548Y-1905976D01*
X4192976Y-1905976D01*
X4373929Y-1905976D02*
X4354881Y-1896452D01*
X4345357Y-1877405D01*
X4345357Y-1705976D01*
X4526310Y-1896452D02*
X4507262Y-1905976D01*
X4469167Y-1905976D01*
X4450119Y-1896452D01*
X4440595Y-1877405D01*
X4440595Y-1801214D01*
X4450119Y-1782167D01*
X4469167Y-1772643D01*
X4507262Y-1772643D01*
X4526310Y-1782167D01*
X4535833Y-1801214D01*
X4535833Y-1820262D01*
X4440595Y-1839309D01*
X4612024Y-1896452D02*
X4631071Y-1905976D01*
X4669167Y-1905976D01*
X4688214Y-1896452D01*
X4697738Y-1877405D01*
X4697738Y-1867881D01*
X4688214Y-1848833D01*
X4669167Y-1839309D01*
X4640595Y-1839309D01*
X4621548Y-1829786D01*
X4612024Y-1810738D01*
X4612024Y-1801214D01*
X4621548Y-1782167D01*
X4640595Y-1772643D01*
X4669167Y-1772643D01*
X4688214Y-1782167D01*
X4764405Y-1982167D02*
X4773929Y-1972643D01*
X4792976Y-1944071D01*
X4802500Y-1925024D01*
X4812024Y-1896452D01*
X4821548Y-1848833D01*
X4821548Y-1810738D01*
X4812024Y-1763119D01*
X4802500Y-1734548D01*
X4792976Y-1715500D01*
X4773929Y-1686928D01*
X4764405Y-1677405D01*
X5126310Y-1982167D02*
X5116786Y-1972643D01*
X5097738Y-1944071D01*
X5088214Y-1925024D01*
X5078690Y-1896452D01*
X5069167Y-1848833D01*
X5069167Y-1810738D01*
X5078690Y-1763119D01*
X5088214Y-1734548D01*
X5097738Y-1715500D01*
X5116786Y-1686928D01*
X5126310Y-1677405D01*
X5202500Y-1772643D02*
X5202500Y-1905976D01*
X5202500Y-1791690D02*
X5212024Y-1782167D01*
X5231071Y-1772643D01*
X5259643Y-1772643D01*
X5278690Y-1782167D01*
X5288214Y-1801214D01*
X5288214Y-1905976D01*
X5412024Y-1905976D02*
X5392976Y-1896452D01*
X5383452Y-1886928D01*
X5373929Y-1867881D01*
X5373929Y-1810738D01*
X5383452Y-1791690D01*
X5392976Y-1782167D01*
X5412024Y-1772643D01*
X5440595Y-1772643D01*
X5459643Y-1782167D01*
X5469167Y-1791690D01*
X5478690Y-1810738D01*
X5478690Y-1867881D01*
X5469167Y-1886928D01*
X5459643Y-1896452D01*
X5440595Y-1905976D01*
X5412024Y-1905976D01*
X5535833Y-1772643D02*
X5612024Y-1772643D01*
X5564405Y-1705976D02*
X5564405Y-1877405D01*
X5573929Y-1896452D01*
X5592976Y-1905976D01*
X5612024Y-1905976D01*
X5831071Y-1772643D02*
X5831071Y-1972643D01*
X5831071Y-1782167D02*
X5850119Y-1772643D01*
X5888214Y-1772643D01*
X5907262Y-1782167D01*
X5916786Y-1791690D01*
X5926309Y-1810738D01*
X5926309Y-1867881D01*
X5916786Y-1886928D01*
X5907262Y-1896452D01*
X5888214Y-1905976D01*
X5850119Y-1905976D01*
X5831071Y-1896452D01*
X6040595Y-1905976D02*
X6021548Y-1896452D01*
X6012024Y-1877405D01*
X6012024Y-1705976D01*
X6202500Y-1905976D02*
X6202500Y-1801214D01*
X6192976Y-1782167D01*
X6173928Y-1772643D01*
X6135833Y-1772643D01*
X6116786Y-1782167D01*
X6202500Y-1896452D02*
X6183452Y-1905976D01*
X6135833Y-1905976D01*
X6116786Y-1896452D01*
X6107262Y-1877405D01*
X6107262Y-1858357D01*
X6116786Y-1839309D01*
X6135833Y-1829786D01*
X6183452Y-1829786D01*
X6202500Y-1820262D01*
X6269167Y-1772643D02*
X6345357Y-1772643D01*
X6297738Y-1705976D02*
X6297738Y-1877405D01*
X6307262Y-1896452D01*
X6326309Y-1905976D01*
X6345357Y-1905976D01*
X6488214Y-1896452D02*
X6469167Y-1905976D01*
X6431071Y-1905976D01*
X6412024Y-1896452D01*
X6402500Y-1877405D01*
X6402500Y-1801214D01*
X6412024Y-1782167D01*
X6431071Y-1772643D01*
X6469167Y-1772643D01*
X6488214Y-1782167D01*
X6497738Y-1801214D01*
X6497738Y-1820262D01*
X6402500Y-1839309D01*
X6669167Y-1905976D02*
X6669167Y-1705976D01*
X6669167Y-1896452D02*
X6650119Y-1905976D01*
X6612024Y-1905976D01*
X6592976Y-1896452D01*
X6583452Y-1886928D01*
X6573928Y-1867881D01*
X6573928Y-1810738D01*
X6583452Y-1791690D01*
X6592976Y-1782167D01*
X6612024Y-1772643D01*
X6650119Y-1772643D01*
X6669167Y-1782167D01*
X6745357Y-1982167D02*
X6754881Y-1972643D01*
X6773928Y-1944071D01*
X6783452Y-1925024D01*
X6792976Y-1896452D01*
X6802500Y-1848833D01*
X6802500Y-1810738D01*
X6792976Y-1763119D01*
X6783452Y-1734548D01*
X6773928Y-1715500D01*
X6754881Y-1686928D01*
X6745357Y-1677405D01*
X-207500Y-2035500D02*
X-7500Y-2235500D01*
X-7500Y-2035500D02*
X-207500Y-2235500D01*
X-7500Y-2135500D02*
G75*
G03*
X-7500Y-2135500I-100000J0D01*
G01*
X231071Y-2025976D02*
X364405Y-2025976D01*
X278690Y-2225976D01*
X440595Y-2206929D02*
X450119Y-2216452D01*
X440595Y-2225976D01*
X431071Y-2216452D01*
X440595Y-2206929D01*
X440595Y-2225976D01*
X640595Y-2225976D02*
X526310Y-2225976D01*
X583452Y-2225976D02*
X583452Y-2025976D01*
X564405Y-2054548D01*
X545357Y-2073595D01*
X526310Y-2083119D01*
X764405Y-2025976D02*
X783452Y-2025976D01*
X802500Y-2035500D01*
X812024Y-2045024D01*
X821548Y-2064071D01*
X831071Y-2102167D01*
X831071Y-2149786D01*
X821548Y-2187881D01*
X812024Y-2206929D01*
X802500Y-2216452D01*
X783452Y-2225976D01*
X764405Y-2225976D01*
X745357Y-2216452D01*
X735833Y-2206929D01*
X726309Y-2187881D01*
X716786Y-2149786D01*
X716786Y-2102167D01*
X726309Y-2064071D01*
X735833Y-2045024D01*
X745357Y-2035500D01*
X764405Y-2025976D01*
X954881Y-2025976D02*
X973928Y-2025976D01*
X992976Y-2035500D01*
X1002500Y-2045024D01*
X1012024Y-2064071D01*
X1021548Y-2102167D01*
X1021548Y-2149786D01*
X1012024Y-2187881D01*
X1002500Y-2206929D01*
X992976Y-2216452D01*
X973928Y-2225976D01*
X954881Y-2225976D01*
X935833Y-2216452D01*
X926309Y-2206929D01*
X916786Y-2187881D01*
X907262Y-2149786D01*
X907262Y-2102167D01*
X916786Y-2064071D01*
X926309Y-2045024D01*
X935833Y-2035500D01*
X954881Y-2025976D01*
X1107262Y-2225976D02*
X1107262Y-2092643D01*
X1107262Y-2111690D02*
X1116786Y-2102167D01*
X1135833Y-2092643D01*
X1164405Y-2092643D01*
X1183452Y-2102167D01*
X1192976Y-2121214D01*
X1192976Y-2225976D01*
X1192976Y-2121214D02*
X1202500Y-2102167D01*
X1221548Y-2092643D01*
X1250119Y-2092643D01*
X1269167Y-2102167D01*
X1278690Y-2121214D01*
X1278690Y-2225976D01*
X1373929Y-2225976D02*
X1373929Y-2092643D01*
X1373929Y-2111690D02*
X1383452Y-2102167D01*
X1402500Y-2092643D01*
X1431071Y-2092643D01*
X1450119Y-2102167D01*
X1459643Y-2121214D01*
X1459643Y-2225976D01*
X1459643Y-2121214D02*
X1469167Y-2102167D01*
X1488214Y-2092643D01*
X1516786Y-2092643D01*
X1535833Y-2102167D01*
X1545357Y-2121214D01*
X1545357Y-2225976D01*
X1935833Y-2016452D02*
X1764405Y-2273595D01*
X2192976Y-2025976D02*
X2212024Y-2025976D01*
X2231071Y-2035500D01*
X2240595Y-2045024D01*
X2250119Y-2064071D01*
X2259643Y-2102167D01*
X2259643Y-2149786D01*
X2250119Y-2187881D01*
X2240595Y-2206929D01*
X2231071Y-2216452D01*
X2212024Y-2225976D01*
X2192976Y-2225976D01*
X2173929Y-2216452D01*
X2164405Y-2206929D01*
X2154881Y-2187881D01*
X2145357Y-2149786D01*
X2145357Y-2102167D01*
X2154881Y-2064071D01*
X2164405Y-2045024D01*
X2173929Y-2035500D01*
X2192976Y-2025976D01*
X2345357Y-2206929D02*
X2354881Y-2216452D01*
X2345357Y-2225976D01*
X2335833Y-2216452D01*
X2345357Y-2206929D01*
X2345357Y-2225976D01*
X2431071Y-2045024D02*
X2440595Y-2035500D01*
X2459643Y-2025976D01*
X2507262Y-2025976D01*
X2526310Y-2035500D01*
X2535833Y-2045024D01*
X2545357Y-2064071D01*
X2545357Y-2083119D01*
X2535833Y-2111690D01*
X2421548Y-2225976D01*
X2545357Y-2225976D01*
X2612024Y-2025976D02*
X2745357Y-2025976D01*
X2659643Y-2225976D01*
X2831071Y-2225976D02*
X2869167Y-2225976D01*
X2888214Y-2216452D01*
X2897738Y-2206929D01*
X2916786Y-2178357D01*
X2926309Y-2140262D01*
X2926309Y-2064071D01*
X2916786Y-2045024D01*
X2907262Y-2035500D01*
X2888214Y-2025976D01*
X2850119Y-2025976D01*
X2831071Y-2035500D01*
X2821548Y-2045024D01*
X2812024Y-2064071D01*
X2812024Y-2111690D01*
X2821548Y-2130738D01*
X2831071Y-2140262D01*
X2850119Y-2149786D01*
X2888214Y-2149786D01*
X2907262Y-2140262D01*
X2916786Y-2130738D01*
X2926309Y-2111690D01*
X3107262Y-2025976D02*
X3012024Y-2025976D01*
X3002500Y-2121214D01*
X3012024Y-2111690D01*
X3031071Y-2102167D01*
X3078690Y-2102167D01*
X3097738Y-2111690D01*
X3107262Y-2121214D01*
X3116786Y-2140262D01*
X3116786Y-2187881D01*
X3107262Y-2206929D01*
X3097738Y-2216452D01*
X3078690Y-2225976D01*
X3031071Y-2225976D01*
X3012024Y-2216452D01*
X3002500Y-2206929D01*
X3192976Y-2025976D02*
X3192976Y-2064071D01*
X3269167Y-2025976D02*
X3269167Y-2064071D01*
X3564405Y-2302167D02*
X3554881Y-2292643D01*
X3535833Y-2264071D01*
X3526309Y-2245024D01*
X3516786Y-2216452D01*
X3507262Y-2168833D01*
X3507262Y-2130738D01*
X3516786Y-2083119D01*
X3526309Y-2054548D01*
X3535833Y-2035500D01*
X3554881Y-2006928D01*
X3564405Y-1997405D01*
X3745357Y-2225976D02*
X3631071Y-2225976D01*
X3688214Y-2225976D02*
X3688214Y-2025976D01*
X3669167Y-2054548D01*
X3650119Y-2073595D01*
X3631071Y-2083119D01*
X3983452Y-2225976D02*
X3983452Y-2025976D01*
X4069167Y-2225976D02*
X4069167Y-2121214D01*
X4059643Y-2102167D01*
X4040595Y-2092643D01*
X4012024Y-2092643D01*
X3992976Y-2102167D01*
X3983452Y-2111690D01*
X4192976Y-2225976D02*
X4173928Y-2216452D01*
X4164405Y-2206929D01*
X4154881Y-2187881D01*
X4154881Y-2130738D01*
X4164405Y-2111690D01*
X4173928Y-2102167D01*
X4192976Y-2092643D01*
X4221548Y-2092643D01*
X4240595Y-2102167D01*
X4250119Y-2111690D01*
X4259643Y-2130738D01*
X4259643Y-2187881D01*
X4250119Y-2206929D01*
X4240595Y-2216452D01*
X4221548Y-2225976D01*
X4192976Y-2225976D01*
X4373929Y-2225976D02*
X4354881Y-2216452D01*
X4345357Y-2197405D01*
X4345357Y-2025976D01*
X4526310Y-2216452D02*
X4507262Y-2225976D01*
X4469167Y-2225976D01*
X4450119Y-2216452D01*
X4440595Y-2197405D01*
X4440595Y-2121214D01*
X4450119Y-2102167D01*
X4469167Y-2092643D01*
X4507262Y-2092643D01*
X4526310Y-2102167D01*
X4535833Y-2121214D01*
X4535833Y-2140262D01*
X4440595Y-2159310D01*
X4602500Y-2302167D02*
X4612024Y-2292643D01*
X4631071Y-2264071D01*
X4640595Y-2245024D01*
X4650119Y-2216452D01*
X4659643Y-2168833D01*
X4659643Y-2130738D01*
X4650119Y-2083119D01*
X4640595Y-2054548D01*
X4631071Y-2035500D01*
X4612024Y-2006928D01*
X4602500Y-1997405D01*
X4964405Y-2302167D02*
X4954881Y-2292643D01*
X4935833Y-2264071D01*
X4926310Y-2245024D01*
X4916786Y-2216452D01*
X4907262Y-2168833D01*
X4907262Y-2130738D01*
X4916786Y-2083119D01*
X4926310Y-2054548D01*
X4935833Y-2035500D01*
X4954881Y-2006928D01*
X4964405Y-1997405D01*
X5040595Y-2092643D02*
X5040595Y-2225976D01*
X5040595Y-2111690D02*
X5050119Y-2102167D01*
X5069167Y-2092643D01*
X5097738Y-2092643D01*
X5116786Y-2102167D01*
X5126310Y-2121214D01*
X5126310Y-2225976D01*
X5250119Y-2225976D02*
X5231071Y-2216452D01*
X5221548Y-2206929D01*
X5212024Y-2187881D01*
X5212024Y-2130738D01*
X5221548Y-2111690D01*
X5231071Y-2102167D01*
X5250119Y-2092643D01*
X5278690Y-2092643D01*
X5297738Y-2102167D01*
X5307262Y-2111690D01*
X5316786Y-2130738D01*
X5316786Y-2187881D01*
X5307262Y-2206929D01*
X5297738Y-2216452D01*
X5278690Y-2225976D01*
X5250119Y-2225976D01*
X5373929Y-2092643D02*
X5450119Y-2092643D01*
X5402500Y-2025976D02*
X5402500Y-2197405D01*
X5412024Y-2216452D01*
X5431071Y-2225976D01*
X5450119Y-2225976D01*
X5669167Y-2092643D02*
X5669167Y-2292643D01*
X5669167Y-2102167D02*
X5688214Y-2092643D01*
X5726309Y-2092643D01*
X5745357Y-2102167D01*
X5754881Y-2111690D01*
X5764405Y-2130738D01*
X5764405Y-2187881D01*
X5754881Y-2206929D01*
X5745357Y-2216452D01*
X5726309Y-2225976D01*
X5688214Y-2225976D01*
X5669167Y-2216452D01*
X5878690Y-2225976D02*
X5859643Y-2216452D01*
X5850119Y-2197405D01*
X5850119Y-2025976D01*
X6040595Y-2225976D02*
X6040595Y-2121214D01*
X6031071Y-2102167D01*
X6012024Y-2092643D01*
X5973928Y-2092643D01*
X5954881Y-2102167D01*
X6040595Y-2216452D02*
X6021548Y-2225976D01*
X5973928Y-2225976D01*
X5954881Y-2216452D01*
X5945357Y-2197405D01*
X5945357Y-2178357D01*
X5954881Y-2159310D01*
X5973928Y-2149786D01*
X6021548Y-2149786D01*
X6040595Y-2140262D01*
X6107262Y-2092643D02*
X6183452Y-2092643D01*
X6135833Y-2025976D02*
X6135833Y-2197405D01*
X6145357Y-2216452D01*
X6164405Y-2225976D01*
X6183452Y-2225976D01*
X6326309Y-2216452D02*
X6307262Y-2225976D01*
X6269167Y-2225976D01*
X6250119Y-2216452D01*
X6240595Y-2197405D01*
X6240595Y-2121214D01*
X6250119Y-2102167D01*
X6269167Y-2092643D01*
X6307262Y-2092643D01*
X6326309Y-2102167D01*
X6335833Y-2121214D01*
X6335833Y-2140262D01*
X6240595Y-2159310D01*
X6507262Y-2225976D02*
X6507262Y-2025976D01*
X6507262Y-2216452D02*
X6488214Y-2225976D01*
X6450119Y-2225976D01*
X6431071Y-2216452D01*
X6421548Y-2206929D01*
X6412024Y-2187881D01*
X6412024Y-2130738D01*
X6421548Y-2111690D01*
X6431071Y-2102167D01*
X6450119Y-2092643D01*
X6488214Y-2092643D01*
X6507262Y-2102167D01*
X6583452Y-2302167D02*
X6592976Y-2292643D01*
X6612024Y-2264071D01*
X6621548Y-2245024D01*
X6631071Y-2216452D01*
X6640595Y-2168833D01*
X6640595Y-2130738D01*
X6631071Y-2083119D01*
X6621548Y-2054548D01*
X6612024Y-2035500D01*
X6592976Y-2006928D01*
X6583452Y-1997405D01*
M02*
