G04 #@! TF.GenerationSoftware,KiCad,Pcbnew,6.0.2+dfsg-1*
G04 #@! TF.CreationDate,2022-11-20T12:02:48+01:00*
G04 #@! TF.ProjectId,gb-stream-cart,67622d73-7472-4656-916d-2d636172742e,REV1*
G04 #@! TF.SameCoordinates,PX4cf3b50PY7de2900*
G04 #@! TF.FileFunction,Legend,Top*
G04 #@! TF.FilePolarity,Positive*
%FSLAX46Y46*%
G04 Gerber Fmt 4.6, Leading zero omitted, Abs format (unit mm)*
G04 Created by KiCad (PCBNEW 6.0.2+dfsg-1) date 2022-11-20 12:02:48*
%MOMM*%
%LPD*%
G01*
G04 APERTURE LIST*
G04 Aperture macros list*
%AMRoundRect*
0 Rectangle with rounded corners*
0 $1 Rounding radius*
0 $2 $3 $4 $5 $6 $7 $8 $9 X,Y pos of 4 corners*
0 Add a 4 corners polygon primitive as box body*
4,1,4,$2,$3,$4,$5,$6,$7,$8,$9,$2,$3,0*
0 Add four circle primitives for the rounded corners*
1,1,$1+$1,$2,$3*
1,1,$1+$1,$4,$5*
1,1,$1+$1,$6,$7*
1,1,$1+$1,$8,$9*
0 Add four rect primitives between the rounded corners*
20,1,$1+$1,$2,$3,$4,$5,0*
20,1,$1+$1,$4,$5,$6,$7,0*
20,1,$1+$1,$6,$7,$8,$9,0*
20,1,$1+$1,$8,$9,$2,$3,0*%
G04 Aperture macros list end*
%ADD10C,0.150000*%
%ADD11C,0.500000*%
%ADD12C,0.200000*%
%ADD13C,0.120000*%
%ADD14RoundRect,0.135000X0.135000X0.185000X-0.135000X0.185000X-0.135000X-0.185000X0.135000X-0.185000X0*%
%ADD15RoundRect,0.147500X-0.147500X-0.172500X0.147500X-0.172500X0.147500X0.172500X-0.147500X0.172500X0*%
%ADD16RoundRect,0.243750X0.243750X0.456250X-0.243750X0.456250X-0.243750X-0.456250X0.243750X-0.456250X0*%
%ADD17RoundRect,0.147500X0.147500X0.172500X-0.147500X0.172500X-0.147500X-0.172500X0.147500X-0.172500X0*%
%ADD18C,2.000000*%
%ADD19RoundRect,0.135000X-0.135000X-0.185000X0.135000X-0.185000X0.135000X0.185000X-0.135000X0.185000X0*%
%ADD20RoundRect,0.140000X-0.140000X-0.170000X0.140000X-0.170000X0.140000X0.170000X-0.140000X0.170000X0*%
%ADD21C,0.500000*%
%ADD22R,2.100000X5.600000*%
%ADD23RoundRect,0.243750X-0.456250X0.243750X-0.456250X-0.243750X0.456250X-0.243750X0.456250X0.243750X0*%
%ADD24RoundRect,0.147500X-0.172500X0.147500X-0.172500X-0.147500X0.172500X-0.147500X0.172500X0.147500X0*%
%ADD25R,2.000000X1.500000*%
%ADD26R,2.000000X3.800000*%
%ADD27R,3.500000X5.000000*%
%ADD28RoundRect,0.275000X1.125000X-0.275000X1.125000X0.275000X-1.125000X0.275000X-1.125000X-0.275000X0*%
%ADD29RoundRect,0.275000X1.325000X-0.275000X1.325000X0.275000X-1.325000X0.275000X-1.325000X-0.275000X0*%
%ADD30C,2.350000*%
%ADD31R,1.676400X0.355600*%
%ADD32C,2.700000*%
%ADD33C,7.150000*%
%ADD34RoundRect,0.147500X0.172500X-0.147500X0.172500X0.147500X-0.172500X0.147500X-0.172500X-0.147500X0*%
%ADD35C,0.650000*%
%ADD36R,0.600000X1.450000*%
%ADD37R,0.300000X1.450000*%
%ADD38O,1.000000X2.100000*%
%ADD39O,1.000000X1.600000*%
%ADD40R,0.355600X1.676400*%
%ADD41RoundRect,0.140000X0.140000X0.170000X-0.140000X0.170000X-0.140000X-0.170000X0.140000X-0.170000X0*%
%ADD42RoundRect,0.135000X0.185000X-0.135000X0.185000X0.135000X-0.185000X0.135000X-0.185000X-0.135000X0*%
%ADD43RoundRect,0.250000X0.375000X0.625000X-0.375000X0.625000X-0.375000X-0.625000X0.375000X-0.625000X0*%
%ADD44R,0.900000X1.000000*%
%ADD45R,1.700000X0.550000*%
%ADD46RoundRect,0.050000X-0.050000X0.387500X-0.050000X-0.387500X0.050000X-0.387500X0.050000X0.387500X0*%
%ADD47RoundRect,0.050000X-0.387500X0.050000X-0.387500X-0.050000X0.387500X-0.050000X0.387500X0.050000X0*%
%ADD48RoundRect,0.144000X-1.456000X1.456000X-1.456000X-1.456000X1.456000X-1.456000X1.456000X1.456000X0*%
%ADD49RoundRect,0.150000X0.650000X0.150000X-0.650000X0.150000X-0.650000X-0.150000X0.650000X-0.150000X0*%
%ADD50RoundRect,0.140000X0.170000X-0.140000X0.170000X0.140000X-0.170000X0.140000X-0.170000X-0.140000X0*%
%ADD51R,6.000000X1.300000*%
%ADD52R,5.500000X1.000000*%
%ADD53RoundRect,0.140000X-0.170000X0.140000X-0.170000X-0.140000X0.170000X-0.140000X0.170000X0.140000X0*%
%ADD54R,1.700000X1.700000*%
%ADD55O,1.700000X1.700000*%
G04 APERTURE END LIST*
D10*
X19685595Y20117620D02*
X19685595Y21117620D01*
X19923690Y21117620D01*
X20066547Y21070000D01*
X20161785Y20974762D01*
X20209404Y20879524D01*
X20257023Y20689048D01*
X20257023Y20546191D01*
X20209404Y20355715D01*
X20161785Y20260477D01*
X20066547Y20165239D01*
X19923690Y20117620D01*
X19685595Y20117620D01*
X21066547Y20165239D02*
X20971309Y20117620D01*
X20780833Y20117620D01*
X20685595Y20165239D01*
X20637976Y20260477D01*
X20637976Y20641429D01*
X20685595Y20736667D01*
X20780833Y20784286D01*
X20971309Y20784286D01*
X21066547Y20736667D01*
X21114166Y20641429D01*
X21114166Y20546191D01*
X20637976Y20450953D01*
X21495119Y20165239D02*
X21590357Y20117620D01*
X21780833Y20117620D01*
X21876071Y20165239D01*
X21923690Y20260477D01*
X21923690Y20308096D01*
X21876071Y20403334D01*
X21780833Y20450953D01*
X21637976Y20450953D01*
X21542738Y20498572D01*
X21495119Y20593810D01*
X21495119Y20641429D01*
X21542738Y20736667D01*
X21637976Y20784286D01*
X21780833Y20784286D01*
X21876071Y20736667D01*
X22352261Y20117620D02*
X22352261Y20784286D01*
X22352261Y21117620D02*
X22304642Y21070000D01*
X22352261Y21022381D01*
X22399880Y21070000D01*
X22352261Y21117620D01*
X22352261Y21022381D01*
X23257023Y20784286D02*
X23257023Y19974762D01*
X23209404Y19879524D01*
X23161785Y19831905D01*
X23066547Y19784286D01*
X22923690Y19784286D01*
X22828452Y19831905D01*
X23257023Y20165239D02*
X23161785Y20117620D01*
X22971309Y20117620D01*
X22876071Y20165239D01*
X22828452Y20212858D01*
X22780833Y20308096D01*
X22780833Y20593810D01*
X22828452Y20689048D01*
X22876071Y20736667D01*
X22971309Y20784286D01*
X23161785Y20784286D01*
X23257023Y20736667D01*
X23733214Y20784286D02*
X23733214Y20117620D01*
X23733214Y20689048D02*
X23780833Y20736667D01*
X23876071Y20784286D01*
X24018928Y20784286D01*
X24114166Y20736667D01*
X24161785Y20641429D01*
X24161785Y20117620D01*
X25685595Y19736667D02*
X25637976Y19784286D01*
X25542738Y19927143D01*
X25495119Y20022381D01*
X25447500Y20165239D01*
X25399880Y20403334D01*
X25399880Y20593810D01*
X25447500Y20831905D01*
X25495119Y20974762D01*
X25542738Y21070000D01*
X25637976Y21212858D01*
X25685595Y21260477D01*
X26637976Y20212858D02*
X26590357Y20165239D01*
X26447500Y20117620D01*
X26352261Y20117620D01*
X26209404Y20165239D01*
X26114166Y20260477D01*
X26066547Y20355715D01*
X26018928Y20546191D01*
X26018928Y20689048D01*
X26066547Y20879524D01*
X26114166Y20974762D01*
X26209404Y21070000D01*
X26352261Y21117620D01*
X26447500Y21117620D01*
X26590357Y21070000D01*
X26637976Y21022381D01*
X27637976Y20212858D02*
X27590357Y20165239D01*
X27447500Y20117620D01*
X27352261Y20117620D01*
X27209404Y20165239D01*
X27114166Y20260477D01*
X27066547Y20355715D01*
X27018928Y20546191D01*
X27018928Y20689048D01*
X27066547Y20879524D01*
X27114166Y20974762D01*
X27209404Y21070000D01*
X27352261Y21117620D01*
X27447500Y21117620D01*
X27590357Y21070000D01*
X27637976Y21022381D01*
X28066547Y20498572D02*
X28828452Y20498572D01*
X29637976Y20641429D02*
X29780833Y20593810D01*
X29828452Y20546191D01*
X29876071Y20450953D01*
X29876071Y20308096D01*
X29828452Y20212858D01*
X29780833Y20165239D01*
X29685595Y20117620D01*
X29304642Y20117620D01*
X29304642Y21117620D01*
X29637976Y21117620D01*
X29733214Y21070000D01*
X29780833Y21022381D01*
X29828452Y20927143D01*
X29828452Y20831905D01*
X29780833Y20736667D01*
X29733214Y20689048D01*
X29637976Y20641429D01*
X29304642Y20641429D01*
X30495119Y20593810D02*
X30495119Y20117620D01*
X30161785Y21117620D02*
X30495119Y20593810D01*
X30828452Y21117620D01*
X32352261Y20784286D02*
X32352261Y20117620D01*
X32114166Y21165239D02*
X31876071Y20450953D01*
X32495119Y20450953D01*
X32876071Y20212858D02*
X32923690Y20165239D01*
X32876071Y20117620D01*
X32828452Y20165239D01*
X32876071Y20212858D01*
X32876071Y20117620D01*
X33542738Y21117620D02*
X33637976Y21117620D01*
X33733214Y21070000D01*
X33780833Y21022381D01*
X33828452Y20927143D01*
X33876071Y20736667D01*
X33876071Y20498572D01*
X33828452Y20308096D01*
X33780833Y20212858D01*
X33733214Y20165239D01*
X33637976Y20117620D01*
X33542738Y20117620D01*
X33447500Y20165239D01*
X33399880Y20212858D01*
X33352261Y20308096D01*
X33304642Y20498572D01*
X33304642Y20736667D01*
X33352261Y20927143D01*
X33399880Y21022381D01*
X33447500Y21070000D01*
X33542738Y21117620D01*
X34209404Y19736667D02*
X34257023Y19784286D01*
X34352261Y19927143D01*
X34399880Y20022381D01*
X34447500Y20165239D01*
X34495119Y20403334D01*
X34495119Y20593810D01*
X34447500Y20831905D01*
X34399880Y20974762D01*
X34352261Y21070000D01*
X34257023Y21212858D01*
X34209404Y21260477D01*
X36161785Y20117620D02*
X36161785Y20641429D01*
X36114166Y20736667D01*
X36018928Y20784286D01*
X35828452Y20784286D01*
X35733214Y20736667D01*
X36161785Y20165239D02*
X36066547Y20117620D01*
X35828452Y20117620D01*
X35733214Y20165239D01*
X35685595Y20260477D01*
X35685595Y20355715D01*
X35733214Y20450953D01*
X35828452Y20498572D01*
X36066547Y20498572D01*
X36161785Y20546191D01*
X36637976Y20784286D02*
X36637976Y20117620D01*
X36637976Y20689048D02*
X36685595Y20736667D01*
X36780833Y20784286D01*
X36923690Y20784286D01*
X37018928Y20736667D01*
X37066547Y20641429D01*
X37066547Y20117620D01*
X37971309Y20117620D02*
X37971309Y21117620D01*
X37971309Y20165239D02*
X37876071Y20117620D01*
X37685595Y20117620D01*
X37590357Y20165239D01*
X37542738Y20212858D01*
X37495119Y20308096D01*
X37495119Y20593810D01*
X37542738Y20689048D01*
X37590357Y20736667D01*
X37685595Y20784286D01*
X37876071Y20784286D01*
X37971309Y20736667D01*
X39161785Y20165239D02*
X39257023Y20117620D01*
X39447500Y20117620D01*
X39542738Y20165239D01*
X39590357Y20260477D01*
X39590357Y20308096D01*
X39542738Y20403334D01*
X39447500Y20450953D01*
X39304642Y20450953D01*
X39209404Y20498572D01*
X39161785Y20593810D01*
X39161785Y20641429D01*
X39209404Y20736667D01*
X39304642Y20784286D01*
X39447500Y20784286D01*
X39542738Y20736667D01*
X40161785Y20117620D02*
X40066547Y20165239D01*
X40018928Y20212858D01*
X39971309Y20308096D01*
X39971309Y20593810D01*
X40018928Y20689048D01*
X40066547Y20736667D01*
X40161785Y20784286D01*
X40304642Y20784286D01*
X40399880Y20736667D01*
X40447500Y20689048D01*
X40495119Y20593810D01*
X40495119Y20308096D01*
X40447500Y20212858D01*
X40399880Y20165239D01*
X40304642Y20117620D01*
X40161785Y20117620D01*
X40780833Y20784286D02*
X41161785Y20784286D01*
X40923690Y20117620D02*
X40923690Y20974762D01*
X40971309Y21070000D01*
X41066547Y21117620D01*
X41161785Y21117620D01*
X41352261Y20784286D02*
X41733214Y20784286D01*
X41495119Y21117620D02*
X41495119Y20260477D01*
X41542738Y20165239D01*
X41637976Y20117620D01*
X41733214Y20117620D01*
X41971309Y20784286D02*
X42161785Y20117620D01*
X42352261Y20593810D01*
X42542738Y20117620D01*
X42733214Y20784286D01*
X43542738Y20117620D02*
X43542738Y20641429D01*
X43495119Y20736667D01*
X43399880Y20784286D01*
X43209404Y20784286D01*
X43114166Y20736667D01*
X43542738Y20165239D02*
X43447499Y20117620D01*
X43209404Y20117620D01*
X43114166Y20165239D01*
X43066547Y20260477D01*
X43066547Y20355715D01*
X43114166Y20450953D01*
X43209404Y20498572D01*
X43447499Y20498572D01*
X43542738Y20546191D01*
X44018928Y20117620D02*
X44018928Y20784286D01*
X44018928Y20593810D02*
X44066547Y20689048D01*
X44114166Y20736667D01*
X44209404Y20784286D01*
X44304642Y20784286D01*
X45018928Y20165239D02*
X44923690Y20117620D01*
X44733214Y20117620D01*
X44637976Y20165239D01*
X44590357Y20260477D01*
X44590357Y20641429D01*
X44637976Y20736667D01*
X44733214Y20784286D01*
X44923690Y20784286D01*
X45018928Y20736667D01*
X45066547Y20641429D01*
X45066547Y20546191D01*
X44590357Y20450953D01*
X46542738Y19736667D02*
X46495119Y19784286D01*
X46399880Y19927143D01*
X46352261Y20022381D01*
X46304642Y20165239D01*
X46257023Y20403334D01*
X46257023Y20593810D01*
X46304642Y20831905D01*
X46352261Y20974762D01*
X46399880Y21070000D01*
X46495119Y21212858D01*
X46542738Y21260477D01*
X47447499Y21070000D02*
X47352261Y21117620D01*
X47209404Y21117620D01*
X47066547Y21070000D01*
X46971309Y20974762D01*
X46923690Y20879524D01*
X46876071Y20689048D01*
X46876071Y20546191D01*
X46923690Y20355715D01*
X46971309Y20260477D01*
X47066547Y20165239D01*
X47209404Y20117620D01*
X47304642Y20117620D01*
X47447499Y20165239D01*
X47495119Y20212858D01*
X47495119Y20546191D01*
X47304642Y20546191D01*
X47923690Y20117620D02*
X47923690Y21117620D01*
X48495119Y20117620D01*
X48495119Y21117620D01*
X48971309Y21117620D02*
X48971309Y20308096D01*
X49018928Y20212858D01*
X49066547Y20165239D01*
X49161785Y20117620D01*
X49352261Y20117620D01*
X49447499Y20165239D01*
X49495119Y20212858D01*
X49542738Y20308096D01*
X49542738Y21117620D01*
X51304642Y21070000D02*
X51209404Y21117620D01*
X51066547Y21117620D01*
X50923690Y21070000D01*
X50828452Y20974762D01*
X50780833Y20879524D01*
X50733214Y20689048D01*
X50733214Y20546191D01*
X50780833Y20355715D01*
X50828452Y20260477D01*
X50923690Y20165239D01*
X51066547Y20117620D01*
X51161785Y20117620D01*
X51304642Y20165239D01*
X51352261Y20212858D01*
X51352261Y20546191D01*
X51161785Y20546191D01*
X51780833Y20117620D02*
X51780833Y21117620D01*
X52161785Y21117620D01*
X52257023Y21070000D01*
X52304642Y21022381D01*
X52352261Y20927143D01*
X52352261Y20784286D01*
X52304642Y20689048D01*
X52257023Y20641429D01*
X52161785Y20593810D01*
X51780833Y20593810D01*
X53257023Y20117620D02*
X52780833Y20117620D01*
X52780833Y21117620D01*
X54257023Y20784286D02*
X54495119Y20117620D01*
X54733214Y20784286D01*
X55018928Y21117620D02*
X55637976Y21117620D01*
X55304642Y20736667D01*
X55447500Y20736667D01*
X55542738Y20689048D01*
X55590357Y20641429D01*
X55637976Y20546191D01*
X55637976Y20308096D01*
X55590357Y20212858D01*
X55542738Y20165239D01*
X55447500Y20117620D01*
X55161785Y20117620D01*
X55066547Y20165239D01*
X55018928Y20212858D01*
X55971309Y19736667D02*
X56018928Y19784286D01*
X56114166Y19927143D01*
X56161785Y20022381D01*
X56209404Y20165239D01*
X56257023Y20403334D01*
X56257023Y20593810D01*
X56209404Y20831905D01*
X56161785Y20974762D01*
X56114166Y21070000D01*
X56018928Y21212858D01*
X55971309Y21260477D01*
X57637976Y20117620D02*
X57542738Y20165239D01*
X57495119Y20212858D01*
X57447500Y20308096D01*
X57447500Y20593810D01*
X57495119Y20689048D01*
X57542738Y20736667D01*
X57637976Y20784286D01*
X57780833Y20784286D01*
X57876071Y20736667D01*
X57923690Y20689048D01*
X57971309Y20593810D01*
X57971309Y20308096D01*
X57923690Y20212858D01*
X57876071Y20165239D01*
X57780833Y20117620D01*
X57637976Y20117620D01*
X58399880Y20784286D02*
X58399880Y20117620D01*
X58399880Y20689048D02*
X58447500Y20736667D01*
X58542738Y20784286D01*
X58685595Y20784286D01*
X58780833Y20736667D01*
X58828452Y20641429D01*
X58828452Y20117620D01*
X19685595Y18507620D02*
X19685595Y19507620D01*
X20114166Y18507620D02*
X20114166Y19031429D01*
X20066547Y19126667D01*
X19971309Y19174286D01*
X19828452Y19174286D01*
X19733214Y19126667D01*
X19685595Y19079048D01*
X20447500Y19174286D02*
X20828452Y19174286D01*
X20590357Y19507620D02*
X20590357Y18650477D01*
X20637976Y18555239D01*
X20733214Y18507620D01*
X20828452Y18507620D01*
X21018928Y19174286D02*
X21399880Y19174286D01*
X21161785Y19507620D02*
X21161785Y18650477D01*
X21209404Y18555239D01*
X21304642Y18507620D01*
X21399880Y18507620D01*
X21733214Y19174286D02*
X21733214Y18174286D01*
X21733214Y19126667D02*
X21828452Y19174286D01*
X22018928Y19174286D01*
X22114166Y19126667D01*
X22161785Y19079048D01*
X22209404Y18983810D01*
X22209404Y18698096D01*
X22161785Y18602858D01*
X22114166Y18555239D01*
X22018928Y18507620D01*
X21828452Y18507620D01*
X21733214Y18555239D01*
X22590357Y18555239D02*
X22685595Y18507620D01*
X22876071Y18507620D01*
X22971309Y18555239D01*
X23018928Y18650477D01*
X23018928Y18698096D01*
X22971309Y18793334D01*
X22876071Y18840953D01*
X22733214Y18840953D01*
X22637976Y18888572D01*
X22590357Y18983810D01*
X22590357Y19031429D01*
X22637976Y19126667D01*
X22733214Y19174286D01*
X22876071Y19174286D01*
X22971309Y19126667D01*
X23447500Y18602858D02*
X23495119Y18555239D01*
X23447500Y18507620D01*
X23399880Y18555239D01*
X23447500Y18602858D01*
X23447500Y18507620D01*
X23447500Y19126667D02*
X23495119Y19079048D01*
X23447500Y19031429D01*
X23399880Y19079048D01*
X23447500Y19126667D01*
X23447500Y19031429D01*
X24637976Y19555239D02*
X23780833Y18269524D01*
X25685595Y19555239D02*
X24828452Y18269524D01*
X25876071Y19174286D02*
X26257023Y19174286D01*
X26018928Y19507620D02*
X26018928Y18650477D01*
X26066547Y18555239D01*
X26161785Y18507620D01*
X26257023Y18507620D01*
X26590357Y18507620D02*
X26590357Y19507620D01*
X27018928Y18507620D02*
X27018928Y19031429D01*
X26971309Y19126667D01*
X26876071Y19174286D01*
X26733214Y19174286D01*
X26637976Y19126667D01*
X26590357Y19079048D01*
X27876071Y18555239D02*
X27780833Y18507620D01*
X27590357Y18507620D01*
X27495119Y18555239D01*
X27447500Y18650477D01*
X27447500Y19031429D01*
X27495119Y19126667D01*
X27590357Y19174286D01*
X27780833Y19174286D01*
X27876071Y19126667D01*
X27923690Y19031429D01*
X27923690Y18936191D01*
X27447500Y18840953D01*
X28352261Y18507620D02*
X28352261Y19174286D01*
X28352261Y18983810D02*
X28399880Y19079048D01*
X28447500Y19126667D01*
X28542738Y19174286D01*
X28637976Y19174286D01*
X29352261Y18555239D02*
X29257023Y18507620D01*
X29066547Y18507620D01*
X28971309Y18555239D01*
X28923690Y18650477D01*
X28923690Y19031429D01*
X28971309Y19126667D01*
X29066547Y19174286D01*
X29257023Y19174286D01*
X29352261Y19126667D01*
X29399880Y19031429D01*
X29399880Y18936191D01*
X28923690Y18840953D01*
X29828452Y18602858D02*
X29876071Y18555239D01*
X29828452Y18507620D01*
X29780833Y18555239D01*
X29828452Y18602858D01*
X29828452Y18507620D01*
X30447500Y18507620D02*
X30352261Y18555239D01*
X30304642Y18602858D01*
X30257023Y18698096D01*
X30257023Y18983810D01*
X30304642Y19079048D01*
X30352261Y19126667D01*
X30447500Y19174286D01*
X30590357Y19174286D01*
X30685595Y19126667D01*
X30733214Y19079048D01*
X30780833Y18983810D01*
X30780833Y18698096D01*
X30733214Y18602858D01*
X30685595Y18555239D01*
X30590357Y18507620D01*
X30447500Y18507620D01*
X31637976Y19174286D02*
X31637976Y18507620D01*
X31209404Y19174286D02*
X31209404Y18650477D01*
X31257023Y18555239D01*
X31352261Y18507620D01*
X31495119Y18507620D01*
X31590357Y18555239D01*
X31637976Y18602858D01*
X32542738Y19174286D02*
X32542738Y18364762D01*
X32495119Y18269524D01*
X32447500Y18221905D01*
X32352261Y18174286D01*
X32209404Y18174286D01*
X32114166Y18221905D01*
X32542738Y18555239D02*
X32447500Y18507620D01*
X32257023Y18507620D01*
X32161785Y18555239D01*
X32114166Y18602858D01*
X32066547Y18698096D01*
X32066547Y18983810D01*
X32114166Y19079048D01*
X32161785Y19126667D01*
X32257023Y19174286D01*
X32447500Y19174286D01*
X32542738Y19126667D01*
X33018928Y18507620D02*
X33018928Y19507620D01*
X33447500Y18507620D02*
X33447500Y19031429D01*
X33399880Y19126667D01*
X33304642Y19174286D01*
X33161785Y19174286D01*
X33066547Y19126667D01*
X33018928Y19079048D01*
X33780833Y19174286D02*
X34161785Y19174286D01*
X33923690Y19507620D02*
X33923690Y18650477D01*
X33971309Y18555239D01*
X34066547Y18507620D01*
X34161785Y18507620D01*
X34923690Y18507620D02*
X34923690Y19031429D01*
X34876071Y19126667D01*
X34780833Y19174286D01*
X34590357Y19174286D01*
X34495119Y19126667D01*
X34923690Y18555239D02*
X34828452Y18507620D01*
X34590357Y18507620D01*
X34495119Y18555239D01*
X34447500Y18650477D01*
X34447500Y18745715D01*
X34495119Y18840953D01*
X34590357Y18888572D01*
X34828452Y18888572D01*
X34923690Y18936191D01*
X35399880Y18602858D02*
X35447500Y18555239D01*
X35399880Y18507620D01*
X35352261Y18555239D01*
X35399880Y18602858D01*
X35399880Y18507620D01*
X35876071Y18507620D02*
X35876071Y19507620D01*
X35876071Y19126667D02*
X35971309Y19174286D01*
X36161785Y19174286D01*
X36257023Y19126667D01*
X36304642Y19079048D01*
X36352261Y18983810D01*
X36352261Y18698096D01*
X36304642Y18602858D01*
X36257023Y18555239D01*
X36161785Y18507620D01*
X35971309Y18507620D01*
X35876071Y18555239D01*
X37161785Y18555239D02*
X37066547Y18507620D01*
X36876071Y18507620D01*
X36780833Y18555239D01*
X36733214Y18650477D01*
X36733214Y19031429D01*
X36780833Y19126667D01*
X36876071Y19174286D01*
X37066547Y19174286D01*
X37161785Y19126667D01*
X37209404Y19031429D01*
X37209404Y18936191D01*
X36733214Y18840953D01*
X38352261Y19555239D02*
X37495119Y18269524D01*
X39114166Y18507620D02*
X39114166Y19031429D01*
X39066547Y19126667D01*
X38971309Y19174286D01*
X38780833Y19174286D01*
X38685595Y19126667D01*
X39114166Y18555239D02*
X39018928Y18507620D01*
X38780833Y18507620D01*
X38685595Y18555239D01*
X38637976Y18650477D01*
X38637976Y18745715D01*
X38685595Y18840953D01*
X38780833Y18888572D01*
X39018928Y18888572D01*
X39114166Y18936191D01*
X40304642Y19555239D02*
X39447500Y18269524D01*
X41066547Y19174286D02*
X41066547Y18364762D01*
X41018928Y18269524D01*
X40971309Y18221905D01*
X40876071Y18174286D01*
X40733214Y18174286D01*
X40637976Y18221905D01*
X41066547Y18555239D02*
X40971309Y18507620D01*
X40780833Y18507620D01*
X40685595Y18555239D01*
X40637976Y18602858D01*
X40590357Y18698096D01*
X40590357Y18983810D01*
X40637976Y19079048D01*
X40685595Y19126667D01*
X40780833Y19174286D01*
X40971309Y19174286D01*
X41066547Y19126667D01*
X41971309Y18507620D02*
X41971309Y19031429D01*
X41923690Y19126667D01*
X41828452Y19174286D01*
X41637976Y19174286D01*
X41542738Y19126667D01*
X41971309Y18555239D02*
X41876071Y18507620D01*
X41637976Y18507620D01*
X41542738Y18555239D01*
X41495119Y18650477D01*
X41495119Y18745715D01*
X41542738Y18840953D01*
X41637976Y18888572D01*
X41876071Y18888572D01*
X41971309Y18936191D01*
X42447500Y18507620D02*
X42447500Y19174286D01*
X42447500Y19079048D02*
X42495119Y19126667D01*
X42590357Y19174286D01*
X42733214Y19174286D01*
X42828452Y19126667D01*
X42876071Y19031429D01*
X42876071Y18507620D01*
X42876071Y19031429D02*
X42923690Y19126667D01*
X43018928Y19174286D01*
X43161785Y19174286D01*
X43257023Y19126667D01*
X43304642Y19031429D01*
X43304642Y18507620D01*
X44161785Y18555239D02*
X44066547Y18507620D01*
X43876071Y18507620D01*
X43780833Y18555239D01*
X43733214Y18650477D01*
X43733214Y19031429D01*
X43780833Y19126667D01*
X43876071Y19174286D01*
X44066547Y19174286D01*
X44161785Y19126667D01*
X44209404Y19031429D01*
X44209404Y18936191D01*
X43733214Y18840953D01*
X44637976Y18888572D02*
X45399880Y18888572D01*
X45876071Y18507620D02*
X45876071Y19507620D01*
X45876071Y19126667D02*
X45971309Y19174286D01*
X46161785Y19174286D01*
X46257023Y19126667D01*
X46304642Y19079048D01*
X46352261Y18983810D01*
X46352261Y18698096D01*
X46304642Y18602858D01*
X46257023Y18555239D01*
X46161785Y18507620D01*
X45971309Y18507620D01*
X45876071Y18555239D01*
X46923690Y18507620D02*
X46828452Y18555239D01*
X46780833Y18602858D01*
X46733214Y18698096D01*
X46733214Y18983810D01*
X46780833Y19079048D01*
X46828452Y19126667D01*
X46923690Y19174286D01*
X47066547Y19174286D01*
X47161785Y19126667D01*
X47209404Y19079048D01*
X47257023Y18983810D01*
X47257023Y18698096D01*
X47209404Y18602858D01*
X47161785Y18555239D01*
X47066547Y18507620D01*
X46923690Y18507620D01*
X47590357Y19174286D02*
X47828452Y18507620D01*
X48066547Y19174286D02*
X47828452Y18507620D01*
X47733214Y18269524D01*
X47685595Y18221905D01*
X47590357Y18174286D01*
X48447500Y18888572D02*
X49209404Y18888572D01*
X50114166Y18555239D02*
X50018928Y18507620D01*
X49828452Y18507620D01*
X49733214Y18555239D01*
X49685595Y18602858D01*
X49637976Y18698096D01*
X49637976Y18983810D01*
X49685595Y19079048D01*
X49733214Y19126667D01*
X49828452Y19174286D01*
X50018928Y19174286D01*
X50114166Y19126667D01*
X50971309Y18507620D02*
X50971309Y19031429D01*
X50923690Y19126667D01*
X50828452Y19174286D01*
X50637976Y19174286D01*
X50542738Y19126667D01*
X50971309Y18555239D02*
X50876071Y18507620D01*
X50637976Y18507620D01*
X50542738Y18555239D01*
X50495119Y18650477D01*
X50495119Y18745715D01*
X50542738Y18840953D01*
X50637976Y18888572D01*
X50876071Y18888572D01*
X50971309Y18936191D01*
X51447500Y19174286D02*
X51447500Y18174286D01*
X51447500Y19126667D02*
X51542738Y19174286D01*
X51733214Y19174286D01*
X51828452Y19126667D01*
X51876071Y19079048D01*
X51923690Y18983810D01*
X51923690Y18698096D01*
X51876071Y18602858D01*
X51828452Y18555239D01*
X51733214Y18507620D01*
X51542738Y18507620D01*
X51447500Y18555239D01*
X52209404Y19174286D02*
X52590357Y19174286D01*
X52352261Y19507620D02*
X52352261Y18650477D01*
X52399880Y18555239D01*
X52495119Y18507620D01*
X52590357Y18507620D01*
X53352261Y19174286D02*
X53352261Y18507620D01*
X52923690Y19174286D02*
X52923690Y18650477D01*
X52971309Y18555239D01*
X53066547Y18507620D01*
X53209404Y18507620D01*
X53304642Y18555239D01*
X53352261Y18602858D01*
X53828452Y18507620D02*
X53828452Y19174286D01*
X53828452Y18983810D02*
X53876071Y19079048D01*
X53923690Y19126667D01*
X54018928Y19174286D01*
X54114166Y19174286D01*
X54828452Y18555239D02*
X54733214Y18507620D01*
X54542738Y18507620D01*
X54447500Y18555239D01*
X54399880Y18650477D01*
X54399880Y19031429D01*
X54447500Y19126667D01*
X54542738Y19174286D01*
X54733214Y19174286D01*
X54828452Y19126667D01*
X54876071Y19031429D01*
X54876071Y18936191D01*
X54399880Y18840953D01*
X55304642Y18888572D02*
X56066547Y18888572D01*
X56971309Y18555239D02*
X56876071Y18507620D01*
X56685595Y18507620D01*
X56590357Y18555239D01*
X56542738Y18602858D01*
X56495119Y18698096D01*
X56495119Y18983810D01*
X56542738Y19079048D01*
X56590357Y19126667D01*
X56685595Y19174286D01*
X56876071Y19174286D01*
X56971309Y19126667D01*
X57828452Y18507620D02*
X57828452Y19031429D01*
X57780833Y19126667D01*
X57685595Y19174286D01*
X57495119Y19174286D01*
X57399880Y19126667D01*
X57828452Y18555239D02*
X57733214Y18507620D01*
X57495119Y18507620D01*
X57399880Y18555239D01*
X57352261Y18650477D01*
X57352261Y18745715D01*
X57399880Y18840953D01*
X57495119Y18888572D01*
X57733214Y18888572D01*
X57828452Y18936191D01*
X58304642Y18507620D02*
X58304642Y19174286D01*
X58304642Y18983810D02*
X58352261Y19079048D01*
X58399880Y19126667D01*
X58495119Y19174286D01*
X58590357Y19174286D01*
X58780833Y19174286D02*
X59161785Y19174286D01*
X58923690Y19507620D02*
X58923690Y18650477D01*
X58971309Y18555239D01*
X59066547Y18507620D01*
X59161785Y18507620D01*
X59495119Y18507620D02*
X59495119Y19174286D01*
X59495119Y18983810D02*
X59542738Y19079048D01*
X59590357Y19126667D01*
X59685595Y19174286D01*
X59780833Y19174286D01*
X60114166Y18507620D02*
X60114166Y19174286D01*
X60114166Y19507620D02*
X60066547Y19460000D01*
X60114166Y19412381D01*
X60161785Y19460000D01*
X60114166Y19507620D01*
X60114166Y19412381D01*
X61018928Y18507620D02*
X61018928Y19507620D01*
X61018928Y18555239D02*
X60923690Y18507620D01*
X60733214Y18507620D01*
X60637976Y18555239D01*
X60590357Y18602858D01*
X60542738Y18698096D01*
X60542738Y18983810D01*
X60590357Y19079048D01*
X60637976Y19126667D01*
X60733214Y19174286D01*
X60923690Y19174286D01*
X61018928Y19126667D01*
X61923690Y19174286D02*
X61923690Y18364762D01*
X61876071Y18269524D01*
X61828452Y18221905D01*
X61733214Y18174286D01*
X61590357Y18174286D01*
X61495119Y18221905D01*
X61923690Y18555239D02*
X61828452Y18507620D01*
X61637976Y18507620D01*
X61542738Y18555239D01*
X61495119Y18602858D01*
X61447500Y18698096D01*
X61447500Y18983810D01*
X61495119Y19079048D01*
X61542738Y19126667D01*
X61637976Y19174286D01*
X61828452Y19174286D01*
X61923690Y19126667D01*
X62780833Y18555239D02*
X62685595Y18507620D01*
X62495119Y18507620D01*
X62399880Y18555239D01*
X62352261Y18650477D01*
X62352261Y19031429D01*
X62399880Y19126667D01*
X62495119Y19174286D01*
X62685595Y19174286D01*
X62780833Y19126667D01*
X62828452Y19031429D01*
X62828452Y18936191D01*
X62352261Y18840953D01*
X20209404Y16240000D02*
X20114166Y16287620D01*
X19971309Y16287620D01*
X19828452Y16240000D01*
X19733214Y16144762D01*
X19685595Y16049524D01*
X19637976Y15859048D01*
X19637976Y15716191D01*
X19685595Y15525715D01*
X19733214Y15430477D01*
X19828452Y15335239D01*
X19971309Y15287620D01*
X20066547Y15287620D01*
X20209404Y15335239D01*
X20257023Y15382858D01*
X20257023Y15716191D01*
X20066547Y15716191D01*
X21018928Y15811429D02*
X21161785Y15763810D01*
X21209404Y15716191D01*
X21257023Y15620953D01*
X21257023Y15478096D01*
X21209404Y15382858D01*
X21161785Y15335239D01*
X21066547Y15287620D01*
X20685595Y15287620D01*
X20685595Y16287620D01*
X21018928Y16287620D01*
X21114166Y16240000D01*
X21161785Y16192381D01*
X21209404Y16097143D01*
X21209404Y16001905D01*
X21161785Y15906667D01*
X21114166Y15859048D01*
X21018928Y15811429D01*
X20685595Y15811429D01*
X22447500Y15287620D02*
X22447500Y16287620D01*
X22923690Y15954286D02*
X22923690Y15287620D01*
X22923690Y15859048D02*
X22971309Y15906667D01*
X23066547Y15954286D01*
X23209404Y15954286D01*
X23304642Y15906667D01*
X23352261Y15811429D01*
X23352261Y15287620D01*
X23685595Y15954286D02*
X24066547Y15954286D01*
X23828452Y16287620D02*
X23828452Y15430477D01*
X23876071Y15335239D01*
X23971309Y15287620D01*
X24066547Y15287620D01*
X24780833Y15335239D02*
X24685595Y15287620D01*
X24495119Y15287620D01*
X24399880Y15335239D01*
X24352261Y15430477D01*
X24352261Y15811429D01*
X24399880Y15906667D01*
X24495119Y15954286D01*
X24685595Y15954286D01*
X24780833Y15906667D01*
X24828452Y15811429D01*
X24828452Y15716191D01*
X24352261Y15620953D01*
X25257023Y15287620D02*
X25257023Y15954286D01*
X25257023Y15763810D02*
X25304642Y15859048D01*
X25352261Y15906667D01*
X25447500Y15954286D01*
X25542738Y15954286D01*
X26304642Y15335239D02*
X26209404Y15287620D01*
X26018928Y15287620D01*
X25923690Y15335239D01*
X25876071Y15382858D01*
X25828452Y15478096D01*
X25828452Y15763810D01*
X25876071Y15859048D01*
X25923690Y15906667D01*
X26018928Y15954286D01*
X26209404Y15954286D01*
X26304642Y15906667D01*
X27114166Y15335239D02*
X27018928Y15287620D01*
X26828452Y15287620D01*
X26733214Y15335239D01*
X26685595Y15430477D01*
X26685595Y15811429D01*
X26733214Y15906667D01*
X26828452Y15954286D01*
X27018928Y15954286D01*
X27114166Y15906667D01*
X27161785Y15811429D01*
X27161785Y15716191D01*
X26685595Y15620953D01*
X27590357Y15954286D02*
X27590357Y14954286D01*
X27590357Y15906667D02*
X27685595Y15954286D01*
X27876071Y15954286D01*
X27971309Y15906667D01*
X28018928Y15859048D01*
X28066547Y15763810D01*
X28066547Y15478096D01*
X28018928Y15382858D01*
X27971309Y15335239D01*
X27876071Y15287620D01*
X27685595Y15287620D01*
X27590357Y15335239D01*
X28352261Y15954286D02*
X28733214Y15954286D01*
X28495119Y16287620D02*
X28495119Y15430477D01*
X28542738Y15335239D01*
X28637976Y15287620D01*
X28733214Y15287620D01*
X29209404Y15287620D02*
X29114166Y15335239D01*
X29066547Y15382858D01*
X29018928Y15478096D01*
X29018928Y15763810D01*
X29066547Y15859048D01*
X29114166Y15906667D01*
X29209404Y15954286D01*
X29352261Y15954286D01*
X29447500Y15906667D01*
X29495119Y15859048D01*
X29542738Y15763810D01*
X29542738Y15478096D01*
X29495119Y15382858D01*
X29447500Y15335239D01*
X29352261Y15287620D01*
X29209404Y15287620D01*
X29971309Y15287620D02*
X29971309Y15954286D01*
X29971309Y15763810D02*
X30018928Y15859048D01*
X30066547Y15906667D01*
X30161785Y15954286D01*
X30257023Y15954286D01*
X31352261Y15287620D02*
X31352261Y16287620D01*
X31352261Y15906667D02*
X31447500Y15954286D01*
X31637976Y15954286D01*
X31733214Y15906667D01*
X31780833Y15859048D01*
X31828452Y15763810D01*
X31828452Y15478096D01*
X31780833Y15382858D01*
X31733214Y15335239D01*
X31637976Y15287620D01*
X31447500Y15287620D01*
X31352261Y15335239D01*
X32161785Y15954286D02*
X32399880Y15287620D01*
X32637976Y15954286D02*
X32399880Y15287620D01*
X32304642Y15049524D01*
X32257023Y15001905D01*
X32161785Y14954286D01*
X33733214Y15335239D02*
X33876071Y15287620D01*
X34114166Y15287620D01*
X34209404Y15335239D01*
X34257023Y15382858D01*
X34304642Y15478096D01*
X34304642Y15573334D01*
X34257023Y15668572D01*
X34209404Y15716191D01*
X34114166Y15763810D01*
X33923690Y15811429D01*
X33828452Y15859048D01*
X33780833Y15906667D01*
X33733214Y16001905D01*
X33733214Y16097143D01*
X33780833Y16192381D01*
X33828452Y16240000D01*
X33923690Y16287620D01*
X34161785Y16287620D01*
X34304642Y16240000D01*
X35114166Y15335239D02*
X35018928Y15287620D01*
X34828452Y15287620D01*
X34733214Y15335239D01*
X34685595Y15430477D01*
X34685595Y15811429D01*
X34733214Y15906667D01*
X34828452Y15954286D01*
X35018928Y15954286D01*
X35114166Y15906667D01*
X35161785Y15811429D01*
X35161785Y15716191D01*
X34685595Y15620953D01*
X35590357Y15287620D02*
X35590357Y16287620D01*
X35590357Y15906667D02*
X35685595Y15954286D01*
X35876071Y15954286D01*
X35971309Y15906667D01*
X36018928Y15859048D01*
X36066547Y15763810D01*
X36066547Y15478096D01*
X36018928Y15382858D01*
X35971309Y15335239D01*
X35876071Y15287620D01*
X35685595Y15287620D01*
X35590357Y15335239D01*
X36923690Y15287620D02*
X36923690Y15811429D01*
X36876071Y15906667D01*
X36780833Y15954286D01*
X36590357Y15954286D01*
X36495119Y15906667D01*
X36923690Y15335239D02*
X36828452Y15287620D01*
X36590357Y15287620D01*
X36495119Y15335239D01*
X36447500Y15430477D01*
X36447500Y15525715D01*
X36495119Y15620953D01*
X36590357Y15668572D01*
X36828452Y15668572D01*
X36923690Y15716191D01*
X37352261Y15335239D02*
X37447500Y15287620D01*
X37637976Y15287620D01*
X37733214Y15335239D01*
X37780833Y15430477D01*
X37780833Y15478096D01*
X37733214Y15573334D01*
X37637976Y15620953D01*
X37495119Y15620953D01*
X37399880Y15668572D01*
X37352261Y15763810D01*
X37352261Y15811429D01*
X37399880Y15906667D01*
X37495119Y15954286D01*
X37637976Y15954286D01*
X37733214Y15906667D01*
X38066547Y15954286D02*
X38447500Y15954286D01*
X38209404Y16287620D02*
X38209404Y15430477D01*
X38257023Y15335239D01*
X38352261Y15287620D01*
X38447500Y15287620D01*
X38780833Y15287620D02*
X38780833Y15954286D01*
X38780833Y16287620D02*
X38733214Y16240000D01*
X38780833Y16192381D01*
X38828452Y16240000D01*
X38780833Y16287620D01*
X38780833Y16192381D01*
X39685595Y15287620D02*
X39685595Y15811429D01*
X39637976Y15906667D01*
X39542738Y15954286D01*
X39352261Y15954286D01*
X39257023Y15906667D01*
X39685595Y15335239D02*
X39590357Y15287620D01*
X39352261Y15287620D01*
X39257023Y15335239D01*
X39209404Y15430477D01*
X39209404Y15525715D01*
X39257023Y15620953D01*
X39352261Y15668572D01*
X39590357Y15668572D01*
X39685595Y15716191D01*
X40161785Y15954286D02*
X40161785Y15287620D01*
X40161785Y15859048D02*
X40209404Y15906667D01*
X40304642Y15954286D01*
X40447500Y15954286D01*
X40542738Y15906667D01*
X40590357Y15811429D01*
X40590357Y15287620D01*
X41780833Y15335239D02*
X41923690Y15287620D01*
X42161785Y15287620D01*
X42257023Y15335239D01*
X42304642Y15382858D01*
X42352261Y15478096D01*
X42352261Y15573334D01*
X42304642Y15668572D01*
X42257023Y15716191D01*
X42161785Y15763810D01*
X41971309Y15811429D01*
X41876071Y15859048D01*
X41828452Y15906667D01*
X41780833Y16001905D01*
X41780833Y16097143D01*
X41828452Y16192381D01*
X41876071Y16240000D01*
X41971309Y16287620D01*
X42209404Y16287620D01*
X42352261Y16240000D01*
X42637976Y15954286D02*
X43018928Y15954286D01*
X42780833Y16287620D02*
X42780833Y15430477D01*
X42828452Y15335239D01*
X42923690Y15287620D01*
X43018928Y15287620D01*
X43780833Y15287620D02*
X43780833Y15811429D01*
X43733214Y15906667D01*
X43637976Y15954286D01*
X43447499Y15954286D01*
X43352261Y15906667D01*
X43780833Y15335239D02*
X43685595Y15287620D01*
X43447499Y15287620D01*
X43352261Y15335239D01*
X43304642Y15430477D01*
X43304642Y15525715D01*
X43352261Y15620953D01*
X43447499Y15668572D01*
X43685595Y15668572D01*
X43780833Y15716191D01*
X44685595Y15287620D02*
X44685595Y15811429D01*
X44637976Y15906667D01*
X44542738Y15954286D01*
X44352261Y15954286D01*
X44257023Y15906667D01*
X44685595Y15335239D02*
X44590357Y15287620D01*
X44352261Y15287620D01*
X44257023Y15335239D01*
X44209404Y15430477D01*
X44209404Y15525715D01*
X44257023Y15620953D01*
X44352261Y15668572D01*
X44590357Y15668572D01*
X44685595Y15716191D01*
X45590357Y15335239D02*
X45495119Y15287620D01*
X45304642Y15287620D01*
X45209404Y15335239D01*
X45161785Y15382858D01*
X45114166Y15478096D01*
X45114166Y15763810D01*
X45161785Y15859048D01*
X45209404Y15906667D01*
X45304642Y15954286D01*
X45495119Y15954286D01*
X45590357Y15906667D01*
X46018928Y15287620D02*
X46018928Y16287620D01*
X46114166Y15668572D02*
X46399880Y15287620D01*
X46399880Y15954286D02*
X46018928Y15573334D01*
X46780833Y15335239D02*
X46876071Y15287620D01*
X47066547Y15287620D01*
X47161785Y15335239D01*
X47209404Y15430477D01*
X47209404Y15478096D01*
X47161785Y15573334D01*
X47066547Y15620953D01*
X46923690Y15620953D01*
X46828452Y15668572D01*
X46780833Y15763810D01*
X46780833Y15811429D01*
X46828452Y15906667D01*
X46923690Y15954286D01*
X47066547Y15954286D01*
X47161785Y15906667D01*
X48685595Y14906667D02*
X48637976Y14954286D01*
X48542738Y15097143D01*
X48495119Y15192381D01*
X48447499Y15335239D01*
X48399880Y15573334D01*
X48399880Y15763810D01*
X48447499Y16001905D01*
X48495119Y16144762D01*
X48542738Y16240000D01*
X48637976Y16382858D01*
X48685595Y16430477D01*
X49685595Y15763810D02*
X49637976Y15811429D01*
X49542738Y15859048D01*
X49447499Y15859048D01*
X49352261Y15811429D01*
X49304642Y15763810D01*
X49257023Y15668572D01*
X49257023Y15573334D01*
X49304642Y15478096D01*
X49352261Y15430477D01*
X49447499Y15382858D01*
X49542738Y15382858D01*
X49637976Y15430477D01*
X49685595Y15478096D01*
X49685595Y15859048D02*
X49685595Y15478096D01*
X49733214Y15430477D01*
X49780833Y15430477D01*
X49876071Y15478096D01*
X49923690Y15573334D01*
X49923690Y15811429D01*
X49828452Y15954286D01*
X49685595Y16049524D01*
X49495119Y16097143D01*
X49304642Y16049524D01*
X49161785Y15954286D01*
X49066547Y15811429D01*
X49018928Y15620953D01*
X49066547Y15430477D01*
X49161785Y15287620D01*
X49304642Y15192381D01*
X49495119Y15144762D01*
X49685595Y15192381D01*
X49828452Y15287620D01*
X50780833Y15287620D02*
X50780833Y16287620D01*
X50780833Y15335239D02*
X50685595Y15287620D01*
X50495119Y15287620D01*
X50399880Y15335239D01*
X50352261Y15382858D01*
X50304642Y15478096D01*
X50304642Y15763810D01*
X50352261Y15859048D01*
X50399880Y15906667D01*
X50495119Y15954286D01*
X50685595Y15954286D01*
X50780833Y15906667D01*
X51257023Y15287620D02*
X51257023Y15954286D01*
X51257023Y16287620D02*
X51209404Y16240000D01*
X51257023Y16192381D01*
X51304642Y16240000D01*
X51257023Y16287620D01*
X51257023Y16192381D01*
X52161785Y15335239D02*
X52066547Y15287620D01*
X51876071Y15287620D01*
X51780833Y15335239D01*
X51733214Y15382858D01*
X51685595Y15478096D01*
X51685595Y15763810D01*
X51733214Y15859048D01*
X51780833Y15906667D01*
X51876071Y15954286D01*
X52066547Y15954286D01*
X52161785Y15906667D01*
X52733214Y15287620D02*
X52637976Y15335239D01*
X52590357Y15382858D01*
X52542738Y15478096D01*
X52542738Y15763810D01*
X52590357Y15859048D01*
X52637976Y15906667D01*
X52733214Y15954286D01*
X52876071Y15954286D01*
X52971309Y15906667D01*
X53018928Y15859048D01*
X53066547Y15763810D01*
X53066547Y15478096D01*
X53018928Y15382858D01*
X52971309Y15335239D01*
X52876071Y15287620D01*
X52733214Y15287620D01*
X53495119Y15954286D02*
X53495119Y15287620D01*
X53495119Y15859048D02*
X53542738Y15906667D01*
X53637976Y15954286D01*
X53780833Y15954286D01*
X53876071Y15906667D01*
X53923690Y15811429D01*
X53923690Y15287620D01*
X54304642Y15287620D02*
X54828452Y15954286D01*
X54304642Y15954286D02*
X54828452Y15287620D01*
X55114166Y14906667D02*
X55161785Y14954286D01*
X55257023Y15097143D01*
X55304642Y15192381D01*
X55352261Y15335239D01*
X55399880Y15573334D01*
X55399880Y15763810D01*
X55352261Y16001905D01*
X55304642Y16144762D01*
X55257023Y16240000D01*
X55161785Y16382858D01*
X55114166Y16430477D01*
X20257023Y13677620D02*
X19923690Y14153810D01*
X19685595Y13677620D02*
X19685595Y14677620D01*
X20066547Y14677620D01*
X20161785Y14630000D01*
X20209404Y14582381D01*
X20257023Y14487143D01*
X20257023Y14344286D01*
X20209404Y14249048D01*
X20161785Y14201429D01*
X20066547Y14153810D01*
X19685595Y14153810D01*
X20685595Y14201429D02*
X21018928Y14201429D01*
X21161785Y13677620D02*
X20685595Y13677620D01*
X20685595Y14677620D01*
X21161785Y14677620D01*
X21447500Y14677620D02*
X21780833Y13677620D01*
X22114166Y14677620D01*
X22399880Y14582381D02*
X22447500Y14630000D01*
X22542738Y14677620D01*
X22780833Y14677620D01*
X22876071Y14630000D01*
X22923690Y14582381D01*
X22971309Y14487143D01*
X22971309Y14391905D01*
X22923690Y14249048D01*
X22352261Y13677620D01*
X22971309Y13677620D01*
X24447500Y13296667D02*
X24399880Y13344286D01*
X24304642Y13487143D01*
X24257023Y13582381D01*
X24209404Y13725239D01*
X24161785Y13963334D01*
X24161785Y14153810D01*
X24209404Y14391905D01*
X24257023Y14534762D01*
X24304642Y14630000D01*
X24399880Y14772858D01*
X24447500Y14820477D01*
X24780833Y14582381D02*
X24828452Y14630000D01*
X24923690Y14677620D01*
X25161785Y14677620D01*
X25257023Y14630000D01*
X25304642Y14582381D01*
X25352261Y14487143D01*
X25352261Y14391905D01*
X25304642Y14249048D01*
X24733214Y13677620D01*
X25352261Y13677620D01*
X25971309Y14677620D02*
X26066547Y14677620D01*
X26161785Y14630000D01*
X26209404Y14582381D01*
X26257023Y14487143D01*
X26304642Y14296667D01*
X26304642Y14058572D01*
X26257023Y13868096D01*
X26209404Y13772858D01*
X26161785Y13725239D01*
X26066547Y13677620D01*
X25971309Y13677620D01*
X25876071Y13725239D01*
X25828452Y13772858D01*
X25780833Y13868096D01*
X25733214Y14058572D01*
X25733214Y14296667D01*
X25780833Y14487143D01*
X25828452Y14582381D01*
X25876071Y14630000D01*
X25971309Y14677620D01*
X26685595Y14582381D02*
X26733214Y14630000D01*
X26828452Y14677620D01*
X27066547Y14677620D01*
X27161785Y14630000D01*
X27209404Y14582381D01*
X27257023Y14487143D01*
X27257023Y14391905D01*
X27209404Y14249048D01*
X26637976Y13677620D01*
X27257023Y13677620D01*
X27637976Y14582381D02*
X27685595Y14630000D01*
X27780833Y14677620D01*
X28018928Y14677620D01*
X28114166Y14630000D01*
X28161785Y14582381D01*
X28209404Y14487143D01*
X28209404Y14391905D01*
X28161785Y14249048D01*
X27590357Y13677620D01*
X28209404Y13677620D01*
X28637976Y14058572D02*
X29399880Y14058572D01*
X30399880Y13677620D02*
X29828452Y13677620D01*
X30114166Y13677620D02*
X30114166Y14677620D01*
X30018928Y14534762D01*
X29923690Y14439524D01*
X29828452Y14391905D01*
X31352261Y13677620D02*
X30780833Y13677620D01*
X31066547Y13677620D02*
X31066547Y14677620D01*
X30971309Y14534762D01*
X30876071Y14439524D01*
X30780833Y14391905D01*
X31780833Y14058572D02*
X32542738Y14058572D01*
X33542738Y13677620D02*
X32971309Y13677620D01*
X33257023Y13677620D02*
X33257023Y14677620D01*
X33161785Y14534762D01*
X33066547Y14439524D01*
X32971309Y14391905D01*
X34018928Y13677620D02*
X34209404Y13677620D01*
X34304642Y13725239D01*
X34352261Y13772858D01*
X34447500Y13915715D01*
X34495119Y14106191D01*
X34495119Y14487143D01*
X34447500Y14582381D01*
X34399880Y14630000D01*
X34304642Y14677620D01*
X34114166Y14677620D01*
X34018928Y14630000D01*
X33971309Y14582381D01*
X33923690Y14487143D01*
X33923690Y14249048D01*
X33971309Y14153810D01*
X34018928Y14106191D01*
X34114166Y14058572D01*
X34304642Y14058572D01*
X34399880Y14106191D01*
X34447500Y14153810D01*
X34495119Y14249048D01*
X34828452Y13296667D02*
X34876071Y13344286D01*
X34971309Y13487143D01*
X35018928Y13582381D01*
X35066547Y13725239D01*
X35114166Y13963334D01*
X35114166Y14153810D01*
X35066547Y14391905D01*
X35018928Y14534762D01*
X34971309Y14630000D01*
X34876071Y14772858D01*
X34828452Y14820477D01*
X45958306Y55816702D02*
X45752109Y55697654D01*
X45037824Y56934833D01*
X45244020Y57053881D01*
X45664502Y56801775D02*
X45994417Y56992251D01*
X46121554Y56295853D02*
X45692982Y57038161D01*
X45686602Y57144449D01*
X45745272Y57233307D01*
X45827750Y57280926D01*
X46740143Y56652996D02*
X46633855Y56646616D01*
X46544997Y56705285D01*
X46116425Y57447593D01*
X47441211Y57057758D02*
X47179307Y57511390D01*
X47090448Y57570059D01*
X46984160Y57563680D01*
X46819203Y57468442D01*
X46760534Y57379583D01*
X47417402Y57098997D02*
X47358733Y57010139D01*
X47152536Y56891091D01*
X47046248Y56884712D01*
X46957390Y56943381D01*
X46909771Y57025859D01*
X46903391Y57132147D01*
X46962060Y57221006D01*
X47168257Y57340053D01*
X47226926Y57428912D01*
X47788556Y57313283D02*
X47894844Y57319663D01*
X48059801Y57414901D01*
X48118470Y57503759D01*
X48112090Y57610047D01*
X48088281Y57651287D01*
X47999422Y57709956D01*
X47893134Y57703576D01*
X47769416Y57632147D01*
X47663128Y57625768D01*
X47574270Y57684437D01*
X47550460Y57725676D01*
X47544081Y57831964D01*
X47602750Y57920823D01*
X47726468Y57992251D01*
X47832756Y57998631D01*
X48554673Y57700615D02*
X48054673Y58566641D01*
X48925826Y57914901D02*
X48663922Y58368533D01*
X48575063Y58427202D01*
X48468775Y58420823D01*
X48345057Y58349394D01*
X48286388Y58260536D01*
X48268958Y58195487D01*
X49422407Y57816702D02*
X49628604Y57935750D01*
X48914318Y59172929D01*
X48708122Y59053881D01*
X47617823Y56180429D02*
X47998776Y55520600D01*
X48068495Y55780795D02*
X47998776Y55520600D01*
X47738580Y55590319D01*
D11*
X95200000Y49471429D02*
X95342857Y49757143D01*
X95342857Y50185715D01*
X95200000Y50614286D01*
X94914285Y50900000D01*
X94628571Y51042858D01*
X94057142Y51185715D01*
X93628571Y51185715D01*
X93057142Y51042858D01*
X92771428Y50900000D01*
X92485714Y50614286D01*
X92342857Y50185715D01*
X92342857Y49900000D01*
X92485714Y49471429D01*
X92628571Y49328572D01*
X93628571Y49328572D01*
X93628571Y49900000D01*
X93914285Y47042858D02*
X93771428Y46614286D01*
X93628571Y46471429D01*
X93342857Y46328572D01*
X92914285Y46328572D01*
X92628571Y46471429D01*
X92485714Y46614286D01*
X92342857Y46900000D01*
X92342857Y48042858D01*
X95342857Y48042858D01*
X95342857Y47042858D01*
X95200000Y46757143D01*
X95057142Y46614286D01*
X94771428Y46471429D01*
X94485714Y46471429D01*
X94200000Y46614286D01*
X94057142Y46757143D01*
X93914285Y47042858D01*
X93914285Y48042858D01*
X92342857Y42757143D02*
X95342857Y42757143D01*
X94342857Y41328572D02*
X92342857Y41328572D01*
X94057142Y41328572D02*
X94200000Y41185715D01*
X94342857Y40900000D01*
X94342857Y40471429D01*
X94200000Y40185715D01*
X93914285Y40042858D01*
X92342857Y40042858D01*
X94342857Y39042858D02*
X94342857Y37900000D01*
X95342857Y38614286D02*
X92771428Y38614286D01*
X92485714Y38471429D01*
X92342857Y38185715D01*
X92342857Y37900000D01*
X92485714Y35757143D02*
X92342857Y36042858D01*
X92342857Y36614286D01*
X92485714Y36900000D01*
X92771428Y37042858D01*
X93914285Y37042858D01*
X94200000Y36900000D01*
X94342857Y36614286D01*
X94342857Y36042858D01*
X94200000Y35757143D01*
X93914285Y35614286D01*
X93628571Y35614286D01*
X93342857Y37042858D01*
X92342857Y34328572D02*
X94342857Y34328572D01*
X93771428Y34328572D02*
X94057142Y34185715D01*
X94200000Y34042858D01*
X94342857Y33757143D01*
X94342857Y33471429D01*
X92485714Y31185715D02*
X92342857Y31471429D01*
X92342857Y32042858D01*
X92485714Y32328572D01*
X92628571Y32471429D01*
X92914285Y32614286D01*
X93771428Y32614286D01*
X94057142Y32471429D01*
X94200000Y32328572D01*
X94342857Y32042858D01*
X94342857Y31471429D01*
X94200000Y31185715D01*
X92485714Y28757143D02*
X92342857Y29042858D01*
X92342857Y29614286D01*
X92485714Y29900000D01*
X92771428Y30042858D01*
X93914285Y30042858D01*
X94200000Y29900000D01*
X94342857Y29614286D01*
X94342857Y29042858D01*
X94200000Y28757143D01*
X93914285Y28614286D01*
X93628571Y28614286D01*
X93342857Y30042858D01*
X94342857Y27328572D02*
X91342857Y27328572D01*
X94200000Y27328572D02*
X94342857Y27042858D01*
X94342857Y26471429D01*
X94200000Y26185715D01*
X94057142Y26042858D01*
X93771428Y25900000D01*
X92914285Y25900000D01*
X92628571Y26042858D01*
X92485714Y26185715D01*
X92342857Y26471429D01*
X92342857Y27042858D01*
X92485714Y27328572D01*
X94342857Y25042858D02*
X94342857Y23900000D01*
X95342857Y24614286D02*
X92771428Y24614286D01*
X92485714Y24471429D01*
X92342857Y24185715D01*
X92342857Y23900000D01*
X92342857Y22471429D02*
X92485714Y22757143D01*
X92628571Y22900000D01*
X92914285Y23042858D01*
X93771428Y23042858D01*
X94057142Y22900000D01*
X94200000Y22757143D01*
X94342857Y22471429D01*
X94342857Y22042858D01*
X94200000Y21757143D01*
X94057142Y21614286D01*
X93771428Y21471429D01*
X92914285Y21471429D01*
X92628571Y21614286D01*
X92485714Y21757143D01*
X92342857Y22042858D01*
X92342857Y22471429D01*
X92342857Y20185715D02*
X94342857Y20185715D01*
X93771428Y20185715D02*
X94057142Y20042858D01*
X94200000Y19900000D01*
X94342857Y19614286D01*
X94342857Y19328572D01*
D10*
X79311869Y10353875D02*
X79192822Y10147678D01*
X77955643Y10861964D01*
X78074690Y11068160D01*
X79213671Y10850456D02*
X78636320Y11183789D01*
X78718799Y11136170D02*
X78701369Y11201219D01*
X78707749Y11307507D01*
X78779177Y11431225D01*
X78868036Y11489894D01*
X78974324Y11483514D01*
X79427956Y11221609D01*
X78974324Y11483514D02*
X78915655Y11572373D01*
X78922035Y11678661D01*
X78993463Y11802379D01*
X79082321Y11861048D01*
X79188610Y11854668D01*
X79642242Y11592763D01*
X79951766Y12128874D02*
X79862907Y12070205D01*
X79797859Y12052775D01*
X79691570Y12059155D01*
X79444135Y12202012D01*
X79385466Y12290871D01*
X79368036Y12355919D01*
X79374415Y12462208D01*
X79445844Y12585925D01*
X79534702Y12644595D01*
X79599751Y12662024D01*
X79706039Y12655645D01*
X79953475Y12512787D01*
X80012144Y12423929D01*
X80029574Y12358880D01*
X80023194Y12252592D01*
X79951766Y12128874D01*
X80547004Y13159857D02*
X79680978Y13659857D01*
X80505765Y13183666D02*
X80499385Y13077378D01*
X80404147Y12912421D01*
X80315288Y12853752D01*
X80250240Y12836322D01*
X80143951Y12842702D01*
X79896516Y12985559D01*
X79837846Y13074417D01*
X79820417Y13139466D01*
X79826796Y13245754D01*
X79922035Y13410712D01*
X80010893Y13469381D01*
X80934336Y13925974D02*
X80927956Y13819686D01*
X80832718Y13654728D01*
X80743860Y13596059D01*
X80637572Y13602439D01*
X80307657Y13792915D01*
X80248988Y13881774D01*
X80255368Y13988062D01*
X80350606Y14153019D01*
X80439464Y14211688D01*
X80545752Y14205308D01*
X80628231Y14157689D01*
X80472614Y13697677D01*
X81454727Y14065412D02*
X81573774Y14271609D01*
X80336595Y14985894D01*
X80217547Y14779698D01*
X81591000Y13271920D02*
X82250829Y12890968D01*
X82181110Y13151163D02*
X82250829Y12890968D01*
X81990633Y12821249D01*
D12*
X88311904Y65557143D02*
X89611904Y65557143D01*
X88311904Y65042858D02*
X88992857Y65042858D01*
X89116666Y65100000D01*
X89178571Y65214286D01*
X89178571Y65385715D01*
X89116666Y65500000D01*
X89054761Y65557143D01*
X89178571Y64642858D02*
X89178571Y64185715D01*
X89611904Y64471429D02*
X88497619Y64471429D01*
X88373809Y64414286D01*
X88311904Y64300000D01*
X88311904Y64185715D01*
X89178571Y63957143D02*
X89178571Y63500000D01*
X89611904Y63785715D02*
X88497619Y63785715D01*
X88373809Y63728572D01*
X88311904Y63614286D01*
X88311904Y63500000D01*
X89178571Y63100000D02*
X87878571Y63100000D01*
X89116666Y63100000D02*
X89178571Y62985715D01*
X89178571Y62757143D01*
X89116666Y62642858D01*
X89054761Y62585715D01*
X88930952Y62528572D01*
X88559523Y62528572D01*
X88435714Y62585715D01*
X88373809Y62642858D01*
X88311904Y62757143D01*
X88311904Y62985715D01*
X88373809Y63100000D01*
X88373809Y62071429D02*
X88311904Y61957143D01*
X88311904Y61728572D01*
X88373809Y61614286D01*
X88497619Y61557143D01*
X88559523Y61557143D01*
X88683333Y61614286D01*
X88745238Y61728572D01*
X88745238Y61900000D01*
X88807142Y62014286D01*
X88930952Y62071429D01*
X88992857Y62071429D01*
X89116666Y62014286D01*
X89178571Y61900000D01*
X89178571Y61728572D01*
X89116666Y61614286D01*
X88435714Y61042858D02*
X88373809Y60985715D01*
X88311904Y61042858D01*
X88373809Y61100000D01*
X88435714Y61042858D01*
X88311904Y61042858D01*
X89116666Y61042858D02*
X89054761Y60985715D01*
X88992857Y61042858D01*
X89054761Y61100000D01*
X89116666Y61042858D01*
X88992857Y61042858D01*
X89673809Y59614286D02*
X88002380Y60642858D01*
X89673809Y58357143D02*
X88002380Y59385715D01*
X89178571Y58128572D02*
X89178571Y57671429D01*
X89611904Y57957143D02*
X88497619Y57957143D01*
X88373809Y57900000D01*
X88311904Y57785715D01*
X88311904Y57671429D01*
X88311904Y57271429D02*
X89611904Y57271429D01*
X88311904Y56757143D02*
X88992857Y56757143D01*
X89116666Y56814286D01*
X89178571Y56928572D01*
X89178571Y57100000D01*
X89116666Y57214286D01*
X89054761Y57271429D01*
X88373809Y55728572D02*
X88311904Y55842858D01*
X88311904Y56071429D01*
X88373809Y56185715D01*
X88497619Y56242858D01*
X88992857Y56242858D01*
X89116666Y56185715D01*
X89178571Y56071429D01*
X89178571Y55842858D01*
X89116666Y55728572D01*
X88992857Y55671429D01*
X88869047Y55671429D01*
X88745238Y56242858D01*
X88311904Y55157143D02*
X89178571Y55157143D01*
X88930952Y55157143D02*
X89054761Y55100000D01*
X89116666Y55042858D01*
X89178571Y54928572D01*
X89178571Y54814286D01*
X88373809Y53957143D02*
X88311904Y54071429D01*
X88311904Y54300000D01*
X88373809Y54414286D01*
X88497619Y54471429D01*
X88992857Y54471429D01*
X89116666Y54414286D01*
X89178571Y54300000D01*
X89178571Y54071429D01*
X89116666Y53957143D01*
X88992857Y53900000D01*
X88869047Y53900000D01*
X88745238Y54471429D01*
X88435714Y53385715D02*
X88373809Y53328572D01*
X88311904Y53385715D01*
X88373809Y53442858D01*
X88435714Y53385715D01*
X88311904Y53385715D01*
X88311904Y52642858D02*
X88373809Y52757143D01*
X88435714Y52814286D01*
X88559523Y52871429D01*
X88930952Y52871429D01*
X89054761Y52814286D01*
X89116666Y52757143D01*
X89178571Y52642858D01*
X89178571Y52471429D01*
X89116666Y52357143D01*
X89054761Y52300000D01*
X88930952Y52242858D01*
X88559523Y52242858D01*
X88435714Y52300000D01*
X88373809Y52357143D01*
X88311904Y52471429D01*
X88311904Y52642858D01*
X89178571Y51214286D02*
X88311904Y51214286D01*
X89178571Y51728572D02*
X88497619Y51728572D01*
X88373809Y51671429D01*
X88311904Y51557143D01*
X88311904Y51385715D01*
X88373809Y51271429D01*
X88435714Y51214286D01*
X89178571Y50128572D02*
X88126190Y50128572D01*
X88002380Y50185715D01*
X87940476Y50242858D01*
X87878571Y50357143D01*
X87878571Y50528572D01*
X87940476Y50642858D01*
X88373809Y50128572D02*
X88311904Y50242858D01*
X88311904Y50471429D01*
X88373809Y50585715D01*
X88435714Y50642858D01*
X88559523Y50700000D01*
X88930952Y50700000D01*
X89054761Y50642858D01*
X89116666Y50585715D01*
X89178571Y50471429D01*
X89178571Y50242858D01*
X89116666Y50128572D01*
X88311904Y49557143D02*
X89611904Y49557143D01*
X88311904Y49042858D02*
X88992857Y49042858D01*
X89116666Y49100000D01*
X89178571Y49214286D01*
X89178571Y49385715D01*
X89116666Y49500000D01*
X89054761Y49557143D01*
X89178571Y48642858D02*
X89178571Y48185715D01*
X89611904Y48471429D02*
X88497619Y48471429D01*
X88373809Y48414286D01*
X88311904Y48300000D01*
X88311904Y48185715D01*
X88311904Y47271429D02*
X88992857Y47271429D01*
X89116666Y47328572D01*
X89178571Y47442858D01*
X89178571Y47671429D01*
X89116666Y47785715D01*
X88373809Y47271429D02*
X88311904Y47385715D01*
X88311904Y47671429D01*
X88373809Y47785715D01*
X88497619Y47842858D01*
X88621428Y47842858D01*
X88745238Y47785715D01*
X88807142Y47671429D01*
X88807142Y47385715D01*
X88869047Y47271429D01*
X88435714Y46700000D02*
X88373809Y46642858D01*
X88311904Y46700000D01*
X88373809Y46757143D01*
X88435714Y46700000D01*
X88311904Y46700000D01*
X88311904Y46128572D02*
X89611904Y46128572D01*
X89116666Y46128572D02*
X89178571Y46014286D01*
X89178571Y45785715D01*
X89116666Y45671429D01*
X89054761Y45614286D01*
X88930952Y45557143D01*
X88559523Y45557143D01*
X88435714Y45614286D01*
X88373809Y45671429D01*
X88311904Y45785715D01*
X88311904Y46014286D01*
X88373809Y46128572D01*
X88373809Y44585715D02*
X88311904Y44700000D01*
X88311904Y44928572D01*
X88373809Y45042858D01*
X88497619Y45100000D01*
X88992857Y45100000D01*
X89116666Y45042858D01*
X89178571Y44928572D01*
X89178571Y44700000D01*
X89116666Y44585715D01*
X88992857Y44528572D01*
X88869047Y44528572D01*
X88745238Y45100000D01*
X89673809Y43157143D02*
X88002380Y44185715D01*
X88311904Y42242858D02*
X88992857Y42242858D01*
X89116666Y42300000D01*
X89178571Y42414286D01*
X89178571Y42642858D01*
X89116666Y42757143D01*
X88373809Y42242858D02*
X88311904Y42357143D01*
X88311904Y42642858D01*
X88373809Y42757143D01*
X88497619Y42814286D01*
X88621428Y42814286D01*
X88745238Y42757143D01*
X88807142Y42642858D01*
X88807142Y42357143D01*
X88869047Y42242858D01*
X89673809Y40814286D02*
X88002380Y41842858D01*
X89178571Y39900000D02*
X88126190Y39900000D01*
X88002380Y39957143D01*
X87940476Y40014286D01*
X87878571Y40128572D01*
X87878571Y40300000D01*
X87940476Y40414286D01*
X88373809Y39900000D02*
X88311904Y40014286D01*
X88311904Y40242858D01*
X88373809Y40357143D01*
X88435714Y40414286D01*
X88559523Y40471429D01*
X88930952Y40471429D01*
X89054761Y40414286D01*
X89116666Y40357143D01*
X89178571Y40242858D01*
X89178571Y40014286D01*
X89116666Y39900000D01*
X88311904Y38814286D02*
X88992857Y38814286D01*
X89116666Y38871429D01*
X89178571Y38985715D01*
X89178571Y39214286D01*
X89116666Y39328572D01*
X88373809Y38814286D02*
X88311904Y38928572D01*
X88311904Y39214286D01*
X88373809Y39328572D01*
X88497619Y39385715D01*
X88621428Y39385715D01*
X88745238Y39328572D01*
X88807142Y39214286D01*
X88807142Y38928572D01*
X88869047Y38814286D01*
X88311904Y38242858D02*
X89178571Y38242858D01*
X89054761Y38242858D02*
X89116666Y38185715D01*
X89178571Y38071429D01*
X89178571Y37900000D01*
X89116666Y37785715D01*
X88992857Y37728572D01*
X88311904Y37728572D01*
X88992857Y37728572D02*
X89116666Y37671429D01*
X89178571Y37557143D01*
X89178571Y37385715D01*
X89116666Y37271429D01*
X88992857Y37214286D01*
X88311904Y37214286D01*
X88373809Y36185715D02*
X88311904Y36300000D01*
X88311904Y36528572D01*
X88373809Y36642858D01*
X88497619Y36700000D01*
X88992857Y36700000D01*
X89116666Y36642858D01*
X89178571Y36528572D01*
X89178571Y36300000D01*
X89116666Y36185715D01*
X88992857Y36128572D01*
X88869047Y36128572D01*
X88745238Y36700000D01*
X88807142Y35614286D02*
X88807142Y34700000D01*
X88311904Y34128572D02*
X89611904Y34128572D01*
X89116666Y34128572D02*
X89178571Y34014286D01*
X89178571Y33785715D01*
X89116666Y33671429D01*
X89054761Y33614286D01*
X88930952Y33557143D01*
X88559523Y33557143D01*
X88435714Y33614286D01*
X88373809Y33671429D01*
X88311904Y33785715D01*
X88311904Y34014286D01*
X88373809Y34128572D01*
X88311904Y32871429D02*
X88373809Y32985715D01*
X88435714Y33042858D01*
X88559523Y33100000D01*
X88930952Y33100000D01*
X89054761Y33042858D01*
X89116666Y32985715D01*
X89178571Y32871429D01*
X89178571Y32700000D01*
X89116666Y32585715D01*
X89054761Y32528572D01*
X88930952Y32471429D01*
X88559523Y32471429D01*
X88435714Y32528572D01*
X88373809Y32585715D01*
X88311904Y32700000D01*
X88311904Y32871429D01*
X89178571Y32071429D02*
X88311904Y31785715D01*
X89178571Y31500000D02*
X88311904Y31785715D01*
X88002380Y31900000D01*
X87940476Y31957143D01*
X87878571Y32071429D01*
X88807142Y31042858D02*
X88807142Y30128572D01*
X88373809Y29042858D02*
X88311904Y29157143D01*
X88311904Y29385715D01*
X88373809Y29500000D01*
X88435714Y29557143D01*
X88559523Y29614286D01*
X88930952Y29614286D01*
X89054761Y29557143D01*
X89116666Y29500000D01*
X89178571Y29385715D01*
X89178571Y29157143D01*
X89116666Y29042858D01*
X88311904Y28014286D02*
X88992857Y28014286D01*
X89116666Y28071429D01*
X89178571Y28185715D01*
X89178571Y28414286D01*
X89116666Y28528572D01*
X88373809Y28014286D02*
X88311904Y28128572D01*
X88311904Y28414286D01*
X88373809Y28528572D01*
X88497619Y28585715D01*
X88621428Y28585715D01*
X88745238Y28528572D01*
X88807142Y28414286D01*
X88807142Y28128572D01*
X88869047Y28014286D01*
X89178571Y27442858D02*
X87878571Y27442858D01*
X89116666Y27442858D02*
X89178571Y27328572D01*
X89178571Y27100000D01*
X89116666Y26985715D01*
X89054761Y26928572D01*
X88930952Y26871429D01*
X88559523Y26871429D01*
X88435714Y26928572D01*
X88373809Y26985715D01*
X88311904Y27100000D01*
X88311904Y27328572D01*
X88373809Y27442858D01*
X89178571Y26528572D02*
X89178571Y26071429D01*
X89611904Y26357143D02*
X88497619Y26357143D01*
X88373809Y26300000D01*
X88311904Y26185715D01*
X88311904Y26071429D01*
X89178571Y25157143D02*
X88311904Y25157143D01*
X89178571Y25671429D02*
X88497619Y25671429D01*
X88373809Y25614286D01*
X88311904Y25500000D01*
X88311904Y25328572D01*
X88373809Y25214286D01*
X88435714Y25157143D01*
X88311904Y24585715D02*
X89178571Y24585715D01*
X88930952Y24585715D02*
X89054761Y24528572D01*
X89116666Y24471429D01*
X89178571Y24357143D01*
X89178571Y24242858D01*
X88373809Y23385715D02*
X88311904Y23500000D01*
X88311904Y23728572D01*
X88373809Y23842858D01*
X88497619Y23900000D01*
X88992857Y23900000D01*
X89116666Y23842858D01*
X89178571Y23728572D01*
X89178571Y23500000D01*
X89116666Y23385715D01*
X88992857Y23328572D01*
X88869047Y23328572D01*
X88745238Y23900000D01*
X88807142Y22814286D02*
X88807142Y21900000D01*
X88373809Y20814286D02*
X88311904Y20928572D01*
X88311904Y21157143D01*
X88373809Y21271429D01*
X88435714Y21328572D01*
X88559523Y21385715D01*
X88930952Y21385715D01*
X89054761Y21328572D01*
X89116666Y21271429D01*
X89178571Y21157143D01*
X89178571Y20928572D01*
X89116666Y20814286D01*
X88311904Y19785715D02*
X88992857Y19785715D01*
X89116666Y19842858D01*
X89178571Y19957143D01*
X89178571Y20185715D01*
X89116666Y20300000D01*
X88373809Y19785715D02*
X88311904Y19900000D01*
X88311904Y20185715D01*
X88373809Y20300000D01*
X88497619Y20357143D01*
X88621428Y20357143D01*
X88745238Y20300000D01*
X88807142Y20185715D01*
X88807142Y19900000D01*
X88869047Y19785715D01*
X88311904Y19214286D02*
X89178571Y19214286D01*
X88930952Y19214286D02*
X89054761Y19157143D01*
X89116666Y19100000D01*
X89178571Y18985715D01*
X89178571Y18871429D01*
X89178571Y18642858D02*
X89178571Y18185715D01*
X89611904Y18471429D02*
X88497619Y18471429D01*
X88373809Y18414286D01*
X88311904Y18300000D01*
X88311904Y18185715D01*
X88311904Y17785715D02*
X89178571Y17785715D01*
X88930952Y17785715D02*
X89054761Y17728572D01*
X89116666Y17671429D01*
X89178571Y17557143D01*
X89178571Y17442858D01*
X88311904Y17042858D02*
X89178571Y17042858D01*
X89611904Y17042858D02*
X89550000Y17100000D01*
X89488095Y17042858D01*
X89550000Y16985715D01*
X89611904Y17042858D01*
X89488095Y17042858D01*
X88311904Y15957143D02*
X89611904Y15957143D01*
X88373809Y15957143D02*
X88311904Y16071429D01*
X88311904Y16300000D01*
X88373809Y16414286D01*
X88435714Y16471429D01*
X88559523Y16528572D01*
X88930952Y16528572D01*
X89054761Y16471429D01*
X89116666Y16414286D01*
X89178571Y16300000D01*
X89178571Y16071429D01*
X89116666Y15957143D01*
X89178571Y14871429D02*
X88126190Y14871429D01*
X88002380Y14928572D01*
X87940476Y14985715D01*
X87878571Y15100000D01*
X87878571Y15271429D01*
X87940476Y15385715D01*
X88373809Y14871429D02*
X88311904Y14985715D01*
X88311904Y15214286D01*
X88373809Y15328572D01*
X88435714Y15385715D01*
X88559523Y15442858D01*
X88930952Y15442858D01*
X89054761Y15385715D01*
X89116666Y15328572D01*
X89178571Y15214286D01*
X89178571Y14985715D01*
X89116666Y14871429D01*
X88373809Y13842858D02*
X88311904Y13957143D01*
X88311904Y14185715D01*
X88373809Y14300000D01*
X88497619Y14357143D01*
X88992857Y14357143D01*
X89116666Y14300000D01*
X89178571Y14185715D01*
X89178571Y13957143D01*
X89116666Y13842858D01*
X88992857Y13785715D01*
X88869047Y13785715D01*
X88745238Y14357143D01*
D10*
X95833333Y9947620D02*
X95500000Y10423810D01*
X95261904Y9947620D02*
X95261904Y10947620D01*
X95642857Y10947620D01*
X95738095Y10900000D01*
X95785714Y10852381D01*
X95833333Y10757143D01*
X95833333Y10614286D01*
X95785714Y10519048D01*
X95738095Y10471429D01*
X95642857Y10423810D01*
X95261904Y10423810D01*
X96166666Y10947620D02*
X96833333Y10947620D01*
X96404761Y9947620D01*
X48833333Y43492858D02*
X48785714Y43445239D01*
X48642857Y43397620D01*
X48547619Y43397620D01*
X48404761Y43445239D01*
X48309523Y43540477D01*
X48261904Y43635715D01*
X48214285Y43826191D01*
X48214285Y43969048D01*
X48261904Y44159524D01*
X48309523Y44254762D01*
X48404761Y44350000D01*
X48547619Y44397620D01*
X48642857Y44397620D01*
X48785714Y44350000D01*
X48833333Y44302381D01*
X49738095Y44397620D02*
X49261904Y44397620D01*
X49214285Y43921429D01*
X49261904Y43969048D01*
X49357142Y44016667D01*
X49595238Y44016667D01*
X49690476Y43969048D01*
X49738095Y43921429D01*
X49785714Y43826191D01*
X49785714Y43588096D01*
X49738095Y43492858D01*
X49690476Y43445239D01*
X49595238Y43397620D01*
X49357142Y43397620D01*
X49261904Y43445239D01*
X49214285Y43492858D01*
X57657142Y49492858D02*
X57609523Y49445239D01*
X57466666Y49397620D01*
X57371428Y49397620D01*
X57228571Y49445239D01*
X57133333Y49540477D01*
X57085714Y49635715D01*
X57038095Y49826191D01*
X57038095Y49969048D01*
X57085714Y50159524D01*
X57133333Y50254762D01*
X57228571Y50350000D01*
X57371428Y50397620D01*
X57466666Y50397620D01*
X57609523Y50350000D01*
X57657142Y50302381D01*
X58609523Y49397620D02*
X58038095Y49397620D01*
X58323809Y49397620D02*
X58323809Y50397620D01*
X58228571Y50254762D01*
X58133333Y50159524D01*
X58038095Y50111905D01*
X58942857Y50397620D02*
X59609523Y50397620D01*
X59180952Y49397620D01*
X35207142Y41857143D02*
X35254761Y41809524D01*
X35302380Y41666667D01*
X35302380Y41571429D01*
X35254761Y41428572D01*
X35159523Y41333334D01*
X35064285Y41285715D01*
X34873809Y41238096D01*
X34730952Y41238096D01*
X34540476Y41285715D01*
X34445238Y41333334D01*
X34350000Y41428572D01*
X34302380Y41571429D01*
X34302380Y41666667D01*
X34350000Y41809524D01*
X34397619Y41857143D01*
X35302380Y42809524D02*
X35302380Y42238096D01*
X35302380Y42523810D02*
X34302380Y42523810D01*
X34445238Y42428572D01*
X34540476Y42333334D01*
X34588095Y42238096D01*
X34635714Y43666667D02*
X35302380Y43666667D01*
X34254761Y43428572D02*
X34969047Y43190477D01*
X34969047Y43809524D01*
X52723333Y54617620D02*
X52390000Y55093810D01*
X52151904Y54617620D02*
X52151904Y55617620D01*
X52532857Y55617620D01*
X52628095Y55570000D01*
X52675714Y55522381D01*
X52723333Y55427143D01*
X52723333Y55284286D01*
X52675714Y55189048D01*
X52628095Y55141429D01*
X52532857Y55093810D01*
X52151904Y55093810D01*
X53104285Y55522381D02*
X53151904Y55570000D01*
X53247142Y55617620D01*
X53485238Y55617620D01*
X53580476Y55570000D01*
X53628095Y55522381D01*
X53675714Y55427143D01*
X53675714Y55331905D01*
X53628095Y55189048D01*
X53056666Y54617620D01*
X53675714Y54617620D01*
X55757142Y27442858D02*
X55709523Y27395239D01*
X55566666Y27347620D01*
X55471428Y27347620D01*
X55328571Y27395239D01*
X55233333Y27490477D01*
X55185714Y27585715D01*
X55138095Y27776191D01*
X55138095Y27919048D01*
X55185714Y28109524D01*
X55233333Y28204762D01*
X55328571Y28300000D01*
X55471428Y28347620D01*
X55566666Y28347620D01*
X55709523Y28300000D01*
X55757142Y28252381D01*
X56709523Y27347620D02*
X56138095Y27347620D01*
X56423809Y27347620D02*
X56423809Y28347620D01*
X56328571Y28204762D01*
X56233333Y28109524D01*
X56138095Y28061905D01*
X57185714Y27347620D02*
X57376190Y27347620D01*
X57471428Y27395239D01*
X57519047Y27442858D01*
X57614285Y27585715D01*
X57661904Y27776191D01*
X57661904Y28157143D01*
X57614285Y28252381D01*
X57566666Y28300000D01*
X57471428Y28347620D01*
X57280952Y28347620D01*
X57185714Y28300000D01*
X57138095Y28252381D01*
X57090476Y28157143D01*
X57090476Y27919048D01*
X57138095Y27823810D01*
X57185714Y27776191D01*
X57280952Y27728572D01*
X57471428Y27728572D01*
X57566666Y27776191D01*
X57614285Y27823810D01*
X57661904Y27919048D01*
X36233333Y57277620D02*
X35900000Y57753810D01*
X35661904Y57277620D02*
X35661904Y58277620D01*
X36042857Y58277620D01*
X36138095Y58230000D01*
X36185714Y58182381D01*
X36233333Y58087143D01*
X36233333Y57944286D01*
X36185714Y57849048D01*
X36138095Y57801429D01*
X36042857Y57753810D01*
X35661904Y57753810D01*
X36804761Y57849048D02*
X36709523Y57896667D01*
X36661904Y57944286D01*
X36614285Y58039524D01*
X36614285Y58087143D01*
X36661904Y58182381D01*
X36709523Y58230000D01*
X36804761Y58277620D01*
X36995238Y58277620D01*
X37090476Y58230000D01*
X37138095Y58182381D01*
X37185714Y58087143D01*
X37185714Y58039524D01*
X37138095Y57944286D01*
X37090476Y57896667D01*
X36995238Y57849048D01*
X36804761Y57849048D01*
X36709523Y57801429D01*
X36661904Y57753810D01*
X36614285Y57658572D01*
X36614285Y57468096D01*
X36661904Y57372858D01*
X36709523Y57325239D01*
X36804761Y57277620D01*
X36995238Y57277620D01*
X37090476Y57325239D01*
X37138095Y57372858D01*
X37185714Y57468096D01*
X37185714Y57658572D01*
X37138095Y57753810D01*
X37090476Y57801429D01*
X36995238Y57849048D01*
X29976190Y49923810D02*
X30452380Y49923810D01*
X29452380Y49590477D02*
X29976190Y49923810D01*
X29452380Y50257143D01*
X30452380Y51114286D02*
X30452380Y50542858D01*
X30452380Y50828572D02*
X29452380Y50828572D01*
X29595238Y50733334D01*
X29690476Y50638096D01*
X29738095Y50542858D01*
X56957142Y59170834D02*
X57004761Y59123215D01*
X57052380Y58980358D01*
X57052380Y58885120D01*
X57004761Y58742262D01*
X56909523Y58647024D01*
X56814285Y58599405D01*
X56623809Y58551786D01*
X56480952Y58551786D01*
X56290476Y58599405D01*
X56195238Y58647024D01*
X56100000Y58742262D01*
X56052380Y58885120D01*
X56052380Y58980358D01*
X56100000Y59123215D01*
X56147619Y59170834D01*
X56385714Y60027977D02*
X57052380Y60027977D01*
X56004761Y59789881D02*
X56719047Y59551786D01*
X56719047Y60170834D01*
X45607142Y32157143D02*
X45654761Y32109524D01*
X45702380Y31966667D01*
X45702380Y31871429D01*
X45654761Y31728572D01*
X45559523Y31633334D01*
X45464285Y31585715D01*
X45273809Y31538096D01*
X45130952Y31538096D01*
X44940476Y31585715D01*
X44845238Y31633334D01*
X44750000Y31728572D01*
X44702380Y31871429D01*
X44702380Y31966667D01*
X44750000Y32109524D01*
X44797619Y32157143D01*
X45702380Y33109524D02*
X45702380Y32538096D01*
X45702380Y32823810D02*
X44702380Y32823810D01*
X44845238Y32728572D01*
X44940476Y32633334D01*
X44988095Y32538096D01*
X44702380Y33966667D02*
X44702380Y33776191D01*
X44750000Y33680953D01*
X44797619Y33633334D01*
X44940476Y33538096D01*
X45130952Y33490477D01*
X45511904Y33490477D01*
X45607142Y33538096D01*
X45654761Y33585715D01*
X45702380Y33680953D01*
X45702380Y33871429D01*
X45654761Y33966667D01*
X45607142Y34014286D01*
X45511904Y34061905D01*
X45273809Y34061905D01*
X45178571Y34014286D01*
X45130952Y33966667D01*
X45083333Y33871429D01*
X45083333Y33680953D01*
X45130952Y33585715D01*
X45178571Y33538096D01*
X45273809Y33490477D01*
X61502380Y52375596D02*
X62311904Y52375596D01*
X62407142Y52423215D01*
X62454761Y52470834D01*
X62502380Y52566072D01*
X62502380Y52756548D01*
X62454761Y52851786D01*
X62407142Y52899405D01*
X62311904Y52947024D01*
X61502380Y52947024D01*
X62502380Y53947024D02*
X62502380Y53375596D01*
X62502380Y53661310D02*
X61502380Y53661310D01*
X61645238Y53566072D01*
X61740476Y53470834D01*
X61788095Y53375596D01*
X47807142Y37142858D02*
X47759523Y37095239D01*
X47616666Y37047620D01*
X47521428Y37047620D01*
X47378571Y37095239D01*
X47283333Y37190477D01*
X47235714Y37285715D01*
X47188095Y37476191D01*
X47188095Y37619048D01*
X47235714Y37809524D01*
X47283333Y37904762D01*
X47378571Y38000000D01*
X47521428Y38047620D01*
X47616666Y38047620D01*
X47759523Y38000000D01*
X47807142Y37952381D01*
X48759523Y37047620D02*
X48188095Y37047620D01*
X48473809Y37047620D02*
X48473809Y38047620D01*
X48378571Y37904762D01*
X48283333Y37809524D01*
X48188095Y37761905D01*
X49378571Y38047620D02*
X49473809Y38047620D01*
X49569047Y38000000D01*
X49616666Y37952381D01*
X49664285Y37857143D01*
X49711904Y37666667D01*
X49711904Y37428572D01*
X49664285Y37238096D01*
X49616666Y37142858D01*
X49569047Y37095239D01*
X49473809Y37047620D01*
X49378571Y37047620D01*
X49283333Y37095239D01*
X49235714Y37142858D01*
X49188095Y37238096D01*
X49140476Y37428572D01*
X49140476Y37666667D01*
X49188095Y37857143D01*
X49235714Y37952381D01*
X49283333Y38000000D01*
X49378571Y38047620D01*
X101952380Y14066667D02*
X102666666Y14066667D01*
X102809523Y14019048D01*
X102904761Y13923810D01*
X102952380Y13780953D01*
X102952380Y13685715D01*
X101952380Y14971429D02*
X101952380Y14780953D01*
X102000000Y14685715D01*
X102047619Y14638096D01*
X102190476Y14542858D01*
X102380952Y14495239D01*
X102761904Y14495239D01*
X102857142Y14542858D01*
X102904761Y14590477D01*
X102952380Y14685715D01*
X102952380Y14876191D01*
X102904761Y14971429D01*
X102857142Y15019048D01*
X102761904Y15066667D01*
X102523809Y15066667D01*
X102428571Y15019048D01*
X102380952Y14971429D01*
X102333333Y14876191D01*
X102333333Y14685715D01*
X102380952Y14590477D01*
X102428571Y14542858D01*
X102523809Y14495239D01*
X70657142Y58847620D02*
X70323809Y59323810D01*
X70085714Y58847620D02*
X70085714Y59847620D01*
X70466666Y59847620D01*
X70561904Y59800000D01*
X70609523Y59752381D01*
X70657142Y59657143D01*
X70657142Y59514286D01*
X70609523Y59419048D01*
X70561904Y59371429D01*
X70466666Y59323810D01*
X70085714Y59323810D01*
X71609523Y58847620D02*
X71038095Y58847620D01*
X71323809Y58847620D02*
X71323809Y59847620D01*
X71228571Y59704762D01*
X71133333Y59609524D01*
X71038095Y59561905D01*
X72561904Y58847620D02*
X71990476Y58847620D01*
X72276190Y58847620D02*
X72276190Y59847620D01*
X72180952Y59704762D01*
X72085714Y59609524D01*
X71990476Y59561905D01*
X33907142Y60342858D02*
X33859523Y60295239D01*
X33716666Y60247620D01*
X33621428Y60247620D01*
X33478571Y60295239D01*
X33383333Y60390477D01*
X33335714Y60485715D01*
X33288095Y60676191D01*
X33288095Y60819048D01*
X33335714Y61009524D01*
X33383333Y61104762D01*
X33478571Y61200000D01*
X33621428Y61247620D01*
X33716666Y61247620D01*
X33859523Y61200000D01*
X33907142Y61152381D01*
X34288095Y61152381D02*
X34335714Y61200000D01*
X34430952Y61247620D01*
X34669047Y61247620D01*
X34764285Y61200000D01*
X34811904Y61152381D01*
X34859523Y61057143D01*
X34859523Y60961905D01*
X34811904Y60819048D01*
X34240476Y60247620D01*
X34859523Y60247620D01*
X35716666Y60914286D02*
X35716666Y60247620D01*
X35478571Y61295239D02*
X35240476Y60580953D01*
X35859523Y60580953D01*
X89333333Y10147620D02*
X89000000Y10623810D01*
X88761904Y10147620D02*
X88761904Y11147620D01*
X89142857Y11147620D01*
X89238095Y11100000D01*
X89285714Y11052381D01*
X89333333Y10957143D01*
X89333333Y10814286D01*
X89285714Y10719048D01*
X89238095Y10671429D01*
X89142857Y10623810D01*
X88761904Y10623810D01*
X90190476Y11147620D02*
X90000000Y11147620D01*
X89904761Y11100000D01*
X89857142Y11052381D01*
X89761904Y10909524D01*
X89714285Y10719048D01*
X89714285Y10338096D01*
X89761904Y10242858D01*
X89809523Y10195239D01*
X89904761Y10147620D01*
X90095238Y10147620D01*
X90190476Y10195239D01*
X90238095Y10242858D01*
X90285714Y10338096D01*
X90285714Y10576191D01*
X90238095Y10671429D01*
X90190476Y10719048D01*
X90095238Y10766667D01*
X89904761Y10766667D01*
X89809523Y10719048D01*
X89761904Y10671429D01*
X89714285Y10576191D01*
X35638095Y53797620D02*
X35638095Y52988096D01*
X35685714Y52892858D01*
X35733333Y52845239D01*
X35828571Y52797620D01*
X36019047Y52797620D01*
X36114285Y52845239D01*
X36161904Y52892858D01*
X36209523Y52988096D01*
X36209523Y53797620D01*
X37114285Y53464286D02*
X37114285Y52797620D01*
X36876190Y53845239D02*
X36638095Y53130953D01*
X37257142Y53130953D01*
X21838095Y54247620D02*
X21838095Y53438096D01*
X21885714Y53342858D01*
X21933333Y53295239D01*
X22028571Y53247620D01*
X22219047Y53247620D01*
X22314285Y53295239D01*
X22361904Y53342858D01*
X22409523Y53438096D01*
X22409523Y54247620D01*
X23361904Y54247620D02*
X22885714Y54247620D01*
X22838095Y53771429D01*
X22885714Y53819048D01*
X22980952Y53866667D01*
X23219047Y53866667D01*
X23314285Y53819048D01*
X23361904Y53771429D01*
X23409523Y53676191D01*
X23409523Y53438096D01*
X23361904Y53342858D01*
X23314285Y53295239D01*
X23219047Y53247620D01*
X22980952Y53247620D01*
X22885714Y53295239D01*
X22838095Y53342858D01*
X52723333Y50877620D02*
X52390000Y51353810D01*
X52151904Y50877620D02*
X52151904Y51877620D01*
X52532857Y51877620D01*
X52628095Y51830000D01*
X52675714Y51782381D01*
X52723333Y51687143D01*
X52723333Y51544286D01*
X52675714Y51449048D01*
X52628095Y51401429D01*
X52532857Y51353810D01*
X52151904Y51353810D01*
X53675714Y50877620D02*
X53104285Y50877620D01*
X53390000Y50877620D02*
X53390000Y51877620D01*
X53294761Y51734762D01*
X53199523Y51639524D01*
X53104285Y51591905D01*
X31157142Y39983334D02*
X31204761Y39935715D01*
X31252380Y39792858D01*
X31252380Y39697620D01*
X31204761Y39554762D01*
X31109523Y39459524D01*
X31014285Y39411905D01*
X30823809Y39364286D01*
X30680952Y39364286D01*
X30490476Y39411905D01*
X30395238Y39459524D01*
X30300000Y39554762D01*
X30252380Y39697620D01*
X30252380Y39792858D01*
X30300000Y39935715D01*
X30347619Y39983334D01*
X30252380Y40316667D02*
X30252380Y40935715D01*
X30633333Y40602381D01*
X30633333Y40745239D01*
X30680952Y40840477D01*
X30728571Y40888096D01*
X30823809Y40935715D01*
X31061904Y40935715D01*
X31157142Y40888096D01*
X31204761Y40840477D01*
X31252380Y40745239D01*
X31252380Y40459524D01*
X31204761Y40364286D01*
X31157142Y40316667D01*
X32333333Y43628870D02*
X32000000Y44105060D01*
X31761904Y43628870D02*
X31761904Y44628870D01*
X32142857Y44628870D01*
X32238095Y44581250D01*
X32285714Y44533631D01*
X32333333Y44438393D01*
X32333333Y44295536D01*
X32285714Y44200298D01*
X32238095Y44152679D01*
X32142857Y44105060D01*
X31761904Y44105060D01*
X33238095Y44628870D02*
X32761904Y44628870D01*
X32714285Y44152679D01*
X32761904Y44200298D01*
X32857142Y44247917D01*
X33095238Y44247917D01*
X33190476Y44200298D01*
X33238095Y44152679D01*
X33285714Y44057441D01*
X33285714Y43819346D01*
X33238095Y43724108D01*
X33190476Y43676489D01*
X33095238Y43628870D01*
X32857142Y43628870D01*
X32761904Y43676489D01*
X32714285Y43724108D01*
X41887142Y47523393D02*
X41934761Y47475774D01*
X41982380Y47332917D01*
X41982380Y47237679D01*
X41934761Y47094822D01*
X41839523Y46999584D01*
X41744285Y46951965D01*
X41553809Y46904346D01*
X41410952Y46904346D01*
X41220476Y46951965D01*
X41125238Y46999584D01*
X41030000Y47094822D01*
X40982380Y47237679D01*
X40982380Y47332917D01*
X41030000Y47475774D01*
X41077619Y47523393D01*
X41982380Y48475774D02*
X41982380Y47904346D01*
X41982380Y48190060D02*
X40982380Y48190060D01*
X41125238Y48094822D01*
X41220476Y47999584D01*
X41268095Y47904346D01*
X41982380Y49428155D02*
X41982380Y48856727D01*
X41982380Y49142441D02*
X40982380Y49142441D01*
X41125238Y49047203D01*
X41220476Y48951965D01*
X41268095Y48856727D01*
X79002380Y65316667D02*
X79716666Y65316667D01*
X79859523Y65269048D01*
X79954761Y65173810D01*
X80002380Y65030953D01*
X80002380Y64935715D01*
X80002380Y66316667D02*
X80002380Y65745239D01*
X80002380Y66030953D02*
X79002380Y66030953D01*
X79145238Y65935715D01*
X79240476Y65840477D01*
X79288095Y65745239D01*
X26552380Y30738096D02*
X27361904Y30738096D01*
X27457142Y30785715D01*
X27504761Y30833334D01*
X27552380Y30928572D01*
X27552380Y31119048D01*
X27504761Y31214286D01*
X27457142Y31261905D01*
X27361904Y31309524D01*
X26552380Y31309524D01*
X26552380Y32214286D02*
X26552380Y32023810D01*
X26600000Y31928572D01*
X26647619Y31880953D01*
X26790476Y31785715D01*
X26980952Y31738096D01*
X27361904Y31738096D01*
X27457142Y31785715D01*
X27504761Y31833334D01*
X27552380Y31928572D01*
X27552380Y32119048D01*
X27504761Y32214286D01*
X27457142Y32261905D01*
X27361904Y32309524D01*
X27123809Y32309524D01*
X27028571Y32261905D01*
X26980952Y32214286D01*
X26933333Y32119048D01*
X26933333Y31928572D01*
X26980952Y31833334D01*
X27028571Y31785715D01*
X27123809Y31738096D01*
X33733333Y57277620D02*
X33400000Y57753810D01*
X33161904Y57277620D02*
X33161904Y58277620D01*
X33542857Y58277620D01*
X33638095Y58230000D01*
X33685714Y58182381D01*
X33733333Y58087143D01*
X33733333Y57944286D01*
X33685714Y57849048D01*
X33638095Y57801429D01*
X33542857Y57753810D01*
X33161904Y57753810D01*
X34209523Y57277620D02*
X34400000Y57277620D01*
X34495238Y57325239D01*
X34542857Y57372858D01*
X34638095Y57515715D01*
X34685714Y57706191D01*
X34685714Y58087143D01*
X34638095Y58182381D01*
X34590476Y58230000D01*
X34495238Y58277620D01*
X34304761Y58277620D01*
X34209523Y58230000D01*
X34161904Y58182381D01*
X34114285Y58087143D01*
X34114285Y57849048D01*
X34161904Y57753810D01*
X34209523Y57706191D01*
X34304761Y57658572D01*
X34495238Y57658572D01*
X34590476Y57706191D01*
X34638095Y57753810D01*
X34685714Y57849048D01*
X48783333Y42292858D02*
X48735714Y42245239D01*
X48592857Y42197620D01*
X48497619Y42197620D01*
X48354761Y42245239D01*
X48259523Y42340477D01*
X48211904Y42435715D01*
X48164285Y42626191D01*
X48164285Y42769048D01*
X48211904Y42959524D01*
X48259523Y43054762D01*
X48354761Y43150000D01*
X48497619Y43197620D01*
X48592857Y43197620D01*
X48735714Y43150000D01*
X48783333Y43102381D01*
X49640476Y43197620D02*
X49450000Y43197620D01*
X49354761Y43150000D01*
X49307142Y43102381D01*
X49211904Y42959524D01*
X49164285Y42769048D01*
X49164285Y42388096D01*
X49211904Y42292858D01*
X49259523Y42245239D01*
X49354761Y42197620D01*
X49545238Y42197620D01*
X49640476Y42245239D01*
X49688095Y42292858D01*
X49735714Y42388096D01*
X49735714Y42626191D01*
X49688095Y42721429D01*
X49640476Y42769048D01*
X49545238Y42816667D01*
X49354761Y42816667D01*
X49259523Y42769048D01*
X49211904Y42721429D01*
X49164285Y42626191D01*
X37687142Y47523393D02*
X37734761Y47475774D01*
X37782380Y47332917D01*
X37782380Y47237679D01*
X37734761Y47094822D01*
X37639523Y46999584D01*
X37544285Y46951965D01*
X37353809Y46904346D01*
X37210952Y46904346D01*
X37020476Y46951965D01*
X36925238Y46999584D01*
X36830000Y47094822D01*
X36782380Y47237679D01*
X36782380Y47332917D01*
X36830000Y47475774D01*
X36877619Y47523393D01*
X37782380Y48475774D02*
X37782380Y47904346D01*
X37782380Y48190060D02*
X36782380Y48190060D01*
X36925238Y48094822D01*
X37020476Y47999584D01*
X37068095Y47904346D01*
X36782380Y48809108D02*
X36782380Y49428155D01*
X37163333Y49094822D01*
X37163333Y49237679D01*
X37210952Y49332917D01*
X37258571Y49380536D01*
X37353809Y49428155D01*
X37591904Y49428155D01*
X37687142Y49380536D01*
X37734761Y49332917D01*
X37782380Y49237679D01*
X37782380Y48951965D01*
X37734761Y48856727D01*
X37687142Y48809108D01*
X50557142Y27482858D02*
X50509523Y27435239D01*
X50366666Y27387620D01*
X50271428Y27387620D01*
X50128571Y27435239D01*
X50033333Y27530477D01*
X49985714Y27625715D01*
X49938095Y27816191D01*
X49938095Y27959048D01*
X49985714Y28149524D01*
X50033333Y28244762D01*
X50128571Y28340000D01*
X50271428Y28387620D01*
X50366666Y28387620D01*
X50509523Y28340000D01*
X50557142Y28292381D01*
X50938095Y28292381D02*
X50985714Y28340000D01*
X51080952Y28387620D01*
X51319047Y28387620D01*
X51414285Y28340000D01*
X51461904Y28292381D01*
X51509523Y28197143D01*
X51509523Y28101905D01*
X51461904Y27959048D01*
X50890476Y27387620D01*
X51509523Y27387620D01*
X51842857Y28387620D02*
X52461904Y28387620D01*
X52128571Y28006667D01*
X52271428Y28006667D01*
X52366666Y27959048D01*
X52414285Y27911429D01*
X52461904Y27816191D01*
X52461904Y27578096D01*
X52414285Y27482858D01*
X52366666Y27435239D01*
X52271428Y27387620D01*
X51985714Y27387620D01*
X51890476Y27435239D01*
X51842857Y27482858D01*
X77652380Y59657143D02*
X77176190Y59323810D01*
X77652380Y59085715D02*
X76652380Y59085715D01*
X76652380Y59466667D01*
X76700000Y59561905D01*
X76747619Y59609524D01*
X76842857Y59657143D01*
X76985714Y59657143D01*
X77080952Y59609524D01*
X77128571Y59561905D01*
X77176190Y59466667D01*
X77176190Y59085715D01*
X77652380Y60609524D02*
X77652380Y60038096D01*
X77652380Y60323810D02*
X76652380Y60323810D01*
X76795238Y60228572D01*
X76890476Y60133334D01*
X76938095Y60038096D01*
X76652380Y61228572D02*
X76652380Y61323810D01*
X76700000Y61419048D01*
X76747619Y61466667D01*
X76842857Y61514286D01*
X77033333Y61561905D01*
X77271428Y61561905D01*
X77461904Y61514286D01*
X77557142Y61466667D01*
X77604761Y61419048D01*
X77652380Y61323810D01*
X77652380Y61228572D01*
X77604761Y61133334D01*
X77557142Y61085715D01*
X77461904Y61038096D01*
X77271428Y60990477D01*
X77033333Y60990477D01*
X76842857Y61038096D01*
X76747619Y61085715D01*
X76700000Y61133334D01*
X76652380Y61228572D01*
X33083333Y38742858D02*
X33035714Y38695239D01*
X32892857Y38647620D01*
X32797619Y38647620D01*
X32654761Y38695239D01*
X32559523Y38790477D01*
X32511904Y38885715D01*
X32464285Y39076191D01*
X32464285Y39219048D01*
X32511904Y39409524D01*
X32559523Y39504762D01*
X32654761Y39600000D01*
X32797619Y39647620D01*
X32892857Y39647620D01*
X33035714Y39600000D01*
X33083333Y39552381D01*
X33416666Y39647620D02*
X34083333Y39647620D01*
X33654761Y38647620D01*
X95261904Y8147620D02*
X95261904Y9147620D01*
X95500000Y9147620D01*
X95642857Y9100000D01*
X95738095Y9004762D01*
X95785714Y8909524D01*
X95833333Y8719048D01*
X95833333Y8576191D01*
X95785714Y8385715D01*
X95738095Y8290477D01*
X95642857Y8195239D01*
X95500000Y8147620D01*
X95261904Y8147620D01*
X96785714Y8147620D02*
X96214285Y8147620D01*
X96500000Y8147620D02*
X96500000Y9147620D01*
X96404761Y9004762D01*
X96309523Y8909524D01*
X96214285Y8861905D01*
X48783333Y41142858D02*
X48735714Y41095239D01*
X48592857Y41047620D01*
X48497619Y41047620D01*
X48354761Y41095239D01*
X48259523Y41190477D01*
X48211904Y41285715D01*
X48164285Y41476191D01*
X48164285Y41619048D01*
X48211904Y41809524D01*
X48259523Y41904762D01*
X48354761Y42000000D01*
X48497619Y42047620D01*
X48592857Y42047620D01*
X48735714Y42000000D01*
X48783333Y41952381D01*
X49259523Y41047620D02*
X49450000Y41047620D01*
X49545238Y41095239D01*
X49592857Y41142858D01*
X49688095Y41285715D01*
X49735714Y41476191D01*
X49735714Y41857143D01*
X49688095Y41952381D01*
X49640476Y42000000D01*
X49545238Y42047620D01*
X49354761Y42047620D01*
X49259523Y42000000D01*
X49211904Y41952381D01*
X49164285Y41857143D01*
X49164285Y41619048D01*
X49211904Y41523810D01*
X49259523Y41476191D01*
X49354761Y41428572D01*
X49545238Y41428572D01*
X49640476Y41476191D01*
X49688095Y41523810D01*
X49735714Y41619048D01*
X48416666Y55445239D02*
X48559523Y55397620D01*
X48797619Y55397620D01*
X48892857Y55445239D01*
X48940476Y55492858D01*
X48988095Y55588096D01*
X48988095Y55683334D01*
X48940476Y55778572D01*
X48892857Y55826191D01*
X48797619Y55873810D01*
X48607142Y55921429D01*
X48511904Y55969048D01*
X48464285Y56016667D01*
X48416666Y56111905D01*
X48416666Y56207143D01*
X48464285Y56302381D01*
X48511904Y56350000D01*
X48607142Y56397620D01*
X48845238Y56397620D01*
X48988095Y56350000D01*
X49321428Y56397620D02*
X49559523Y55397620D01*
X49750000Y56111905D01*
X49940476Y55397620D01*
X50178571Y56397620D01*
X51083333Y55397620D02*
X50511904Y55397620D01*
X50797619Y55397620D02*
X50797619Y56397620D01*
X50702380Y56254762D01*
X50607142Y56159524D01*
X50511904Y56111905D01*
X69607142Y58233334D02*
X69654761Y58185715D01*
X69702380Y58042858D01*
X69702380Y57947620D01*
X69654761Y57804762D01*
X69559523Y57709524D01*
X69464285Y57661905D01*
X69273809Y57614286D01*
X69130952Y57614286D01*
X68940476Y57661905D01*
X68845238Y57709524D01*
X68750000Y57804762D01*
X68702380Y57947620D01*
X68702380Y58042858D01*
X68750000Y58185715D01*
X68797619Y58233334D01*
X69702380Y59185715D02*
X69702380Y58614286D01*
X69702380Y58900000D02*
X68702380Y58900000D01*
X68845238Y58804762D01*
X68940476Y58709524D01*
X68988095Y58614286D01*
X35738095Y37397620D02*
X35738095Y36588096D01*
X35785714Y36492858D01*
X35833333Y36445239D01*
X35928571Y36397620D01*
X36119047Y36397620D01*
X36214285Y36445239D01*
X36261904Y36492858D01*
X36309523Y36588096D01*
X36309523Y37397620D01*
X36690476Y37397620D02*
X37309523Y37397620D01*
X36976190Y37016667D01*
X37119047Y37016667D01*
X37214285Y36969048D01*
X37261904Y36921429D01*
X37309523Y36826191D01*
X37309523Y36588096D01*
X37261904Y36492858D01*
X37214285Y36445239D01*
X37119047Y36397620D01*
X36833333Y36397620D01*
X36738095Y36445239D01*
X36690476Y36492858D01*
X44333333Y40428870D02*
X44000000Y40905060D01*
X43761904Y40428870D02*
X43761904Y41428870D01*
X44142857Y41428870D01*
X44238095Y41381250D01*
X44285714Y41333631D01*
X44333333Y41238393D01*
X44333333Y41095536D01*
X44285714Y41000298D01*
X44238095Y40952679D01*
X44142857Y40905060D01*
X43761904Y40905060D01*
X44666666Y41428870D02*
X45285714Y41428870D01*
X44952380Y41047917D01*
X45095238Y41047917D01*
X45190476Y41000298D01*
X45238095Y40952679D01*
X45285714Y40857441D01*
X45285714Y40619346D01*
X45238095Y40524108D01*
X45190476Y40476489D01*
X45095238Y40428870D01*
X44809523Y40428870D01*
X44714285Y40476489D01*
X44666666Y40524108D01*
X91961904Y13447620D02*
X91961904Y14447620D01*
X92200000Y14447620D01*
X92342857Y14400000D01*
X92438095Y14304762D01*
X92485714Y14209524D01*
X92533333Y14019048D01*
X92533333Y13876191D01*
X92485714Y13685715D01*
X92438095Y13590477D01*
X92342857Y13495239D01*
X92200000Y13447620D01*
X91961904Y13447620D01*
X92914285Y14352381D02*
X92961904Y14400000D01*
X93057142Y14447620D01*
X93295238Y14447620D01*
X93390476Y14400000D01*
X93438095Y14352381D01*
X93485714Y14257143D01*
X93485714Y14161905D01*
X93438095Y14019048D01*
X92866666Y13447620D01*
X93485714Y13447620D01*
X21707142Y58492858D02*
X21659523Y58445239D01*
X21516666Y58397620D01*
X21421428Y58397620D01*
X21278571Y58445239D01*
X21183333Y58540477D01*
X21135714Y58635715D01*
X21088095Y58826191D01*
X21088095Y58969048D01*
X21135714Y59159524D01*
X21183333Y59254762D01*
X21278571Y59350000D01*
X21421428Y59397620D01*
X21516666Y59397620D01*
X21659523Y59350000D01*
X21707142Y59302381D01*
X22088095Y59302381D02*
X22135714Y59350000D01*
X22230952Y59397620D01*
X22469047Y59397620D01*
X22564285Y59350000D01*
X22611904Y59302381D01*
X22659523Y59207143D01*
X22659523Y59111905D01*
X22611904Y58969048D01*
X22040476Y58397620D01*
X22659523Y58397620D01*
X23564285Y59397620D02*
X23088095Y59397620D01*
X23040476Y58921429D01*
X23088095Y58969048D01*
X23183333Y59016667D01*
X23421428Y59016667D01*
X23516666Y58969048D01*
X23564285Y58921429D01*
X23611904Y58826191D01*
X23611904Y58588096D01*
X23564285Y58492858D01*
X23516666Y58445239D01*
X23421428Y58397620D01*
X23183333Y58397620D01*
X23088095Y58445239D01*
X23040476Y58492858D01*
X31157142Y46783334D02*
X31204761Y46735715D01*
X31252380Y46592858D01*
X31252380Y46497620D01*
X31204761Y46354762D01*
X31109523Y46259524D01*
X31014285Y46211905D01*
X30823809Y46164286D01*
X30680952Y46164286D01*
X30490476Y46211905D01*
X30395238Y46259524D01*
X30300000Y46354762D01*
X30252380Y46497620D01*
X30252380Y46592858D01*
X30300000Y46735715D01*
X30347619Y46783334D01*
X30347619Y47164286D02*
X30300000Y47211905D01*
X30252380Y47307143D01*
X30252380Y47545239D01*
X30300000Y47640477D01*
X30347619Y47688096D01*
X30442857Y47735715D01*
X30538095Y47735715D01*
X30680952Y47688096D01*
X31252380Y47116667D01*
X31252380Y47735715D01*
X47907142Y59542858D02*
X47859523Y59495239D01*
X47716666Y59447620D01*
X47621428Y59447620D01*
X47478571Y59495239D01*
X47383333Y59590477D01*
X47335714Y59685715D01*
X47288095Y59876191D01*
X47288095Y60019048D01*
X47335714Y60209524D01*
X47383333Y60304762D01*
X47478571Y60400000D01*
X47621428Y60447620D01*
X47716666Y60447620D01*
X47859523Y60400000D01*
X47907142Y60352381D01*
X48288095Y60352381D02*
X48335714Y60400000D01*
X48430952Y60447620D01*
X48669047Y60447620D01*
X48764285Y60400000D01*
X48811904Y60352381D01*
X48859523Y60257143D01*
X48859523Y60161905D01*
X48811904Y60019048D01*
X48240476Y59447620D01*
X48859523Y59447620D01*
X49478571Y60447620D02*
X49573809Y60447620D01*
X49669047Y60400000D01*
X49716666Y60352381D01*
X49764285Y60257143D01*
X49811904Y60066667D01*
X49811904Y59828572D01*
X49764285Y59638096D01*
X49716666Y59542858D01*
X49669047Y59495239D01*
X49573809Y59447620D01*
X49478571Y59447620D01*
X49383333Y59495239D01*
X49335714Y59542858D01*
X49288095Y59638096D01*
X49240476Y59828572D01*
X49240476Y60066667D01*
X49288095Y60257143D01*
X49335714Y60352381D01*
X49383333Y60400000D01*
X49478571Y60447620D01*
X55388095Y45797620D02*
X55388095Y44988096D01*
X55435714Y44892858D01*
X55483333Y44845239D01*
X55578571Y44797620D01*
X55769047Y44797620D01*
X55864285Y44845239D01*
X55911904Y44892858D01*
X55959523Y44988096D01*
X55959523Y45797620D01*
X56388095Y45702381D02*
X56435714Y45750000D01*
X56530952Y45797620D01*
X56769047Y45797620D01*
X56864285Y45750000D01*
X56911904Y45702381D01*
X56959523Y45607143D01*
X56959523Y45511905D01*
X56911904Y45369048D01*
X56340476Y44797620D01*
X56959523Y44797620D01*
X84066666Y13245239D02*
X84209523Y13197620D01*
X84447619Y13197620D01*
X84542857Y13245239D01*
X84590476Y13292858D01*
X84638095Y13388096D01*
X84638095Y13483334D01*
X84590476Y13578572D01*
X84542857Y13626191D01*
X84447619Y13673810D01*
X84257142Y13721429D01*
X84161904Y13769048D01*
X84114285Y13816667D01*
X84066666Y13911905D01*
X84066666Y14007143D01*
X84114285Y14102381D01*
X84161904Y14150000D01*
X84257142Y14197620D01*
X84495238Y14197620D01*
X84638095Y14150000D01*
X84971428Y14197620D02*
X85209523Y13197620D01*
X85400000Y13911905D01*
X85590476Y13197620D01*
X85828571Y14197620D01*
X86161904Y14102381D02*
X86209523Y14150000D01*
X86304761Y14197620D01*
X86542857Y14197620D01*
X86638095Y14150000D01*
X86685714Y14102381D01*
X86733333Y14007143D01*
X86733333Y13911905D01*
X86685714Y13769048D01*
X86114285Y13197620D01*
X86733333Y13197620D01*
X47833333Y38342858D02*
X47785714Y38295239D01*
X47642857Y38247620D01*
X47547619Y38247620D01*
X47404761Y38295239D01*
X47309523Y38390477D01*
X47261904Y38485715D01*
X47214285Y38676191D01*
X47214285Y38819048D01*
X47261904Y39009524D01*
X47309523Y39104762D01*
X47404761Y39200000D01*
X47547619Y39247620D01*
X47642857Y39247620D01*
X47785714Y39200000D01*
X47833333Y39152381D01*
X48404761Y38819048D02*
X48309523Y38866667D01*
X48261904Y38914286D01*
X48214285Y39009524D01*
X48214285Y39057143D01*
X48261904Y39152381D01*
X48309523Y39200000D01*
X48404761Y39247620D01*
X48595238Y39247620D01*
X48690476Y39200000D01*
X48738095Y39152381D01*
X48785714Y39057143D01*
X48785714Y39009524D01*
X48738095Y38914286D01*
X48690476Y38866667D01*
X48595238Y38819048D01*
X48404761Y38819048D01*
X48309523Y38771429D01*
X48261904Y38723810D01*
X48214285Y38628572D01*
X48214285Y38438096D01*
X48261904Y38342858D01*
X48309523Y38295239D01*
X48404761Y38247620D01*
X48595238Y38247620D01*
X48690476Y38295239D01*
X48738095Y38342858D01*
X48785714Y38438096D01*
X48785714Y38628572D01*
X48738095Y38723810D01*
X48690476Y38771429D01*
X48595238Y38819048D01*
X26157142Y33257143D02*
X26204761Y33209524D01*
X26252380Y33066667D01*
X26252380Y32971429D01*
X26204761Y32828572D01*
X26109523Y32733334D01*
X26014285Y32685715D01*
X25823809Y32638096D01*
X25680952Y32638096D01*
X25490476Y32685715D01*
X25395238Y32733334D01*
X25300000Y32828572D01*
X25252380Y32971429D01*
X25252380Y33066667D01*
X25300000Y33209524D01*
X25347619Y33257143D01*
X25347619Y33638096D02*
X25300000Y33685715D01*
X25252380Y33780953D01*
X25252380Y34019048D01*
X25300000Y34114286D01*
X25347619Y34161905D01*
X25442857Y34209524D01*
X25538095Y34209524D01*
X25680952Y34161905D01*
X26252380Y33590477D01*
X26252380Y34209524D01*
X25347619Y34590477D02*
X25300000Y34638096D01*
X25252380Y34733334D01*
X25252380Y34971429D01*
X25300000Y35066667D01*
X25347619Y35114286D01*
X25442857Y35161905D01*
X25538095Y35161905D01*
X25680952Y35114286D01*
X26252380Y34542858D01*
X26252380Y35161905D01*
X38827142Y34653393D02*
X38874761Y34605774D01*
X38922380Y34462917D01*
X38922380Y34367679D01*
X38874761Y34224822D01*
X38779523Y34129584D01*
X38684285Y34081965D01*
X38493809Y34034346D01*
X38350952Y34034346D01*
X38160476Y34081965D01*
X38065238Y34129584D01*
X37970000Y34224822D01*
X37922380Y34367679D01*
X37922380Y34462917D01*
X37970000Y34605774D01*
X38017619Y34653393D01*
X38922380Y35605774D02*
X38922380Y35034346D01*
X38922380Y35320060D02*
X37922380Y35320060D01*
X38065238Y35224822D01*
X38160476Y35129584D01*
X38208095Y35034346D01*
X38017619Y35986727D02*
X37970000Y36034346D01*
X37922380Y36129584D01*
X37922380Y36367679D01*
X37970000Y36462917D01*
X38017619Y36510536D01*
X38112857Y36558155D01*
X38208095Y36558155D01*
X38350952Y36510536D01*
X38922380Y35939108D01*
X38922380Y36558155D01*
X44007142Y32157143D02*
X44054761Y32109524D01*
X44102380Y31966667D01*
X44102380Y31871429D01*
X44054761Y31728572D01*
X43959523Y31633334D01*
X43864285Y31585715D01*
X43673809Y31538096D01*
X43530952Y31538096D01*
X43340476Y31585715D01*
X43245238Y31633334D01*
X43150000Y31728572D01*
X43102380Y31871429D01*
X43102380Y31966667D01*
X43150000Y32109524D01*
X43197619Y32157143D01*
X44102380Y33109524D02*
X44102380Y32538096D01*
X44102380Y32823810D02*
X43102380Y32823810D01*
X43245238Y32728572D01*
X43340476Y32633334D01*
X43388095Y32538096D01*
X43102380Y34014286D02*
X43102380Y33538096D01*
X43578571Y33490477D01*
X43530952Y33538096D01*
X43483333Y33633334D01*
X43483333Y33871429D01*
X43530952Y33966667D01*
X43578571Y34014286D01*
X43673809Y34061905D01*
X43911904Y34061905D01*
X44007142Y34014286D01*
X44054761Y33966667D01*
X44102380Y33871429D01*
X44102380Y33633334D01*
X44054761Y33538096D01*
X44007142Y33490477D01*
X32407142Y56757143D02*
X32454761Y56709524D01*
X32502380Y56566667D01*
X32502380Y56471429D01*
X32454761Y56328572D01*
X32359523Y56233334D01*
X32264285Y56185715D01*
X32073809Y56138096D01*
X31930952Y56138096D01*
X31740476Y56185715D01*
X31645238Y56233334D01*
X31550000Y56328572D01*
X31502380Y56471429D01*
X31502380Y56566667D01*
X31550000Y56709524D01*
X31597619Y56757143D01*
X31597619Y57138096D02*
X31550000Y57185715D01*
X31502380Y57280953D01*
X31502380Y57519048D01*
X31550000Y57614286D01*
X31597619Y57661905D01*
X31692857Y57709524D01*
X31788095Y57709524D01*
X31930952Y57661905D01*
X32502380Y57090477D01*
X32502380Y57709524D01*
X32502380Y58661905D02*
X32502380Y58090477D01*
X32502380Y58376191D02*
X31502380Y58376191D01*
X31645238Y58280953D01*
X31740476Y58185715D01*
X31788095Y58090477D01*
X44316300Y39130513D02*
X43982967Y39606703D01*
X43744871Y39130513D02*
X43744871Y40130513D01*
X44125824Y40130513D01*
X44221062Y40082893D01*
X44268681Y40035274D01*
X44316300Y39940036D01*
X44316300Y39797179D01*
X44268681Y39701941D01*
X44221062Y39654322D01*
X44125824Y39606703D01*
X43744871Y39606703D01*
X45173443Y39797179D02*
X45173443Y39130513D01*
X44935347Y40178132D02*
X44697252Y39463846D01*
X45316300Y39463846D01*
X7952380Y11690477D02*
X7952380Y12309524D01*
X8333333Y11976191D01*
X8333333Y12119048D01*
X8380952Y12214286D01*
X8428571Y12261905D01*
X8523809Y12309524D01*
X8761904Y12309524D01*
X8857142Y12261905D01*
X8904761Y12214286D01*
X8952380Y12119048D01*
X8952380Y11833334D01*
X8904761Y11738096D01*
X8857142Y11690477D01*
X8047619Y12690477D02*
X8000000Y12738096D01*
X7952380Y12833334D01*
X7952380Y13071429D01*
X8000000Y13166667D01*
X8047619Y13214286D01*
X8142857Y13261905D01*
X8238095Y13261905D01*
X8380952Y13214286D01*
X8952380Y12642858D01*
X8952380Y13261905D01*
X8952380Y59685715D02*
X8952380Y59114286D01*
X8952380Y59400000D02*
X7952380Y59400000D01*
X8095238Y59304762D01*
X8190476Y59209524D01*
X8238095Y59114286D01*
X55201252Y39594784D02*
X55201252Y38785260D01*
X55248871Y38690022D01*
X55296490Y38642403D01*
X55391728Y38594784D01*
X55582204Y38594784D01*
X55677442Y38642403D01*
X55725061Y38690022D01*
X55772680Y38785260D01*
X55772680Y39594784D01*
X56153633Y39594784D02*
X56820299Y39594784D01*
X56391728Y38594784D01*
X26057142Y28057143D02*
X26104761Y28009524D01*
X26152380Y27866667D01*
X26152380Y27771429D01*
X26104761Y27628572D01*
X26009523Y27533334D01*
X25914285Y27485715D01*
X25723809Y27438096D01*
X25580952Y27438096D01*
X25390476Y27485715D01*
X25295238Y27533334D01*
X25200000Y27628572D01*
X25152380Y27771429D01*
X25152380Y27866667D01*
X25200000Y28009524D01*
X25247619Y28057143D01*
X26152380Y29009524D02*
X26152380Y28438096D01*
X26152380Y28723810D02*
X25152380Y28723810D01*
X25295238Y28628572D01*
X25390476Y28533334D01*
X25438095Y28438096D01*
X25580952Y29580953D02*
X25533333Y29485715D01*
X25485714Y29438096D01*
X25390476Y29390477D01*
X25342857Y29390477D01*
X25247619Y29438096D01*
X25200000Y29485715D01*
X25152380Y29580953D01*
X25152380Y29771429D01*
X25200000Y29866667D01*
X25247619Y29914286D01*
X25342857Y29961905D01*
X25390476Y29961905D01*
X25485714Y29914286D01*
X25533333Y29866667D01*
X25580952Y29771429D01*
X25580952Y29580953D01*
X25628571Y29485715D01*
X25676190Y29438096D01*
X25771428Y29390477D01*
X25961904Y29390477D01*
X26057142Y29438096D01*
X26104761Y29485715D01*
X26152380Y29580953D01*
X26152380Y29771429D01*
X26104761Y29866667D01*
X26057142Y29914286D01*
X25961904Y29961905D01*
X25771428Y29961905D01*
X25676190Y29914286D01*
X25628571Y29866667D01*
X25580952Y29771429D01*
D13*
X94053641Y10780000D02*
X93746359Y10780000D01*
X94053641Y10020000D02*
X93746359Y10020000D01*
X58558578Y52210000D02*
X58041422Y52210000D01*
X58558578Y50790000D02*
X58041422Y50790000D01*
X52736359Y54280000D02*
X53043641Y54280000D01*
X52736359Y53520000D02*
X53043641Y53520000D01*
X56292164Y29360000D02*
X56507836Y29360000D01*
X56292164Y28640000D02*
X56507836Y28640000D01*
X36553641Y59280000D02*
X36246359Y59280000D01*
X36553641Y58520000D02*
X36246359Y58520000D01*
X24034000Y50540250D02*
X24034000Y37940250D01*
X29134000Y37940250D02*
X29134000Y50540250D01*
X29134000Y50540250D02*
X27884000Y50540250D01*
X25284000Y50540250D02*
X24034000Y50540250D01*
X55790000Y56871078D02*
X55790000Y56353922D01*
X57210000Y56871078D02*
X57210000Y56353922D01*
X60140000Y54227500D02*
X60140000Y55487500D01*
X60140000Y61047500D02*
X60140000Y59787500D01*
X63900000Y61047500D02*
X60140000Y61047500D01*
X66150000Y54227500D02*
X60140000Y54227500D01*
X103255000Y51550000D02*
X103255000Y64050000D01*
X121055000Y7050000D02*
X121055000Y64050000D01*
X121075000Y7050000D02*
X103275000Y7050000D01*
X103275000Y7050000D02*
X103275000Y19550000D01*
X121055000Y64050000D02*
X103255000Y64050000D01*
X103275000Y25550000D02*
X103275000Y45550000D01*
X71246359Y60780000D02*
X71553641Y60780000D01*
X71246359Y60020000D02*
X71553641Y60020000D01*
X36292164Y59640000D02*
X36507836Y59640000D01*
X36292164Y60360000D02*
X36507836Y60360000D01*
X91553641Y10020000D02*
X91246359Y10020000D01*
X91553641Y10780000D02*
X91246359Y10780000D01*
X43012973Y60649700D02*
X39587027Y60649700D01*
X39587027Y52750300D02*
X43012973Y52750300D01*
X40995200Y60649700D02*
G75*
G03*
X41604800Y60649700I304800J0D01*
G01*
X29312973Y60649700D02*
X25887027Y60649700D01*
X25887027Y52750300D02*
X29312973Y52750300D01*
X27295200Y60649700D02*
G75*
G03*
X27904800Y60649700I304800J0D01*
G01*
X53043641Y52120000D02*
X52736359Y52120000D01*
X53043641Y52880000D02*
X52736359Y52880000D01*
X32738641Y42601250D02*
X32431359Y42601250D01*
X32738641Y43361250D02*
X32431359Y43361250D01*
X78500000Y70560000D02*
X69100000Y70560000D01*
X69100000Y68660000D02*
X69100000Y70560000D01*
X78500000Y64760000D02*
X78500000Y66760000D01*
X69100000Y64760000D02*
X69100000Y66760000D01*
X78500000Y68660000D02*
X78500000Y70560000D01*
X35749700Y29787027D02*
X35749700Y33212973D01*
X27850300Y33212973D02*
X27850300Y29787027D01*
X27850300Y31195200D02*
G75*
G03*
X27850300Y31804800I0J304800D01*
G01*
X34053641Y58520000D02*
X33746359Y58520000D01*
X34053641Y59280000D02*
X33746359Y59280000D01*
X51307836Y28640000D02*
X51092164Y28640000D01*
X51307836Y29360000D02*
X51092164Y29360000D01*
X75520000Y60246359D02*
X75520000Y60553641D01*
X76280000Y60246359D02*
X76280000Y60553641D01*
X91000000Y7565000D02*
X94885000Y7565000D01*
X94885000Y7565000D02*
X94885000Y9835000D01*
X94885000Y9835000D02*
X91000000Y9835000D01*
X46000000Y51850000D02*
X50400000Y51850000D01*
X50400000Y53350000D02*
X50400000Y53450000D01*
X47050000Y54950000D02*
X46000000Y54950000D01*
X50400000Y54950000D02*
X49350000Y54950000D01*
X46000000Y53350000D02*
X46000000Y53450000D01*
X68310000Y58658578D02*
X68310000Y58141422D01*
X66890000Y58658578D02*
X66890000Y58141422D01*
X43310000Y38071250D02*
X42660000Y38071250D01*
X36090000Y44641250D02*
X36090000Y45291250D01*
X36090000Y38071250D02*
X36740000Y38071250D01*
X36090000Y38721250D02*
X36090000Y38071250D01*
X36090000Y45291250D02*
X36740000Y45291250D01*
X43310000Y38721250D02*
X43310000Y38071250D01*
X43310000Y44641250D02*
X43310000Y45291250D01*
X46338641Y41061250D02*
X46031359Y41061250D01*
X46338641Y40301250D02*
X46031359Y40301250D01*
X94885000Y10965000D02*
X94885000Y13235000D01*
X91000000Y10965000D02*
X94885000Y10965000D01*
X94885000Y13235000D02*
X91000000Y13235000D01*
X22592164Y60360000D02*
X22807836Y60360000D01*
X22592164Y59640000D02*
X22807836Y59640000D01*
X46307836Y59640000D02*
X46092164Y59640000D01*
X46307836Y60360000D02*
X46092164Y60360000D01*
X53075000Y50330000D02*
X53075000Y50070000D01*
X47625000Y44880000D02*
X47625000Y45140000D01*
X50350000Y50330000D02*
X47625000Y50330000D01*
X53075000Y44880000D02*
X53075000Y45140000D01*
X53075000Y45140000D02*
X54750000Y45140000D01*
X47625000Y50330000D02*
X47625000Y50070000D01*
X50350000Y50330000D02*
X53075000Y50330000D01*
X50350000Y44880000D02*
X53075000Y44880000D01*
X50350000Y44880000D02*
X47625000Y44880000D01*
X83200000Y11150000D02*
X83200000Y11250000D01*
X83200000Y9650000D02*
X87600000Y9650000D01*
X84250000Y12750000D02*
X83200000Y12750000D01*
X87600000Y11150000D02*
X87600000Y11250000D01*
X87600000Y12750000D02*
X86550000Y12750000D01*
X27260000Y34192164D02*
X27260000Y34407836D01*
X26540000Y34192164D02*
X26540000Y34407836D01*
X32460000Y59472164D02*
X32460000Y59687836D01*
X31740000Y59472164D02*
X31740000Y59687836D01*
X46338641Y39301250D02*
X46031359Y39301250D01*
X46338641Y40061250D02*
X46031359Y40061250D01*
X55712973Y37849700D02*
X52287027Y37849700D01*
X52287027Y29950300D02*
X55712973Y29950300D01*
X54304800Y29950300D02*
G75*
G03*
X53695200Y29950300I-304800J0D01*
G01*
X27260000Y28707836D02*
X27260000Y28492164D01*
X26540000Y28707836D02*
X26540000Y28492164D01*
%LPC*%
D14*
X94410000Y10400000D03*
X93390000Y10400000D03*
D15*
X46730000Y43830000D03*
X47700000Y43830000D03*
D16*
X59237500Y51500000D03*
X57362500Y51500000D03*
D17*
X33700000Y41300250D03*
X32730000Y41300250D03*
D18*
X127400000Y3850000D03*
D19*
X52380000Y53900000D03*
X53400000Y53900000D03*
D20*
X55920000Y29000000D03*
X56880000Y29000000D03*
D21*
X97900000Y34500000D03*
X99900000Y36900000D03*
X97900000Y33700000D03*
X99900000Y35300000D03*
X99900000Y33700000D03*
X97900000Y35300000D03*
X99900000Y37700000D03*
X97900000Y36900000D03*
X99900000Y34500000D03*
X97900000Y36100000D03*
X97900000Y37700000D03*
X99900000Y36100000D03*
D14*
X36910000Y58900000D03*
X35890000Y58900000D03*
D22*
X26584000Y48340250D03*
X26584000Y39340250D03*
D21*
X97900000Y58300000D03*
X99900000Y58300000D03*
X97900000Y60700000D03*
X97900000Y56700000D03*
X97900000Y59100000D03*
X97900000Y57500000D03*
X99900000Y59900000D03*
X99900000Y57500000D03*
X99900000Y56700000D03*
X97900000Y59900000D03*
X99900000Y59100000D03*
X99900000Y60700000D03*
D23*
X56500000Y57550000D03*
X56500000Y55675000D03*
D24*
X45100000Y35681250D03*
X45100000Y34711250D03*
D21*
X103200000Y64099999D03*
X106400000Y64099999D03*
X104800000Y64099999D03*
X102400000Y64099999D03*
X105600000Y64099999D03*
X104000000Y64099999D03*
D25*
X65200000Y55337500D03*
X65200000Y57637500D03*
D26*
X58900000Y57637500D03*
D25*
X65200000Y59937500D03*
D15*
X45700000Y37681250D03*
X46670000Y37681250D03*
D18*
X114555000Y22550000D03*
X114555000Y48550000D03*
D27*
X102305000Y48550000D03*
X102305000Y22550000D03*
D28*
X122545000Y12455000D03*
X122545000Y13945000D03*
X122545000Y15435000D03*
X122545000Y16925000D03*
X122545000Y18415000D03*
X122545000Y19905000D03*
X122545000Y21395000D03*
X122545000Y22885000D03*
X122545000Y24375000D03*
X122545000Y25865000D03*
X122545000Y27355000D03*
X122545000Y28845000D03*
X122545000Y30335000D03*
X122545000Y31825000D03*
X122545000Y33315000D03*
X122545000Y34805000D03*
X122545000Y36295000D03*
X122545000Y37785000D03*
X122545000Y39275000D03*
X122545000Y40765000D03*
X122545000Y42255000D03*
X122545000Y43745000D03*
X122545000Y45235000D03*
X122545000Y46725000D03*
X122545000Y48215000D03*
X122545000Y49705000D03*
X122545000Y51195000D03*
X122545000Y52685000D03*
X122545000Y54175000D03*
X122545000Y55665000D03*
X122545000Y57155000D03*
D29*
X122745000Y58645000D03*
D19*
X70890000Y60400000D03*
X71910000Y60400000D03*
D20*
X35920000Y60000000D03*
X36880000Y60000000D03*
D21*
X11500000Y10000000D03*
X9900000Y10000000D03*
X12300000Y10000000D03*
X13900000Y10000000D03*
X13100000Y10000000D03*
X10700000Y10000000D03*
D14*
X91910000Y10400000D03*
X90890000Y10400000D03*
D30*
X40350000Y35700000D03*
D31*
X38480600Y60274999D03*
X38480600Y59625000D03*
X38480600Y58975002D03*
X38480600Y58325001D03*
X38480600Y57675002D03*
X38480600Y57025001D03*
X38480600Y56375002D03*
X38480600Y55725001D03*
X38480600Y55075002D03*
X38480600Y54425001D03*
X38480600Y53775002D03*
X38480600Y53125001D03*
X44119400Y53125001D03*
X44119400Y53775000D03*
X44119400Y54425001D03*
X44119400Y55074999D03*
X44119400Y55725001D03*
X44119400Y56374999D03*
X44119400Y57024998D03*
X44119400Y57674999D03*
X44119400Y58324998D03*
X44119400Y58974999D03*
X44119400Y59624998D03*
X44119400Y60274999D03*
X24780600Y60274999D03*
X24780600Y59625000D03*
X24780600Y58975002D03*
X24780600Y58325001D03*
X24780600Y57675002D03*
X24780600Y57025001D03*
X24780600Y56375002D03*
X24780600Y55725001D03*
X24780600Y55075002D03*
X24780600Y54425001D03*
X24780600Y53775002D03*
X24780600Y53125001D03*
X30419400Y53125001D03*
X30419400Y53775000D03*
X30419400Y54425001D03*
X30419400Y55074999D03*
X30419400Y55725001D03*
X30419400Y56374999D03*
X30419400Y57024998D03*
X30419400Y57674999D03*
X30419400Y58324998D03*
X30419400Y58974999D03*
X30419400Y59624998D03*
X30419400Y60274999D03*
D14*
X53400000Y52500000D03*
X52380000Y52500000D03*
D32*
X83300000Y66850000D03*
X12150000Y57800000D03*
D24*
X30700000Y42681250D03*
X30700000Y41711250D03*
D33*
X15400000Y35700000D03*
D14*
X33095000Y42981250D03*
X32075000Y42981250D03*
D34*
X42700000Y47681250D03*
X42700000Y48651250D03*
D32*
X127300000Y10050000D03*
D21*
X126200000Y7000000D03*
X127000000Y7000000D03*
X127800000Y7000000D03*
X129400000Y7000000D03*
X128600000Y7000000D03*
X125400000Y7000000D03*
D32*
X67100000Y13600000D03*
D21*
X79900000Y69600000D03*
X82300000Y69600000D03*
X81500000Y69600000D03*
X80700000Y69600000D03*
X83100000Y69600000D03*
X83900000Y69600000D03*
D35*
X76690000Y64060000D03*
X70910000Y64060000D03*
D36*
X77050000Y62615000D03*
X76250000Y62615000D03*
D37*
X75050000Y62615000D03*
X74050000Y62615000D03*
X73550000Y62615000D03*
X72550000Y62615000D03*
D36*
X71350000Y62615000D03*
X70550000Y62615000D03*
X70550000Y62615000D03*
X71350000Y62615000D03*
D37*
X72050000Y62615000D03*
X73050000Y62615000D03*
X74550000Y62615000D03*
X75550000Y62615000D03*
D36*
X76250000Y62615000D03*
X77050000Y62615000D03*
D38*
X78120000Y63530000D03*
D39*
X78120000Y67710000D03*
D38*
X69480000Y63530000D03*
D39*
X69480000Y67710000D03*
D40*
X28225001Y28680600D03*
X28875000Y28680600D03*
X29524998Y28680600D03*
X30174999Y28680600D03*
X30824998Y28680600D03*
X31474999Y28680600D03*
X32124998Y28680600D03*
X32774999Y28680600D03*
X33424998Y28680600D03*
X34074999Y28680600D03*
X34724998Y28680600D03*
X35374999Y28680600D03*
X35374999Y34319400D03*
X34725000Y34319400D03*
X34074999Y34319400D03*
X33425001Y34319400D03*
X32774999Y34319400D03*
X32125001Y34319400D03*
X31475002Y34319400D03*
X30825001Y34319400D03*
X30175002Y34319400D03*
X29525001Y34319400D03*
X28875002Y34319400D03*
X28225001Y34319400D03*
D14*
X34410000Y58900000D03*
X33390000Y58900000D03*
D15*
X46700000Y42681250D03*
X47670000Y42681250D03*
D34*
X38500000Y47681250D03*
X38500000Y48651250D03*
D41*
X51680000Y29000000D03*
X50720000Y29000000D03*
D18*
X127400000Y72750000D03*
D21*
X88900000Y7000000D03*
X85700000Y7000000D03*
X88100000Y7000000D03*
X86500000Y7000000D03*
X84900000Y7000000D03*
X87300000Y7000000D03*
D42*
X75900000Y59890000D03*
X75900000Y60910000D03*
D18*
X3400000Y72750000D03*
D17*
X33700000Y40181250D03*
X32730000Y40181250D03*
D43*
X94000000Y8700000D03*
X91200000Y8700000D03*
D18*
X3400000Y3850000D03*
D32*
X127300000Y61050000D03*
D15*
X46700000Y41681250D03*
X47670000Y41681250D03*
D44*
X50250000Y54200000D03*
X46150000Y54200000D03*
X46150000Y52600000D03*
X50250000Y52600000D03*
D45*
X48200000Y54825000D03*
D23*
X67600000Y59337500D03*
X67600000Y57462500D03*
D46*
X42300000Y45118750D03*
X41900000Y45118750D03*
X41500000Y45118750D03*
X41100000Y45118750D03*
X40700000Y45118750D03*
X40300000Y45118750D03*
X39900000Y45118750D03*
X39500000Y45118750D03*
X39100000Y45118750D03*
X38700000Y45118750D03*
X38300000Y45118750D03*
X37900000Y45118750D03*
X37500000Y45118750D03*
X37100000Y45118750D03*
D47*
X36262500Y44281250D03*
X36262500Y43881250D03*
X36262500Y43481250D03*
X36262500Y43081250D03*
X36262500Y42681250D03*
X36262500Y42281250D03*
X36262500Y41881250D03*
X36262500Y41481250D03*
X36262500Y41081250D03*
X36262500Y40681250D03*
X36262500Y40281250D03*
X36262500Y39881250D03*
X36262500Y39481250D03*
X36262500Y39081250D03*
D46*
X37100000Y38243750D03*
X37500000Y38243750D03*
X37900000Y38243750D03*
X38300000Y38243750D03*
X38700000Y38243750D03*
X39100000Y38243750D03*
X39500000Y38243750D03*
X39900000Y38243750D03*
X40300000Y38243750D03*
X40700000Y38243750D03*
X41100000Y38243750D03*
X41500000Y38243750D03*
X41900000Y38243750D03*
X42300000Y38243750D03*
D47*
X43137500Y39081250D03*
X43137500Y39481250D03*
X43137500Y39881250D03*
X43137500Y40281250D03*
X43137500Y40681250D03*
X43137500Y41081250D03*
X43137500Y41481250D03*
X43137500Y41881250D03*
X43137500Y42281250D03*
X43137500Y42681250D03*
X43137500Y43081250D03*
X43137500Y43481250D03*
X43137500Y43881250D03*
X43137500Y44281250D03*
D48*
X39700000Y41681250D03*
D32*
X12200000Y13600000D03*
D14*
X46695000Y40681250D03*
X45675000Y40681250D03*
D21*
X126200000Y64100000D03*
X127000000Y64100000D03*
X127800000Y64100000D03*
X125400000Y64100000D03*
X129400000Y64100000D03*
X128600000Y64100000D03*
D43*
X94000000Y12100000D03*
X91200000Y12100000D03*
D20*
X22220000Y60000000D03*
X23180000Y60000000D03*
D34*
X30700000Y44681250D03*
X30700000Y45651250D03*
D41*
X46680000Y60000000D03*
X45720000Y60000000D03*
D49*
X53950000Y45700000D03*
X53950000Y46970000D03*
X53950000Y48240000D03*
X53950000Y49510000D03*
X46750000Y49510000D03*
X46750000Y48240000D03*
X46750000Y46970000D03*
X46750000Y45700000D03*
D44*
X83350000Y12000000D03*
X87450000Y12000000D03*
X83350000Y10400000D03*
X87450000Y10400000D03*
D45*
X85400000Y12625000D03*
D15*
X45700000Y38681250D03*
X46670000Y38681250D03*
D50*
X26900000Y33820000D03*
X26900000Y34780000D03*
D21*
X11500000Y61400000D03*
X13900000Y61400000D03*
X10700000Y61400000D03*
X9900000Y61400000D03*
X12300000Y61400000D03*
X13100000Y61400000D03*
X99900000Y12300000D03*
X97900000Y10700000D03*
X97900000Y13100000D03*
X99900000Y13100000D03*
X97900000Y14700000D03*
X99900000Y10700000D03*
X97900000Y13900000D03*
X99900000Y13900000D03*
X97900000Y12300000D03*
X99900000Y11500000D03*
X99900000Y14700000D03*
X97900000Y11500000D03*
D24*
X37300000Y35781250D03*
X37300000Y34811250D03*
X43700000Y35681250D03*
X43700000Y34711250D03*
D21*
X104300000Y7000000D03*
X105900000Y7000000D03*
X102700000Y7000000D03*
X105100000Y7000000D03*
X101900000Y7000000D03*
X103500000Y7000000D03*
D50*
X32100000Y59100000D03*
X32100000Y60060000D03*
D21*
X54400000Y61400000D03*
X51200000Y61400000D03*
X52800000Y61400000D03*
X52000000Y61400000D03*
X53600000Y61400000D03*
X50400000Y61400000D03*
D14*
X46695000Y39681250D03*
X45675000Y39681250D03*
D21*
X53600000Y10000000D03*
X54400000Y10000000D03*
X52000000Y10000000D03*
X50400000Y10000000D03*
X51200000Y10000000D03*
X52800000Y10000000D03*
D51*
X4000000Y59100000D03*
D52*
X4250000Y57450000D03*
X4250000Y55950000D03*
X4250000Y54450000D03*
X4250000Y52950000D03*
X4250000Y51450000D03*
X4250000Y49950000D03*
X4250000Y48450000D03*
X4250000Y46950000D03*
X4250000Y45450000D03*
X4250000Y43950000D03*
X4250000Y42450000D03*
X4250000Y40950000D03*
X4250000Y39450000D03*
X4250000Y37950000D03*
X4250000Y36450000D03*
X4250000Y34950000D03*
X4250000Y33450000D03*
X4250000Y31950000D03*
X4250000Y30450000D03*
X4250000Y28950000D03*
X4250000Y27450000D03*
X4250000Y25950000D03*
X4250000Y24450000D03*
X4250000Y22950000D03*
X4250000Y21450000D03*
X4250000Y19950000D03*
X4250000Y18450000D03*
X4250000Y16950000D03*
X4250000Y15450000D03*
X4250000Y13950000D03*
D51*
X4000000Y12300000D03*
D31*
X56819400Y30325001D03*
X56819400Y30975000D03*
X56819400Y31624998D03*
X56819400Y32274999D03*
X56819400Y32924998D03*
X56819400Y33574999D03*
X56819400Y34224998D03*
X56819400Y34874999D03*
X56819400Y35524998D03*
X56819400Y36174999D03*
X56819400Y36824998D03*
X56819400Y37474999D03*
X51180600Y37474999D03*
X51180600Y36825000D03*
X51180600Y36174999D03*
X51180600Y35525001D03*
X51180600Y34874999D03*
X51180600Y34225001D03*
X51180600Y33575002D03*
X51180600Y32925001D03*
X51180600Y32275002D03*
X51180600Y31625001D03*
X51180600Y30975002D03*
X51180600Y30325001D03*
D53*
X26900000Y29080000D03*
X26900000Y28120000D03*
D32*
X52500000Y57800000D03*
D54*
X128320000Y16550000D03*
D55*
X125780000Y16550000D03*
X128320000Y19090000D03*
X125780000Y19090000D03*
X128320000Y21630000D03*
X125780000Y21630000D03*
X128320000Y24170000D03*
X125780000Y24170000D03*
X128320000Y26710000D03*
X125780000Y26710000D03*
X128320000Y29250000D03*
X125780000Y29250000D03*
X128320000Y31790000D03*
X125780000Y31790000D03*
X128320000Y34330000D03*
X125780000Y34330000D03*
X128320000Y36870000D03*
X125780000Y36870000D03*
X128320000Y39410000D03*
X125780000Y39410000D03*
X128320000Y41950000D03*
X125780000Y41950000D03*
X128320000Y44490000D03*
X125780000Y44490000D03*
X128320000Y47030000D03*
X125780000Y47030000D03*
X128320000Y49570000D03*
X125780000Y49570000D03*
X128320000Y52110000D03*
X125780000Y52110000D03*
X128320000Y54650000D03*
X125780000Y54650000D03*
D18*
X83000000Y22600000D03*
X83000000Y48600000D03*
D54*
X78350000Y16550000D03*
D55*
X80890000Y16550000D03*
X78350000Y19090000D03*
X80890000Y19090000D03*
X78350000Y21630000D03*
X80890000Y21630000D03*
X78350000Y24170000D03*
X80890000Y24170000D03*
X78350000Y26710000D03*
X80890000Y26710000D03*
X78350000Y29250000D03*
X80890000Y29250000D03*
X78350000Y31790000D03*
X80890000Y31790000D03*
X78350000Y34330000D03*
X80890000Y34330000D03*
X78350000Y36870000D03*
X80890000Y36870000D03*
X78350000Y39410000D03*
X80890000Y39410000D03*
X78350000Y41950000D03*
X80890000Y41950000D03*
X78350000Y44490000D03*
X80890000Y44490000D03*
X78350000Y47030000D03*
X80890000Y47030000D03*
X78350000Y49570000D03*
X80890000Y49570000D03*
X78350000Y52110000D03*
X80890000Y52110000D03*
X78350000Y54650000D03*
X80890000Y54650000D03*
M02*
