G04 #@! TF.GenerationSoftware,KiCad,Pcbnew,6.0.2+dfsg-1*
G04 #@! TF.CreationDate,2022-11-20T12:02:48+01:00*
G04 #@! TF.ProjectId,gb-stream-cart,67622d73-7472-4656-916d-2d636172742e,REV1*
G04 #@! TF.SameCoordinates,PX4cf3b50PY7de2900*
G04 #@! TF.FileFunction,Paste,Top*
G04 #@! TF.FilePolarity,Positive*
%FSLAX46Y46*%
G04 Gerber Fmt 4.6, Leading zero omitted, Abs format (unit mm)*
G04 Created by KiCad (PCBNEW 6.0.2+dfsg-1) date 2022-11-20 12:02:48*
%MOMM*%
%LPD*%
G01*
G04 APERTURE LIST*
G04 Aperture macros list*
%AMRoundRect*
0 Rectangle with rounded corners*
0 $1 Rounding radius*
0 $2 $3 $4 $5 $6 $7 $8 $9 X,Y pos of 4 corners*
0 Add a 4 corners polygon primitive as box body*
4,1,4,$2,$3,$4,$5,$6,$7,$8,$9,$2,$3,0*
0 Add four circle primitives for the rounded corners*
1,1,$1+$1,$2,$3*
1,1,$1+$1,$4,$5*
1,1,$1+$1,$6,$7*
1,1,$1+$1,$8,$9*
0 Add four rect primitives between the rounded corners*
20,1,$1+$1,$2,$3,$4,$5,0*
20,1,$1+$1,$4,$5,$6,$7,0*
20,1,$1+$1,$6,$7,$8,$9,0*
20,1,$1+$1,$8,$9,$2,$3,0*%
G04 Aperture macros list end*
%ADD10RoundRect,0.135000X0.135000X0.185000X-0.135000X0.185000X-0.135000X-0.185000X0.135000X-0.185000X0*%
%ADD11RoundRect,0.147500X-0.147500X-0.172500X0.147500X-0.172500X0.147500X0.172500X-0.147500X0.172500X0*%
%ADD12RoundRect,0.243750X0.243750X0.456250X-0.243750X0.456250X-0.243750X-0.456250X0.243750X-0.456250X0*%
%ADD13RoundRect,0.147500X0.147500X0.172500X-0.147500X0.172500X-0.147500X-0.172500X0.147500X-0.172500X0*%
%ADD14RoundRect,0.135000X-0.135000X-0.185000X0.135000X-0.185000X0.135000X0.185000X-0.135000X0.185000X0*%
%ADD15RoundRect,0.140000X-0.140000X-0.170000X0.140000X-0.170000X0.140000X0.170000X-0.140000X0.170000X0*%
%ADD16R,2.100000X5.600000*%
%ADD17RoundRect,0.243750X-0.456250X0.243750X-0.456250X-0.243750X0.456250X-0.243750X0.456250X0.243750X0*%
%ADD18RoundRect,0.147500X-0.172500X0.147500X-0.172500X-0.147500X0.172500X-0.147500X0.172500X0.147500X0*%
%ADD19R,2.000000X1.500000*%
%ADD20R,2.000000X3.800000*%
%ADD21R,3.500000X5.000000*%
%ADD22RoundRect,0.275000X1.125000X-0.275000X1.125000X0.275000X-1.125000X0.275000X-1.125000X-0.275000X0*%
%ADD23RoundRect,0.275000X1.325000X-0.275000X1.325000X0.275000X-1.325000X0.275000X-1.325000X-0.275000X0*%
%ADD24R,1.676400X0.355600*%
%ADD25RoundRect,0.147500X0.172500X-0.147500X0.172500X0.147500X-0.172500X0.147500X-0.172500X-0.147500X0*%
%ADD26R,0.600000X1.450000*%
%ADD27R,0.300000X1.450000*%
%ADD28R,0.355600X1.676400*%
%ADD29RoundRect,0.140000X0.140000X0.170000X-0.140000X0.170000X-0.140000X-0.170000X0.140000X-0.170000X0*%
%ADD30RoundRect,0.135000X0.185000X-0.135000X0.185000X0.135000X-0.185000X0.135000X-0.185000X-0.135000X0*%
%ADD31RoundRect,0.250000X0.375000X0.625000X-0.375000X0.625000X-0.375000X-0.625000X0.375000X-0.625000X0*%
%ADD32R,0.900000X1.000000*%
%ADD33R,1.700000X0.550000*%
%ADD34RoundRect,0.250000X-0.292217X0.292217X-0.292217X-0.292217X0.292217X-0.292217X0.292217X0.292217X0*%
%ADD35RoundRect,0.050000X-0.050000X0.387500X-0.050000X-0.387500X0.050000X-0.387500X0.050000X0.387500X0*%
%ADD36RoundRect,0.050000X-0.387500X0.050000X-0.387500X-0.050000X0.387500X-0.050000X0.387500X0.050000X0*%
%ADD37RoundRect,0.150000X0.650000X0.150000X-0.650000X0.150000X-0.650000X-0.150000X0.650000X-0.150000X0*%
%ADD38RoundRect,0.140000X0.170000X-0.140000X0.170000X0.140000X-0.170000X0.140000X-0.170000X-0.140000X0*%
%ADD39RoundRect,0.140000X-0.170000X0.140000X-0.170000X-0.140000X0.170000X-0.140000X0.170000X0.140000X0*%
G04 APERTURE END LIST*
D10*
X94410000Y10400000D03*
X93390000Y10400000D03*
D11*
X46730000Y43830000D03*
X47700000Y43830000D03*
D12*
X59237500Y51500000D03*
X57362500Y51500000D03*
D13*
X33700000Y41300250D03*
X32730000Y41300250D03*
D14*
X52380000Y53900000D03*
X53400000Y53900000D03*
D15*
X55920000Y29000000D03*
X56880000Y29000000D03*
D10*
X36910000Y58900000D03*
X35890000Y58900000D03*
D16*
X26584000Y48340250D03*
X26584000Y39340250D03*
D17*
X56500000Y57550000D03*
X56500000Y55675000D03*
D18*
X45100000Y35681250D03*
X45100000Y34711250D03*
D19*
X65200000Y55337500D03*
X65200000Y57637500D03*
D20*
X58900000Y57637500D03*
D19*
X65200000Y59937500D03*
D11*
X45700000Y37681250D03*
X46670000Y37681250D03*
D21*
X102305000Y48550000D03*
X102305000Y22550000D03*
D22*
X122545000Y12455000D03*
X122545000Y13945000D03*
X122545000Y15435000D03*
X122545000Y16925000D03*
X122545000Y18415000D03*
X122545000Y19905000D03*
X122545000Y21395000D03*
X122545000Y22885000D03*
X122545000Y24375000D03*
X122545000Y25865000D03*
X122545000Y27355000D03*
X122545000Y28845000D03*
X122545000Y30335000D03*
X122545000Y31825000D03*
X122545000Y33315000D03*
X122545000Y34805000D03*
X122545000Y36295000D03*
X122545000Y37785000D03*
X122545000Y39275000D03*
X122545000Y40765000D03*
X122545000Y42255000D03*
X122545000Y43745000D03*
X122545000Y45235000D03*
X122545000Y46725000D03*
X122545000Y48215000D03*
X122545000Y49705000D03*
X122545000Y51195000D03*
X122545000Y52685000D03*
X122545000Y54175000D03*
X122545000Y55665000D03*
X122545000Y57155000D03*
D23*
X122745000Y58645000D03*
D14*
X70890000Y60400000D03*
X71910000Y60400000D03*
D15*
X35920000Y60000000D03*
X36880000Y60000000D03*
D10*
X91910000Y10400000D03*
X90890000Y10400000D03*
D24*
X38480600Y60274999D03*
X38480600Y59625000D03*
X38480600Y58975002D03*
X38480600Y58325001D03*
X38480600Y57675002D03*
X38480600Y57025001D03*
X38480600Y56375002D03*
X38480600Y55725001D03*
X38480600Y55075002D03*
X38480600Y54425001D03*
X38480600Y53775002D03*
X38480600Y53125001D03*
X44119400Y53125001D03*
X44119400Y53775000D03*
X44119400Y54425001D03*
X44119400Y55074999D03*
X44119400Y55725001D03*
X44119400Y56374999D03*
X44119400Y57024998D03*
X44119400Y57674999D03*
X44119400Y58324998D03*
X44119400Y58974999D03*
X44119400Y59624998D03*
X44119400Y60274999D03*
X24780600Y60274999D03*
X24780600Y59625000D03*
X24780600Y58975002D03*
X24780600Y58325001D03*
X24780600Y57675002D03*
X24780600Y57025001D03*
X24780600Y56375002D03*
X24780600Y55725001D03*
X24780600Y55075002D03*
X24780600Y54425001D03*
X24780600Y53775002D03*
X24780600Y53125001D03*
X30419400Y53125001D03*
X30419400Y53775000D03*
X30419400Y54425001D03*
X30419400Y55074999D03*
X30419400Y55725001D03*
X30419400Y56374999D03*
X30419400Y57024998D03*
X30419400Y57674999D03*
X30419400Y58324998D03*
X30419400Y58974999D03*
X30419400Y59624998D03*
X30419400Y60274999D03*
D10*
X53400000Y52500000D03*
X52380000Y52500000D03*
D18*
X30700000Y42681250D03*
X30700000Y41711250D03*
D10*
X33095000Y42981250D03*
X32075000Y42981250D03*
D25*
X42700000Y47681250D03*
X42700000Y48651250D03*
D26*
X77050000Y62615000D03*
X76250000Y62615000D03*
D27*
X75050000Y62615000D03*
X74050000Y62615000D03*
X73550000Y62615000D03*
X72550000Y62615000D03*
D26*
X71350000Y62615000D03*
X70550000Y62615000D03*
X70550000Y62615000D03*
X71350000Y62615000D03*
D27*
X72050000Y62615000D03*
X73050000Y62615000D03*
X74550000Y62615000D03*
X75550000Y62615000D03*
D26*
X76250000Y62615000D03*
X77050000Y62615000D03*
D28*
X28225001Y28680600D03*
X28875000Y28680600D03*
X29524998Y28680600D03*
X30174999Y28680600D03*
X30824998Y28680600D03*
X31474999Y28680600D03*
X32124998Y28680600D03*
X32774999Y28680600D03*
X33424998Y28680600D03*
X34074999Y28680600D03*
X34724998Y28680600D03*
X35374999Y28680600D03*
X35374999Y34319400D03*
X34725000Y34319400D03*
X34074999Y34319400D03*
X33425001Y34319400D03*
X32774999Y34319400D03*
X32125001Y34319400D03*
X31475002Y34319400D03*
X30825001Y34319400D03*
X30175002Y34319400D03*
X29525001Y34319400D03*
X28875002Y34319400D03*
X28225001Y34319400D03*
D10*
X34410000Y58900000D03*
X33390000Y58900000D03*
D11*
X46700000Y42681250D03*
X47670000Y42681250D03*
D25*
X38500000Y47681250D03*
X38500000Y48651250D03*
D29*
X51680000Y29000000D03*
X50720000Y29000000D03*
D30*
X75900000Y59890000D03*
X75900000Y60910000D03*
D13*
X33700000Y40181250D03*
X32730000Y40181250D03*
D31*
X94000000Y8700000D03*
X91200000Y8700000D03*
D11*
X46700000Y41681250D03*
X47670000Y41681250D03*
D32*
X50250000Y54200000D03*
X46150000Y54200000D03*
X46150000Y52600000D03*
X50250000Y52600000D03*
D33*
X48200000Y54825000D03*
D17*
X67600000Y59337500D03*
X67600000Y57462500D03*
D34*
X39062500Y42318750D03*
X40337500Y42318750D03*
X39062500Y41043750D03*
X40337500Y41043750D03*
D35*
X42300000Y45118750D03*
X41900000Y45118750D03*
X41500000Y45118750D03*
X41100000Y45118750D03*
X40700000Y45118750D03*
X40300000Y45118750D03*
X39900000Y45118750D03*
X39500000Y45118750D03*
X39100000Y45118750D03*
X38700000Y45118750D03*
X38300000Y45118750D03*
X37900000Y45118750D03*
X37500000Y45118750D03*
X37100000Y45118750D03*
D36*
X36262500Y44281250D03*
X36262500Y43881250D03*
X36262500Y43481250D03*
X36262500Y43081250D03*
X36262500Y42681250D03*
X36262500Y42281250D03*
X36262500Y41881250D03*
X36262500Y41481250D03*
X36262500Y41081250D03*
X36262500Y40681250D03*
X36262500Y40281250D03*
X36262500Y39881250D03*
X36262500Y39481250D03*
X36262500Y39081250D03*
D35*
X37100000Y38243750D03*
X37500000Y38243750D03*
X37900000Y38243750D03*
X38300000Y38243750D03*
X38700000Y38243750D03*
X39100000Y38243750D03*
X39500000Y38243750D03*
X39900000Y38243750D03*
X40300000Y38243750D03*
X40700000Y38243750D03*
X41100000Y38243750D03*
X41500000Y38243750D03*
X41900000Y38243750D03*
X42300000Y38243750D03*
D36*
X43137500Y39081250D03*
X43137500Y39481250D03*
X43137500Y39881250D03*
X43137500Y40281250D03*
X43137500Y40681250D03*
X43137500Y41081250D03*
X43137500Y41481250D03*
X43137500Y41881250D03*
X43137500Y42281250D03*
X43137500Y42681250D03*
X43137500Y43081250D03*
X43137500Y43481250D03*
X43137500Y43881250D03*
X43137500Y44281250D03*
D10*
X46695000Y40681250D03*
X45675000Y40681250D03*
D31*
X94000000Y12100000D03*
X91200000Y12100000D03*
D15*
X22220000Y60000000D03*
X23180000Y60000000D03*
D25*
X30700000Y44681250D03*
X30700000Y45651250D03*
D29*
X46680000Y60000000D03*
X45720000Y60000000D03*
D37*
X53950000Y45700000D03*
X53950000Y46970000D03*
X53950000Y48240000D03*
X53950000Y49510000D03*
X46750000Y49510000D03*
X46750000Y48240000D03*
X46750000Y46970000D03*
X46750000Y45700000D03*
D32*
X83350000Y12000000D03*
X87450000Y12000000D03*
X83350000Y10400000D03*
X87450000Y10400000D03*
D33*
X85400000Y12625000D03*
D11*
X45700000Y38681250D03*
X46670000Y38681250D03*
D38*
X26900000Y33820000D03*
X26900000Y34780000D03*
D18*
X37300000Y35781250D03*
X37300000Y34811250D03*
X43700000Y35681250D03*
X43700000Y34711250D03*
D38*
X32100000Y59100000D03*
X32100000Y60060000D03*
D10*
X46695000Y39681250D03*
X45675000Y39681250D03*
D24*
X56819400Y30325001D03*
X56819400Y30975000D03*
X56819400Y31624998D03*
X56819400Y32274999D03*
X56819400Y32924998D03*
X56819400Y33574999D03*
X56819400Y34224998D03*
X56819400Y34874999D03*
X56819400Y35524998D03*
X56819400Y36174999D03*
X56819400Y36824998D03*
X56819400Y37474999D03*
X51180600Y37474999D03*
X51180600Y36825000D03*
X51180600Y36174999D03*
X51180600Y35525001D03*
X51180600Y34874999D03*
X51180600Y34225001D03*
X51180600Y33575002D03*
X51180600Y32925001D03*
X51180600Y32275002D03*
X51180600Y31625001D03*
X51180600Y30975002D03*
X51180600Y30325001D03*
D39*
X26900000Y29080000D03*
X26900000Y28120000D03*
M02*
