M48
; DRILL file {KiCad 6.0.2+dfsg-1} date So 20 Nov 2022 12:03:05 CET
; FORMAT={-:-/ absolute / metric / decimal}
; #@! TF.CreationDate,2022-11-20T12:03:05+01:00
; #@! TF.GenerationSoftware,Kicad,Pcbnew,6.0.2+dfsg-1
; #@! TF.FileFunction,NonPlated,1,2,NPTH
FMAT,2
METRIC
; #@! TA.AperFunction,NonPlated,NPTH,ComponentDrill
T1C0.500
; #@! TA.AperFunction,NonPlated,NPTH,ComponentDrill
T2C0.650
; #@! TA.AperFunction,NonPlated,NPTH,ComponentDrill
T3C2.000
; #@! TA.AperFunction,NonPlated,NPTH,ComponentDrill
T4C2.300
; #@! TA.AperFunction,NonPlated,NPTH,ComponentDrill
T5C2.700
; #@! TA.AperFunction,NonPlated,NPTH,ComponentDrill
T6C7.100
%
G90
G05
T1
X9.9Y61.4
X9.9Y10.0
X10.7Y61.4
X10.7Y10.0
X11.5Y61.4
X11.5Y10.0
X12.3Y61.4
X12.3Y10.0
X13.1Y61.4
X13.1Y10.0
X13.9Y61.4
X13.9Y10.0
X50.4Y61.4
X50.4Y10.0
X51.2Y61.4
X51.2Y10.0
X52.0Y61.4
X52.0Y10.0
X52.8Y61.4
X52.8Y10.0
X53.6Y61.4
X53.6Y10.0
X54.4Y61.4
X54.4Y10.0
X79.9Y69.6
X80.7Y69.6
X81.5Y69.6
X82.3Y69.6
X83.1Y69.6
X83.9Y69.6
X84.9Y7.0
X85.7Y7.0
X86.5Y7.0
X87.3Y7.0
X88.1Y7.0
X88.9Y7.0
X97.9Y60.7
X97.9Y59.9
X97.9Y59.1
X97.9Y58.3
X97.9Y57.5
X97.9Y56.7
X97.9Y37.7
X97.9Y36.9
X97.9Y36.1
X97.9Y35.3
X97.9Y34.5
X97.9Y33.7
X97.9Y14.7
X97.9Y13.9
X97.9Y13.1
X97.9Y12.3
X97.9Y11.5
X97.9Y10.7
X99.9Y60.7
X99.9Y59.9
X99.9Y59.1
X99.9Y58.3
X99.9Y57.5
X99.9Y56.7
X99.9Y37.7
X99.9Y36.9
X99.9Y36.1
X99.9Y35.3
X99.9Y34.5
X99.9Y33.7
X99.9Y14.7
X99.9Y13.9
X99.9Y13.1
X99.9Y12.3
X99.9Y11.5
X99.9Y10.7
X101.9Y7.0
X102.4Y64.1
X102.7Y7.0
X103.2Y64.1
X103.5Y7.0
X104.0Y64.1
X104.3Y7.0
X104.8Y64.1
X105.1Y7.0
X105.6Y64.1
X105.9Y7.0
X106.4Y64.1
X125.4Y64.1
X125.4Y7.0
X126.2Y64.1
X126.2Y7.0
X127.0Y64.1
X127.0Y7.0
X127.8Y64.1
X127.8Y7.0
X128.6Y64.1
X128.6Y7.0
X129.4Y64.1
X129.4Y7.0
T2
X70.91Y64.06
X76.69Y64.06
T3
X83.0Y48.6
X83.0Y22.6
X114.555Y48.55
X114.555Y22.55
T4
X40.35Y35.7
T5
X12.15Y57.8
X12.2Y13.6
X52.5Y57.8
X67.1Y13.6
X83.3Y66.85
X127.3Y61.05
X127.3Y10.05
T6
X15.4Y35.7
T0
M30
