M48
; DRILL file {KiCad 6.0.2+dfsg-1} date So 20 Nov 2022 12:03:05 CET
; FORMAT={-:-/ absolute / metric / decimal}
; #@! TF.CreationDate,2022-11-20T12:03:05+01:00
; #@! TF.GenerationSoftware,Kicad,Pcbnew,6.0.2+dfsg-1
; #@! TF.FileFunction,Plated,1,2,PTH
FMAT,2
METRIC
; #@! TA.AperFunction,Plated,PTH,ViaDrill
T1C0.350
; #@! TA.AperFunction,Plated,PTH,ComponentDrill
T2C0.350
; #@! TA.AperFunction,Plated,PTH,ComponentDrill
T3C0.600
; #@! TA.AperFunction,Plated,PTH,ComponentDrill
T4C1.000
%
G90
G05
T1
X8.2Y58.2
X8.2Y12.3
X8.75Y56.65
X9.1Y55.5
X9.2Y12.3
X9.4Y54.4
X9.701Y53.701
X9.95Y51.45
X10.25Y49.95
X10.55Y48.45
X10.85Y46.95
X11.124Y46.076
X11.45Y44.65
X11.8Y43.8
X12.05Y42.65
X16.375Y56.375
X16.375Y55.075
X16.4Y41.2
X16.825Y55.725
X16.825Y54.425
X18.1Y40.3
X19.625Y39.625
X20.775Y31.775
X20.8Y60.0
X21.351Y31.251
X21.4Y30.5
X21.7Y29.8
X21.95Y28.95
X24.6Y36.191
X25.0Y51.591
X26.1Y33.8
X26.25Y53.65
X26.8Y43.791
X26.9Y30.0
X28.3Y53.6
X28.3Y51.591
X28.3Y44.881
X28.3Y42.891
X28.3Y36.191
X29.5Y32.8
X29.525Y19.025
X30.0Y31.7
X30.175Y19.575
X30.7Y46.507
X30.711Y40.919
X30.825Y20.125
X30.9Y32.4
X31.475Y20.675
X31.918Y40.181
X31.918Y41.3
X32.125Y21.225
X32.743Y42.126
X32.775Y21.775
X32.87Y44.602
X33.4Y59.6
X33.425Y22.325
X33.5Y45.1
X34.075Y22.875
X34.2Y60.1
X34.2Y45.4
X34.5Y40.881
X35.1Y60.0
X35.2Y58.9
X36.181Y34.319
X36.2Y28.7
X36.725Y56.375
X36.775Y55.075
X36.9Y57.2
X37.2Y53.6
X37.225Y55.725
X37.225Y54.425
X37.3Y33.9
X37.6Y41.081
X38.5Y49.681
X39.7Y52.3
X40.2Y60.1
X40.3Y37.4
X40.6Y54.8
X41.6Y34.2
X41.7Y55.1
X41.7Y50.9
X41.8Y40.981
X42.5Y54.1
X42.5Y53.3
X42.7Y49.681
X42.9Y55.1
X42.9Y52.4
X44.0Y52.1
X44.411Y34.711
X44.5Y41.881
X46.15Y55.25
X46.6Y59.1
X47.5Y38.681
X47.5Y37.681
X48.5Y42.681
X48.5Y43.8
X48.5Y41.681
X49.4Y37.5
X49.4Y31.4
X51.3Y54.2
X52.4Y49.5
X52.6Y29.0
X54.1Y52.5
X54.101Y50.799
X55.0Y29.0
X56.1Y51.5
X56.2Y13.4
X56.2Y12.5
X56.5Y54.6
X56.819Y38.481
X58.275Y36.175
X58.275Y34.875
X58.275Y33.575
X58.275Y32.275
X58.725Y35.525
X58.725Y34.225
X58.725Y32.925
X58.725Y31.625
X63.0Y29.0
X66.5Y47.3
X66.669Y56.531
X67.2Y49.8
X67.75Y25.45
X68.2Y23.9
X68.4Y25.6
X70.1Y60.4
X76.9Y59.9
X89.1Y12.0
X90.0Y10.4
X92.7Y10.4
T2
X38.425Y42.956
X38.425Y41.681
X38.425Y40.406
X39.7Y42.956
X39.7Y41.681
X39.7Y40.406
X40.975Y42.956
X40.975Y41.681
X40.975Y40.406
T4
X78.35Y54.65
X78.35Y52.11
X78.35Y49.57
X78.35Y47.03
X78.35Y44.49
X78.35Y41.95
X78.35Y39.41
X78.35Y36.87
X78.35Y34.33
X78.35Y31.79
X78.35Y29.25
X78.35Y26.71
X78.35Y24.17
X78.35Y21.63
X78.35Y19.09
X78.35Y16.55
X80.89Y54.65
X80.89Y52.11
X80.89Y49.57
X80.89Y47.03
X80.89Y44.49
X80.89Y41.95
X80.89Y39.41
X80.89Y36.87
X80.89Y34.33
X80.89Y31.79
X80.89Y29.25
X80.89Y26.71
X80.89Y24.17
X80.89Y21.63
X80.89Y19.09
X80.89Y16.55
X125.78Y54.65
X125.78Y52.11
X125.78Y49.57
X125.78Y47.03
X125.78Y44.49
X125.78Y41.95
X125.78Y39.41
X125.78Y36.87
X125.78Y34.33
X125.78Y31.79
X125.78Y29.25
X125.78Y26.71
X125.78Y24.17
X125.78Y21.63
X125.78Y19.09
X125.78Y16.55
X128.32Y54.65
X128.32Y52.11
X128.32Y49.57
X128.32Y47.03
X128.32Y44.49
X128.32Y41.95
X128.32Y39.41
X128.32Y36.87
X128.32Y34.33
X128.32Y31.79
X128.32Y29.25
X128.32Y26.71
X128.32Y24.17
X128.32Y21.63
X128.32Y19.09
X128.32Y16.55
T3
X69.48Y67.41G85X69.48Y68.01
G05
X69.48Y62.98G85X69.48Y64.08
G05
X78.12Y67.41G85X78.12Y68.01
G05
X78.12Y62.98G85X78.12Y64.08
G05
T0
M30
