G04 #@! TF.GenerationSoftware,KiCad,Pcbnew,6.0.2+dfsg-1*
G04 #@! TF.CreationDate,2022-11-20T12:02:48+01:00*
G04 #@! TF.ProjectId,gb-stream-cart,67622d73-7472-4656-916d-2d636172742e,REV1*
G04 #@! TF.SameCoordinates,PX4cf3b50PY7de2900*
G04 #@! TF.FileFunction,Soldermask,Top*
G04 #@! TF.FilePolarity,Negative*
%FSLAX46Y46*%
G04 Gerber Fmt 4.6, Leading zero omitted, Abs format (unit mm)*
G04 Created by KiCad (PCBNEW 6.0.2+dfsg-1) date 2022-11-20 12:02:48*
%MOMM*%
%LPD*%
G01*
G04 APERTURE LIST*
G04 Aperture macros list*
%AMRoundRect*
0 Rectangle with rounded corners*
0 $1 Rounding radius*
0 $2 $3 $4 $5 $6 $7 $8 $9 X,Y pos of 4 corners*
0 Add a 4 corners polygon primitive as box body*
4,1,4,$2,$3,$4,$5,$6,$7,$8,$9,$2,$3,0*
0 Add four circle primitives for the rounded corners*
1,1,$1+$1,$2,$3*
1,1,$1+$1,$4,$5*
1,1,$1+$1,$6,$7*
1,1,$1+$1,$8,$9*
0 Add four rect primitives between the rounded corners*
20,1,$1+$1,$2,$3,$4,$5,0*
20,1,$1+$1,$4,$5,$6,$7,0*
20,1,$1+$1,$6,$7,$8,$9,0*
20,1,$1+$1,$8,$9,$2,$3,0*%
G04 Aperture macros list end*
%ADD10RoundRect,0.135000X0.135000X0.185000X-0.135000X0.185000X-0.135000X-0.185000X0.135000X-0.185000X0*%
%ADD11RoundRect,0.147500X-0.147500X-0.172500X0.147500X-0.172500X0.147500X0.172500X-0.147500X0.172500X0*%
%ADD12RoundRect,0.243750X0.243750X0.456250X-0.243750X0.456250X-0.243750X-0.456250X0.243750X-0.456250X0*%
%ADD13RoundRect,0.147500X0.147500X0.172500X-0.147500X0.172500X-0.147500X-0.172500X0.147500X-0.172500X0*%
%ADD14C,2.000000*%
%ADD15RoundRect,0.135000X-0.135000X-0.185000X0.135000X-0.185000X0.135000X0.185000X-0.135000X0.185000X0*%
%ADD16RoundRect,0.140000X-0.140000X-0.170000X0.140000X-0.170000X0.140000X0.170000X-0.140000X0.170000X0*%
%ADD17C,0.500000*%
%ADD18R,2.100000X5.600000*%
%ADD19RoundRect,0.243750X-0.456250X0.243750X-0.456250X-0.243750X0.456250X-0.243750X0.456250X0.243750X0*%
%ADD20RoundRect,0.147500X-0.172500X0.147500X-0.172500X-0.147500X0.172500X-0.147500X0.172500X0.147500X0*%
%ADD21R,2.000000X1.500000*%
%ADD22R,2.000000X3.800000*%
%ADD23R,3.500000X5.000000*%
%ADD24RoundRect,0.275000X1.125000X-0.275000X1.125000X0.275000X-1.125000X0.275000X-1.125000X-0.275000X0*%
%ADD25RoundRect,0.275000X1.325000X-0.275000X1.325000X0.275000X-1.325000X0.275000X-1.325000X-0.275000X0*%
%ADD26C,2.350000*%
%ADD27R,1.676400X0.355600*%
%ADD28C,2.700000*%
%ADD29C,7.150000*%
%ADD30RoundRect,0.147500X0.172500X-0.147500X0.172500X0.147500X-0.172500X0.147500X-0.172500X-0.147500X0*%
%ADD31C,0.650000*%
%ADD32R,0.600000X1.450000*%
%ADD33R,0.300000X1.450000*%
%ADD34O,1.000000X2.100000*%
%ADD35O,1.000000X1.600000*%
%ADD36R,0.355600X1.676400*%
%ADD37RoundRect,0.140000X0.140000X0.170000X-0.140000X0.170000X-0.140000X-0.170000X0.140000X-0.170000X0*%
%ADD38RoundRect,0.135000X0.185000X-0.135000X0.185000X0.135000X-0.185000X0.135000X-0.185000X-0.135000X0*%
%ADD39RoundRect,0.250000X0.375000X0.625000X-0.375000X0.625000X-0.375000X-0.625000X0.375000X-0.625000X0*%
%ADD40R,0.900000X1.000000*%
%ADD41R,1.700000X0.550000*%
%ADD42RoundRect,0.050000X-0.050000X0.387500X-0.050000X-0.387500X0.050000X-0.387500X0.050000X0.387500X0*%
%ADD43RoundRect,0.050000X-0.387500X0.050000X-0.387500X-0.050000X0.387500X-0.050000X0.387500X0.050000X0*%
%ADD44RoundRect,0.144000X-1.456000X1.456000X-1.456000X-1.456000X1.456000X-1.456000X1.456000X1.456000X0*%
%ADD45RoundRect,0.150000X0.650000X0.150000X-0.650000X0.150000X-0.650000X-0.150000X0.650000X-0.150000X0*%
%ADD46RoundRect,0.140000X0.170000X-0.140000X0.170000X0.140000X-0.170000X0.140000X-0.170000X-0.140000X0*%
%ADD47R,6.000000X1.300000*%
%ADD48R,5.500000X1.000000*%
%ADD49RoundRect,0.140000X-0.170000X0.140000X-0.170000X-0.140000X0.170000X-0.140000X0.170000X0.140000X0*%
%ADD50R,1.700000X1.700000*%
%ADD51O,1.700000X1.700000*%
G04 APERTURE END LIST*
D10*
X94410000Y10400000D03*
X93390000Y10400000D03*
D11*
X46730000Y43830000D03*
X47700000Y43830000D03*
D12*
X59237500Y51500000D03*
X57362500Y51500000D03*
D13*
X33700000Y41300250D03*
X32730000Y41300250D03*
D14*
X127400000Y3850000D03*
D15*
X52380000Y53900000D03*
X53400000Y53900000D03*
D16*
X55920000Y29000000D03*
X56880000Y29000000D03*
D17*
X97900000Y34500000D03*
X99900000Y36900000D03*
X97900000Y33700000D03*
X99900000Y35300000D03*
X99900000Y33700000D03*
X97900000Y35300000D03*
X99900000Y37700000D03*
X97900000Y36900000D03*
X99900000Y34500000D03*
X97900000Y36100000D03*
X97900000Y37700000D03*
X99900000Y36100000D03*
D10*
X36910000Y58900000D03*
X35890000Y58900000D03*
D18*
X26584000Y48340250D03*
X26584000Y39340250D03*
D17*
X97900000Y58300000D03*
X99900000Y58300000D03*
X97900000Y60700000D03*
X97900000Y56700000D03*
X97900000Y59100000D03*
X97900000Y57500000D03*
X99900000Y59900000D03*
X99900000Y57500000D03*
X99900000Y56700000D03*
X97900000Y59900000D03*
X99900000Y59100000D03*
X99900000Y60700000D03*
D19*
X56500000Y57550000D03*
X56500000Y55675000D03*
D20*
X45100000Y35681250D03*
X45100000Y34711250D03*
D17*
X103200000Y64099999D03*
X106400000Y64099999D03*
X104800000Y64099999D03*
X102400000Y64099999D03*
X105600000Y64099999D03*
X104000000Y64099999D03*
D21*
X65200000Y55337500D03*
X65200000Y57637500D03*
D22*
X58900000Y57637500D03*
D21*
X65200000Y59937500D03*
D11*
X45700000Y37681250D03*
X46670000Y37681250D03*
D14*
X114555000Y22550000D03*
X114555000Y48550000D03*
D23*
X102305000Y48550000D03*
X102305000Y22550000D03*
D24*
X122545000Y12455000D03*
X122545000Y13945000D03*
X122545000Y15435000D03*
X122545000Y16925000D03*
X122545000Y18415000D03*
X122545000Y19905000D03*
X122545000Y21395000D03*
X122545000Y22885000D03*
X122545000Y24375000D03*
X122545000Y25865000D03*
X122545000Y27355000D03*
X122545000Y28845000D03*
X122545000Y30335000D03*
X122545000Y31825000D03*
X122545000Y33315000D03*
X122545000Y34805000D03*
X122545000Y36295000D03*
X122545000Y37785000D03*
X122545000Y39275000D03*
X122545000Y40765000D03*
X122545000Y42255000D03*
X122545000Y43745000D03*
X122545000Y45235000D03*
X122545000Y46725000D03*
X122545000Y48215000D03*
X122545000Y49705000D03*
X122545000Y51195000D03*
X122545000Y52685000D03*
X122545000Y54175000D03*
X122545000Y55665000D03*
X122545000Y57155000D03*
D25*
X122745000Y58645000D03*
D15*
X70890000Y60400000D03*
X71910000Y60400000D03*
D16*
X35920000Y60000000D03*
X36880000Y60000000D03*
D17*
X11500000Y10000000D03*
X9900000Y10000000D03*
X12300000Y10000000D03*
X13900000Y10000000D03*
X13100000Y10000000D03*
X10700000Y10000000D03*
D10*
X91910000Y10400000D03*
X90890000Y10400000D03*
D26*
X40350000Y35700000D03*
D27*
X38480600Y60274999D03*
X38480600Y59625000D03*
X38480600Y58975002D03*
X38480600Y58325001D03*
X38480600Y57675002D03*
X38480600Y57025001D03*
X38480600Y56375002D03*
X38480600Y55725001D03*
X38480600Y55075002D03*
X38480600Y54425001D03*
X38480600Y53775002D03*
X38480600Y53125001D03*
X44119400Y53125001D03*
X44119400Y53775000D03*
X44119400Y54425001D03*
X44119400Y55074999D03*
X44119400Y55725001D03*
X44119400Y56374999D03*
X44119400Y57024998D03*
X44119400Y57674999D03*
X44119400Y58324998D03*
X44119400Y58974999D03*
X44119400Y59624998D03*
X44119400Y60274999D03*
X24780600Y60274999D03*
X24780600Y59625000D03*
X24780600Y58975002D03*
X24780600Y58325001D03*
X24780600Y57675002D03*
X24780600Y57025001D03*
X24780600Y56375002D03*
X24780600Y55725001D03*
X24780600Y55075002D03*
X24780600Y54425001D03*
X24780600Y53775002D03*
X24780600Y53125001D03*
X30419400Y53125001D03*
X30419400Y53775000D03*
X30419400Y54425001D03*
X30419400Y55074999D03*
X30419400Y55725001D03*
X30419400Y56374999D03*
X30419400Y57024998D03*
X30419400Y57674999D03*
X30419400Y58324998D03*
X30419400Y58974999D03*
X30419400Y59624998D03*
X30419400Y60274999D03*
D10*
X53400000Y52500000D03*
X52380000Y52500000D03*
D28*
X83300000Y66850000D03*
X12150000Y57800000D03*
D20*
X30700000Y42681250D03*
X30700000Y41711250D03*
D29*
X15400000Y35700000D03*
D10*
X33095000Y42981250D03*
X32075000Y42981250D03*
D30*
X42700000Y47681250D03*
X42700000Y48651250D03*
D28*
X127300000Y10050000D03*
D17*
X126200000Y7000000D03*
X127000000Y7000000D03*
X127800000Y7000000D03*
X129400000Y7000000D03*
X128600000Y7000000D03*
X125400000Y7000000D03*
D28*
X67100000Y13600000D03*
D17*
X79900000Y69600000D03*
X82300000Y69600000D03*
X81500000Y69600000D03*
X80700000Y69600000D03*
X83100000Y69600000D03*
X83900000Y69600000D03*
D31*
X76690000Y64060000D03*
X70910000Y64060000D03*
D32*
X77050000Y62615000D03*
X76250000Y62615000D03*
D33*
X75050000Y62615000D03*
X74050000Y62615000D03*
X73550000Y62615000D03*
X72550000Y62615000D03*
D32*
X71350000Y62615000D03*
X70550000Y62615000D03*
X70550000Y62615000D03*
X71350000Y62615000D03*
D33*
X72050000Y62615000D03*
X73050000Y62615000D03*
X74550000Y62615000D03*
X75550000Y62615000D03*
D32*
X76250000Y62615000D03*
X77050000Y62615000D03*
D34*
X78120000Y63530000D03*
D35*
X78120000Y67710000D03*
D34*
X69480000Y63530000D03*
D35*
X69480000Y67710000D03*
D36*
X28225001Y28680600D03*
X28875000Y28680600D03*
X29524998Y28680600D03*
X30174999Y28680600D03*
X30824998Y28680600D03*
X31474999Y28680600D03*
X32124998Y28680600D03*
X32774999Y28680600D03*
X33424998Y28680600D03*
X34074999Y28680600D03*
X34724998Y28680600D03*
X35374999Y28680600D03*
X35374999Y34319400D03*
X34725000Y34319400D03*
X34074999Y34319400D03*
X33425001Y34319400D03*
X32774999Y34319400D03*
X32125001Y34319400D03*
X31475002Y34319400D03*
X30825001Y34319400D03*
X30175002Y34319400D03*
X29525001Y34319400D03*
X28875002Y34319400D03*
X28225001Y34319400D03*
D10*
X34410000Y58900000D03*
X33390000Y58900000D03*
D11*
X46700000Y42681250D03*
X47670000Y42681250D03*
D30*
X38500000Y47681250D03*
X38500000Y48651250D03*
D37*
X51680000Y29000000D03*
X50720000Y29000000D03*
D14*
X127400000Y72750000D03*
D17*
X88900000Y7000000D03*
X85700000Y7000000D03*
X88100000Y7000000D03*
X86500000Y7000000D03*
X84900000Y7000000D03*
X87300000Y7000000D03*
D38*
X75900000Y59890000D03*
X75900000Y60910000D03*
D14*
X3400000Y72750000D03*
D13*
X33700000Y40181250D03*
X32730000Y40181250D03*
D39*
X94000000Y8700000D03*
X91200000Y8700000D03*
D14*
X3400000Y3850000D03*
D28*
X127300000Y61050000D03*
D11*
X46700000Y41681250D03*
X47670000Y41681250D03*
D40*
X50250000Y54200000D03*
X46150000Y54200000D03*
X46150000Y52600000D03*
X50250000Y52600000D03*
D41*
X48200000Y54825000D03*
D19*
X67600000Y59337500D03*
X67600000Y57462500D03*
D42*
X42300000Y45118750D03*
X41900000Y45118750D03*
X41500000Y45118750D03*
X41100000Y45118750D03*
X40700000Y45118750D03*
X40300000Y45118750D03*
X39900000Y45118750D03*
X39500000Y45118750D03*
X39100000Y45118750D03*
X38700000Y45118750D03*
X38300000Y45118750D03*
X37900000Y45118750D03*
X37500000Y45118750D03*
X37100000Y45118750D03*
D43*
X36262500Y44281250D03*
X36262500Y43881250D03*
X36262500Y43481250D03*
X36262500Y43081250D03*
X36262500Y42681250D03*
X36262500Y42281250D03*
X36262500Y41881250D03*
X36262500Y41481250D03*
X36262500Y41081250D03*
X36262500Y40681250D03*
X36262500Y40281250D03*
X36262500Y39881250D03*
X36262500Y39481250D03*
X36262500Y39081250D03*
D42*
X37100000Y38243750D03*
X37500000Y38243750D03*
X37900000Y38243750D03*
X38300000Y38243750D03*
X38700000Y38243750D03*
X39100000Y38243750D03*
X39500000Y38243750D03*
X39900000Y38243750D03*
X40300000Y38243750D03*
X40700000Y38243750D03*
X41100000Y38243750D03*
X41500000Y38243750D03*
X41900000Y38243750D03*
X42300000Y38243750D03*
D43*
X43137500Y39081250D03*
X43137500Y39481250D03*
X43137500Y39881250D03*
X43137500Y40281250D03*
X43137500Y40681250D03*
X43137500Y41081250D03*
X43137500Y41481250D03*
X43137500Y41881250D03*
X43137500Y42281250D03*
X43137500Y42681250D03*
X43137500Y43081250D03*
X43137500Y43481250D03*
X43137500Y43881250D03*
X43137500Y44281250D03*
D44*
X39700000Y41681250D03*
D28*
X12200000Y13600000D03*
D10*
X46695000Y40681250D03*
X45675000Y40681250D03*
D17*
X126200000Y64100000D03*
X127000000Y64100000D03*
X127800000Y64100000D03*
X125400000Y64100000D03*
X129400000Y64100000D03*
X128600000Y64100000D03*
D39*
X94000000Y12100000D03*
X91200000Y12100000D03*
D16*
X22220000Y60000000D03*
X23180000Y60000000D03*
D30*
X30700000Y44681250D03*
X30700000Y45651250D03*
D37*
X46680000Y60000000D03*
X45720000Y60000000D03*
D45*
X53950000Y45700000D03*
X53950000Y46970000D03*
X53950000Y48240000D03*
X53950000Y49510000D03*
X46750000Y49510000D03*
X46750000Y48240000D03*
X46750000Y46970000D03*
X46750000Y45700000D03*
D40*
X83350000Y12000000D03*
X87450000Y12000000D03*
X83350000Y10400000D03*
X87450000Y10400000D03*
D41*
X85400000Y12625000D03*
D11*
X45700000Y38681250D03*
X46670000Y38681250D03*
D46*
X26900000Y33820000D03*
X26900000Y34780000D03*
D17*
X11500000Y61400000D03*
X13900000Y61400000D03*
X10700000Y61400000D03*
X9900000Y61400000D03*
X12300000Y61400000D03*
X13100000Y61400000D03*
X99900000Y12300000D03*
X97900000Y10700000D03*
X97900000Y13100000D03*
X99900000Y13100000D03*
X97900000Y14700000D03*
X99900000Y10700000D03*
X97900000Y13900000D03*
X99900000Y13900000D03*
X97900000Y12300000D03*
X99900000Y11500000D03*
X99900000Y14700000D03*
X97900000Y11500000D03*
D20*
X37300000Y35781250D03*
X37300000Y34811250D03*
X43700000Y35681250D03*
X43700000Y34711250D03*
D17*
X104300000Y7000000D03*
X105900000Y7000000D03*
X102700000Y7000000D03*
X105100000Y7000000D03*
X101900000Y7000000D03*
X103500000Y7000000D03*
D46*
X32100000Y59100000D03*
X32100000Y60060000D03*
D17*
X54400000Y61400000D03*
X51200000Y61400000D03*
X52800000Y61400000D03*
X52000000Y61400000D03*
X53600000Y61400000D03*
X50400000Y61400000D03*
D10*
X46695000Y39681250D03*
X45675000Y39681250D03*
D17*
X53600000Y10000000D03*
X54400000Y10000000D03*
X52000000Y10000000D03*
X50400000Y10000000D03*
X51200000Y10000000D03*
X52800000Y10000000D03*
D47*
X4000000Y59100000D03*
D48*
X4250000Y57450000D03*
X4250000Y55950000D03*
X4250000Y54450000D03*
X4250000Y52950000D03*
X4250000Y51450000D03*
X4250000Y49950000D03*
X4250000Y48450000D03*
X4250000Y46950000D03*
X4250000Y45450000D03*
X4250000Y43950000D03*
X4250000Y42450000D03*
X4250000Y40950000D03*
X4250000Y39450000D03*
X4250000Y37950000D03*
X4250000Y36450000D03*
X4250000Y34950000D03*
X4250000Y33450000D03*
X4250000Y31950000D03*
X4250000Y30450000D03*
X4250000Y28950000D03*
X4250000Y27450000D03*
X4250000Y25950000D03*
X4250000Y24450000D03*
X4250000Y22950000D03*
X4250000Y21450000D03*
X4250000Y19950000D03*
X4250000Y18450000D03*
X4250000Y16950000D03*
X4250000Y15450000D03*
X4250000Y13950000D03*
D47*
X4000000Y12300000D03*
D27*
X56819400Y30325001D03*
X56819400Y30975000D03*
X56819400Y31624998D03*
X56819400Y32274999D03*
X56819400Y32924998D03*
X56819400Y33574999D03*
X56819400Y34224998D03*
X56819400Y34874999D03*
X56819400Y35524998D03*
X56819400Y36174999D03*
X56819400Y36824998D03*
X56819400Y37474999D03*
X51180600Y37474999D03*
X51180600Y36825000D03*
X51180600Y36174999D03*
X51180600Y35525001D03*
X51180600Y34874999D03*
X51180600Y34225001D03*
X51180600Y33575002D03*
X51180600Y32925001D03*
X51180600Y32275002D03*
X51180600Y31625001D03*
X51180600Y30975002D03*
X51180600Y30325001D03*
D49*
X26900000Y29080000D03*
X26900000Y28120000D03*
D28*
X52500000Y57800000D03*
D50*
X128320000Y16550000D03*
D51*
X125780000Y16550000D03*
X128320000Y19090000D03*
X125780000Y19090000D03*
X128320000Y21630000D03*
X125780000Y21630000D03*
X128320000Y24170000D03*
X125780000Y24170000D03*
X128320000Y26710000D03*
X125780000Y26710000D03*
X128320000Y29250000D03*
X125780000Y29250000D03*
X128320000Y31790000D03*
X125780000Y31790000D03*
X128320000Y34330000D03*
X125780000Y34330000D03*
X128320000Y36870000D03*
X125780000Y36870000D03*
X128320000Y39410000D03*
X125780000Y39410000D03*
X128320000Y41950000D03*
X125780000Y41950000D03*
X128320000Y44490000D03*
X125780000Y44490000D03*
X128320000Y47030000D03*
X125780000Y47030000D03*
X128320000Y49570000D03*
X125780000Y49570000D03*
X128320000Y52110000D03*
X125780000Y52110000D03*
X128320000Y54650000D03*
X125780000Y54650000D03*
D14*
X83000000Y22600000D03*
X83000000Y48600000D03*
D50*
X78350000Y16550000D03*
D51*
X80890000Y16550000D03*
X78350000Y19090000D03*
X80890000Y19090000D03*
X78350000Y21630000D03*
X80890000Y21630000D03*
X78350000Y24170000D03*
X80890000Y24170000D03*
X78350000Y26710000D03*
X80890000Y26710000D03*
X78350000Y29250000D03*
X80890000Y29250000D03*
X78350000Y31790000D03*
X80890000Y31790000D03*
X78350000Y34330000D03*
X80890000Y34330000D03*
X78350000Y36870000D03*
X80890000Y36870000D03*
X78350000Y39410000D03*
X80890000Y39410000D03*
X78350000Y41950000D03*
X80890000Y41950000D03*
X78350000Y44490000D03*
X80890000Y44490000D03*
X78350000Y47030000D03*
X80890000Y47030000D03*
X78350000Y49570000D03*
X80890000Y49570000D03*
X78350000Y52110000D03*
X80890000Y52110000D03*
X78350000Y54650000D03*
X80890000Y54650000D03*
M02*
